{"glyphs":{"0":{"ha":825,"x_min":60,"x_max":763,"o":"m 321 -14 q 212 10 260 -14 q 130 77 164 35 q 78 179 96 119 q 60 310 60 239 q 96 513 60 418 q 193 677 132 607 q 334 788 254 747 q 500 829 414 829 q 608 805 560 829 q 692 738 657 781 q 744 635 726 694 q 763 504 763 575 q 726 301 763 396 q 628 137 689 207 q 487 26 567 67 q 321 -14 407 -14 m 350 128 q 447 156 400 128 q 528 233 493 185 q 585 347 564 282 q 606 488 606 413 q 569 633 606 578 q 471 688 533 688 q 372 659 418 688 q 290 581 325 631 q 235 466 256 532 q 214 326 214 400 q 249 182 214 236 q 350 128 285 128 z "},"1":{"ha":632,"x_min":1,"x_max":543,"o":"m 32 138 l 219 138 l 322 622 q 278 588 307 606 q 215 554 249 569 q 146 528 181 539 q 85 518 111 518 l 115 661 q 181 678 142 661 q 256 717 219 694 q 322 761 293 739 q 357 793 350 783 l 514 793 l 375 138 l 543 138 l 514 0 l 1 0 l 32 138 z "},"2":{"ha":735,"x_min":-32,"x_max":699,"o":"m -32 0 q 1 110 -19 60 q 53 203 21 160 q 135 284 86 246 q 256 361 185 322 q 385 432 333 403 q 467 485 436 461 q 512 533 499 510 q 525 589 525 557 q 506 649 525 625 q 435 672 488 672 q 365 662 400 672 q 299 635 331 651 q 240 600 267 619 q 194 563 213 581 l 121 675 q 173 713 139 690 q 252 757 207 736 q 351 792 297 778 q 467 807 406 807 q 639 753 579 807 q 699 614 699 700 q 673 510 699 556 q 609 431 647 465 q 527 372 571 396 q 449 329 483 347 q 383 294 418 314 q 315 252 349 275 q 253 201 282 229 q 208 138 225 172 l 614 138 l 585 0 l -32 0 l -32 0 z "},"3":{"ha":733,"x_min":-58,"x_max":694,"o":"m 213 -204 q 43 -167 113 -204 q -58 -61 -26 -131 l 56 44 q 119 -36 76 -7 q 238 -65 163 -65 q 397 -15 340 -65 q 454 126 454 35 q 410 226 454 189 q 279 263 367 263 l 243 263 l 269 382 l 308 382 q 399 396 358 382 q 467 435 439 410 q 511 493 496 460 q 526 564 526 526 q 492 640 526 614 q 401 665 458 665 q 279 635 336 665 q 179 547 222 604 l 107 651 q 171 712 133 685 q 253 759 208 739 q 347 790 297 779 q 447 800 397 800 q 628 744 563 800 q 694 597 694 689 q 677 505 694 550 q 630 423 660 460 q 560 361 600 386 q 474 328 519 336 q 576 263 540 315 q 613 135 613 210 q 583 -3 613 60 q 499 -110 553 -65 q 373 -179 446 -154 q 213 -204 300 -204 z "},"4":{"ha":758,"x_min":-43,"x_max":669,"o":"m 357 44 l -43 44 l -14 181 l 565 793 l 669 793 l 539 183 l 656 183 l 626 44 l 510 44 l 463 -176 l 310 -176 l 357 44 m 403 183 l 483 560 l 142 183 l 403 183 z "},"5":{"ha":738,"x_min":-51,"x_max":713,"o":"m 215 -207 q 43 -159 114 -207 q -51 -29 -28 -111 l 57 58 q 131 -36 81 0 q 244 -72 181 -72 q 332 -55 290 -72 q 405 -6 374 -37 q 455 67 436 25 q 474 160 474 110 q 436 267 474 226 q 336 307 399 307 q 240 284 288 307 q 158 217 193 261 l 24 217 q 51 283 32 236 q 93 390 69 329 q 142 517 117 450 q 191 641 168 583 q 231 740 214 699 q 253 793 247 782 l 713 793 l 682 653 l 335 653 l 232 383 q 297 425 258 410 q 385 440 336 440 q 487 422 440 440 q 565 369 533 403 q 615 289 597 336 q 633 186 633 242 q 599 28 633 100 q 508 -96 565 -43 q 374 -178 450 -149 q 215 -207 299 -207 z "},"6":{"ha":821,"x_min":63,"x_max":810,"o":"m 329 -14 q 132 71 201 -14 q 63 306 63 156 q 99 569 63 444 q 201 789 135 694 q 358 938 267 883 q 560 993 449 993 q 713 950 649 993 q 810 828 778 907 l 700 733 q 637 826 682 792 q 528 860 592 860 q 356 772 432 860 q 243 524 279 683 q 349 622 285 586 q 486 658 414 658 q 594 638 546 658 q 676 581 642 617 q 730 495 711 544 q 749 388 749 446 q 714 233 749 306 q 621 106 679 161 q 487 18 563 50 q 329 -14 411 -14 m 358 117 q 446 137 403 117 q 524 192 489 157 q 579 271 558 226 q 600 365 600 315 q 558 487 600 438 q 446 536 515 536 q 357 516 400 536 q 281 462 314 496 q 226 383 247 428 q 206 290 206 339 q 217 223 206 254 q 248 168 228 192 q 297 131 268 144 q 358 117 325 117 z "},"7":{"ha":736,"x_min":-43,"x_max":807,"o":"m 536 669 l 89 669 l 118 810 l 807 810 l 129 -176 l -43 -176 l 536 669 z "},"8":{"ha":804,"x_min":31,"x_max":779,"o":"m 308 -11 q 196 8 247 -11 q 108 60 144 26 q 51 140 71 93 q 31 240 31 186 q 51 342 31 296 q 103 424 71 388 q 172 486 135 460 q 246 528 210 513 q 181 591 207 549 q 156 686 156 633 q 191 813 156 757 q 281 907 226 868 q 399 966 335 946 q 522 986 464 986 q 615 972 569 986 q 698 929 661 957 q 757 860 735 901 q 779 764 779 818 q 764 686 779 722 q 724 619 749 650 q 667 565 699 589 q 601 528 635 542 q 682 451 649 503 q 715 331 715 400 q 681 192 715 256 q 589 84 646 129 q 459 14 532 39 q 308 -11 386 -11 m 340 126 q 418 141 379 126 q 489 182 457 156 q 541 244 521 208 q 561 325 561 281 q 549 384 561 358 q 515 427 536 410 q 467 454 494 444 q 410 464 439 464 q 331 449 371 464 q 260 408 292 435 q 210 345 229 382 q 190 265 190 308 q 203 208 190 233 q 236 164 215 182 q 284 136 257 146 q 340 126 311 126 m 436 581 q 498 591 465 581 q 558 622 531 601 q 603 672 585 642 q 621 740 621 701 q 583 821 621 792 q 493 850 546 850 q 426 839 460 850 q 367 807 393 828 q 326 757 342 786 q 310 692 310 728 q 321 644 310 664 q 349 609 332 624 q 390 588 367 594 q 436 581 413 581 z "},"9":{"ha":797,"x_min":-12,"x_max":735,"o":"m 239 -214 q 84 -171 149 -214 q -12 -49 19 -128 l 97 46 q 160 -47 114 -12 q 269 -81 206 -81 q 442 8 365 -81 q 554 256 518 96 q 449 157 513 193 q 311 121 385 121 q 203 142 251 121 q 120 199 154 163 q 67 284 86 235 q 49 392 49 333 q 83 545 49 472 q 176 674 118 618 q 310 761 235 729 q 468 793 386 793 q 665 708 594 793 q 735 474 735 624 q 699 209 735 333 q 597 -10 663 85 q 440 -159 531 -104 q 239 -214 349 -214 m 350 243 q 440 263 396 243 q 517 317 483 283 q 571 396 550 351 q 592 489 592 440 q 581 556 592 525 q 549 611 569 588 q 501 649 529 635 q 439 663 472 663 q 351 642 394 663 q 273 588 307 622 q 217 508 239 553 q 196 414 196 464 q 207 347 196 378 q 239 292 218 315 q 288 256 260 269 q 350 243 317 243 z "},"A":{"ha":901,"x_min":-69,"x_max":803,"o":"m 507 986 l 644 986 l 803 0 l 639 0 l 600 268 l 246 268 l 94 0 l -69 0 l 507 986 m 594 383 l 539 807 l 297 383 l 594 383 z "},"Æ":{"ha":1286,"x_min":-111,"x_max":1347,"o":"m 688 986 l 1347 986 l 1317 849 l 856 849 l 797 571 l 1188 571 l 1158 433 l 768 433 l 704 138 l 1178 138 l 1149 0 l 519 0 l 578 268 l 265 268 l 57 0 l -111 0 l 688 986 m 594 407 l 681 807 l 363 407 l 594 407 z "},"Ǽ":{"ha":1286,"x_min":-111,"x_max":1347,"o":"m 840 1094 l 743 1119 l 849 1272 l 994 1272 l 840 1094 m 688 986 l 1347 986 l 1317 849 l 856 849 l 797 571 l 1188 571 l 1158 433 l 768 433 l 704 138 l 1178 138 l 1149 0 l 519 0 l 578 268 l 265 268 l 57 0 l -111 0 l 688 986 m 594 407 l 681 807 l 363 407 l 594 407 z "},"´":{"ha":324,"x_min":36,"x_max":288,"o":"m 133 836 l 36 861 l 142 1014 l 288 1014 l 133 836 z "},"Á":{"ha":901,"x_min":-69,"x_max":803,"o":"m 507 986 l 644 986 l 803 0 l 639 0 l 600 268 l 246 268 l 94 0 l -69 0 l 507 986 m 594 383 l 539 807 l 297 383 l 594 383 m 608 1094 l 511 1119 l 617 1272 l 763 1272 l 608 1094 z "},"Ă":{"ha":901,"x_min":-69,"x_max":803,"o":"m 507 986 l 644 986 l 803 0 l 639 0 l 600 268 l 246 268 l 94 0 l -69 0 l 507 986 m 594 383 l 539 807 l 297 383 l 594 383 m 604 1174 q 661 1201 633 1174 q 701 1272 689 1229 l 786 1272 q 759 1205 778 1236 q 714 1151 740 1174 q 656 1115 688 1128 q 589 1103 624 1103 q 494 1138 529 1103 q 458 1232 458 1174 q 460 1253 458 1243 q 464 1272 461 1263 l 549 1272 q 547 1260 547 1265 q 546 1247 546 1254 q 562 1195 546 1217 q 604 1174 578 1174 z "},"˘":{"ha":417,"x_min":76,"x_max":404,"o":"m 222 915 q 279 943 251 915 q 319 1014 307 971 l 404 1014 q 377 947 396 978 q 332 892 358 915 q 274 857 306 869 q 207 844 242 844 q 112 880 147 844 q 76 974 76 915 q 78 994 76 985 q 82 1014 79 1004 l 167 1014 q 165 1001 165 1007 q 164 989 164 996 q 180 937 164 958 q 222 915 196 915 z "},"Â":{"ha":901,"x_min":-69,"x_max":803,"o":"m 507 986 l 644 986 l 803 0 l 639 0 l 600 268 l 246 268 l 94 0 l -69 0 l 507 986 m 594 383 l 539 807 l 297 383 l 594 383 m 417 1140 l 582 1272 l 693 1272 l 801 1140 l 713 1101 l 619 1189 l 489 1101 l 417 1140 z "},"ˆ":{"ha":472,"x_min":72,"x_max":457,"o":"m 72 882 l 238 1014 l 349 1014 l 457 882 l 368 843 l 275 931 l 144 843 l 72 882 z "},"Ä":{"ha":901,"x_min":-69,"x_max":803,"o":"m 507 986 l 644 986 l 803 0 l 639 0 l 600 268 l 246 268 l 94 0 l -69 0 l 507 986 m 594 383 l 539 807 l 297 383 l 594 383 m 404 1114 l 438 1267 l 564 1267 l 532 1114 l 404 1114 m 643 1114 l 675 1267 l 801 1267 l 769 1114 l 643 1114 z "},"¨":{"ha":556,"x_min":101,"x_max":499,"o":"m 101 854 l 135 1007 l 261 1007 l 229 854 l 101 854 m 340 854 l 372 1007 l 499 1007 l 467 854 l 340 854 z "},"À":{"ha":901,"x_min":-69,"x_max":803,"o":"m 507 986 l 644 986 l 803 0 l 639 0 l 600 268 l 246 268 l 94 0 l -69 0 l 507 986 m 594 383 l 539 807 l 297 383 l 594 383 m 461 1274 l 606 1274 l 647 1121 l 542 1094 l 461 1274 z "},"`":{"ha":325,"x_min":92,"x_max":278,"o":"m 92 1014 l 236 1014 l 278 861 l 172 835 l 92 1014 z "},"Ā":{"ha":901,"x_min":-69,"x_max":822,"o":"m 507 986 l 644 986 l 803 0 l 639 0 l 600 268 l 246 268 l 94 0 l -69 0 l 507 986 m 594 383 l 539 807 l 297 383 l 594 383 m 410 1150 l 429 1247 l 822 1247 l 801 1150 l 410 1150 z "},"¯":{"ha":546,"x_min":106,"x_max":518,"o":"m 106 892 l 125 989 l 518 989 l 497 892 l 106 892 z "},"Ą":{"ha":901,"x_min":-69,"x_max":803,"o":"m 688 -261 q 601 -225 629 -251 q 574 -164 574 -199 q 607 -83 574 -124 q 711 0 640 -42 l 639 0 l 600 268 l 246 268 l 94 0 l -69 0 l 507 986 l 644 986 l 803 0 q 701 -72 732 -40 q 671 -132 671 -103 q 738 -181 671 -176 l 688 -261 m 594 383 l 539 807 l 297 383 l 594 383 z "},"˛":{"ha":364,"x_min":49,"x_max":278,"o":"m 163 -261 q 76 -225 104 -251 q 49 -164 49 -199 q 94 -69 49 -117 q 238 28 140 -21 l 278 0 q 176 -72 207 -40 q 146 -132 146 -103 q 213 -181 146 -176 l 163 -261 l 163 -261 z "},"Å":{"ha":901,"x_min":-69,"x_max":803,"o":"m 507 986 l 644 986 l 803 0 l 639 0 l 600 268 l 246 268 l 94 0 l -69 0 l 507 986 m 594 383 l 539 807 l 297 383 l 594 383 m 489 1151 q 531 1240 489 1207 q 633 1272 572 1272 q 708 1251 682 1272 q 733 1190 733 1229 q 693 1103 733 1136 q 590 1069 653 1069 q 516 1092 543 1069 q 489 1151 489 1114 m 622 1222 q 578 1206 597 1222 q 558 1163 558 1189 q 570 1132 558 1144 q 601 1119 582 1119 q 646 1137 625 1119 q 667 1181 667 1154 q 654 1211 667 1200 q 622 1222 642 1222 z "},"˚":{"ha":340,"x_min":79,"x_max":324,"o":"m 79 893 q 121 981 79 949 q 224 1014 163 1014 q 298 992 272 1014 q 324 932 324 971 q 283 844 324 878 q 181 811 243 811 q 106 833 133 811 q 79 893 79 856 m 213 964 q 168 947 188 964 q 149 904 149 931 q 160 874 149 886 q 192 861 172 861 q 236 878 215 861 q 257 922 257 896 q 244 953 257 942 q 213 964 232 964 z "},"Ǻ":{"ha":901,"x_min":-69,"x_max":814,"o":"m 672 1124 q 707 1057 707 1101 q 692 999 707 1025 q 649 957 676 972 l 803 0 l 639 0 l 600 268 l 246 268 l 94 0 l -69 0 l 490 957 q 463 1018 463 981 q 490 1092 463 1063 q 563 1133 518 1122 l 668 1278 l 814 1278 l 672 1124 m 594 383 l 539 807 l 297 383 l 594 383 m 596 1089 q 551 1072 571 1089 q 532 1029 532 1056 q 544 999 532 1011 q 575 986 556 986 q 619 1003 599 986 q 640 1047 640 1021 q 628 1078 640 1067 q 596 1089 615 1089 z "},"Ã":{"ha":901,"x_min":-69,"x_max":871,"o":"m 507 986 l 644 986 l 803 0 l 639 0 l 600 268 l 246 268 l 94 0 l -69 0 l 507 986 m 594 383 l 539 807 l 297 383 l 594 383 m 683 1113 q 633 1122 654 1113 q 596 1142 613 1131 q 563 1163 579 1154 q 524 1172 546 1172 q 487 1163 501 1172 q 463 1141 472 1153 q 451 1118 454 1129 q 447 1106 447 1107 l 360 1106 q 375 1143 363 1117 q 410 1197 388 1169 q 465 1244 433 1224 q 539 1265 497 1265 q 588 1256 568 1265 q 624 1235 607 1246 q 657 1214 640 1224 q 697 1204 674 1204 q 738 1214 722 1204 q 765 1236 754 1224 q 780 1259 775 1249 q 785 1272 785 1269 l 871 1272 q 856 1238 868 1264 q 819 1183 843 1211 q 762 1134 796 1156 q 683 1113 728 1113 z "},"˜":{"ha":565,"x_min":49,"x_max":560,"o":"m 372 854 q 322 863 343 854 q 285 884 301 872 q 251 905 268 896 q 213 914 235 914 q 176 904 190 914 q 152 883 161 894 q 140 860 143 871 q 136 847 136 849 l 49 847 q 64 885 51 858 q 99 938 76 911 q 154 986 122 965 q 228 1007 186 1007 q 276 997 257 1007 q 313 976 296 988 q 346 956 329 965 q 386 946 363 946 q 427 956 411 946 q 453 978 443 965 q 469 1001 464 990 q 474 1014 474 1011 l 560 1014 q 544 979 557 1006 q 508 925 532 953 q 451 876 485 897 q 372 854 417 854 z "},"B":{"ha":904,"x_min":21,"x_max":885,"o":"m 231 986 l 718 986 q 791 969 760 986 q 843 924 822 951 q 874 860 864 896 q 885 785 885 824 q 872 699 885 742 q 833 620 858 657 q 773 553 808 583 q 694 506 738 524 q 790 433 757 485 q 822 308 822 381 q 792 179 822 236 q 714 83 763 122 q 602 22 665 43 q 471 0 539 0 l 21 0 l 231 986 m 499 135 q 561 149 531 135 q 615 189 592 164 q 653 247 639 214 q 668 315 668 279 q 642 400 668 364 q 572 436 617 436 l 269 436 l 207 135 l 499 135 m 561 561 q 621 575 592 561 q 672 613 650 589 q 708 669 694 636 q 721 739 721 701 q 697 819 721 788 q 632 851 672 851 l 358 851 l 296 561 l 561 561 z "},"C":{"ha":910,"x_min":57,"x_max":940,"o":"m 408 -8 q 259 27 325 -8 q 149 121 193 63 q 81 254 104 179 q 57 410 57 329 q 100 615 57 511 q 219 802 143 718 q 401 939 296 886 q 629 992 506 992 q 836 932 757 992 q 940 776 915 872 l 801 694 q 771 769 792 739 q 722 818 750 800 q 660 844 693 836 q 593 851 626 851 q 439 811 508 851 q 320 708 369 771 q 244 568 271 644 q 217 419 217 492 q 232 309 217 361 q 276 217 247 257 q 348 155 306 178 q 444 132 390 132 q 516 141 478 132 q 591 170 554 150 q 662 221 628 190 q 724 294 696 251 l 838 221 q 754 123 804 165 q 646 51 704 81 q 526 7 588 22 q 408 -8 464 -8 z "},"\r":{"ha":0,"x_min":0,"x_max":0,"o":""},"Ć":{"ha":910,"x_min":57,"x_max":940,"o":"m 672 1094 l 575 1119 l 681 1272 l 826 1272 l 672 1094 m 408 -8 q 259 27 325 -8 q 149 121 193 63 q 81 254 104 179 q 57 410 57 329 q 100 615 57 511 q 219 802 143 718 q 401 939 296 886 q 629 992 506 992 q 836 932 757 992 q 940 776 915 872 l 801 694 q 771 769 792 739 q 722 818 750 800 q 660 844 693 836 q 593 851 626 851 q 439 811 508 851 q 320 708 369 771 q 244 568 271 644 q 217 419 217 492 q 232 309 217 361 q 276 217 247 257 q 348 155 306 178 q 444 132 390 132 q 516 141 478 132 q 591 170 554 150 q 662 221 628 190 q 724 294 696 251 l 838 221 q 754 123 804 165 q 646 51 704 81 q 526 7 588 22 q 408 -8 464 -8 z "},"Č":{"ha":910,"x_min":57,"x_max":940,"o":"m 493 1233 l 582 1272 l 675 1185 l 806 1272 l 878 1233 l 713 1101 l 601 1101 l 493 1233 m 408 -8 q 259 27 325 -8 q 149 121 193 63 q 81 254 104 179 q 57 410 57 329 q 100 615 57 511 q 219 802 143 718 q 401 939 296 886 q 629 992 506 992 q 836 932 757 992 q 940 776 915 872 l 801 694 q 771 769 792 739 q 722 818 750 800 q 660 844 693 836 q 593 851 626 851 q 439 811 508 851 q 320 708 369 771 q 244 568 271 644 q 217 419 217 492 q 232 309 217 361 q 276 217 247 257 q 348 155 306 178 q 444 132 390 132 q 516 141 478 132 q 591 170 554 150 q 662 221 628 190 q 724 294 696 251 l 838 221 q 754 123 804 165 q 646 51 704 81 q 526 7 588 22 q 408 -8 464 -8 z "},"ˇ":{"ha":472,"x_min":88,"x_max":472,"o":"m 88 975 l 176 1014 l 269 926 l 400 1014 l 472 975 l 307 843 l 196 843 l 88 975 z "},"Ç":{"ha":906,"x_min":53,"x_max":936,"o":"m 253 -175 q 297 -194 267 -185 q 363 -203 328 -203 q 426 -190 403 -203 q 450 -146 450 -176 q 433 -117 450 -125 q 390 -108 417 -108 q 331 -114 363 -108 q 281 -125 299 -119 l 365 -6 q 232 40 290 3 q 134 135 174 78 q 74 263 94 192 q 53 410 53 335 q 96 615 53 511 q 215 802 139 718 q 397 939 292 886 q 625 992 501 992 q 832 932 753 992 q 936 776 911 872 l 797 694 q 767 769 788 739 q 717 818 746 800 q 656 844 689 836 q 589 851 622 851 q 435 811 504 851 q 316 708 365 771 q 240 568 267 644 q 213 419 213 492 q 228 309 213 361 q 272 217 243 257 q 344 155 301 178 q 440 132 386 132 q 512 141 474 132 q 587 170 550 150 q 658 221 624 190 q 719 294 692 251 l 833 221 q 756 128 801 169 q 657 59 710 88 q 547 14 604 31 q 435 -7 489 -3 l 389 -62 q 412 -58 400 -60 q 433 -57 424 -57 q 499 -75 474 -57 q 525 -131 525 -93 q 478 -225 525 -187 q 339 -262 432 -262 q 264 -254 297 -262 q 207 -235 231 -246 l 253 -175 z "},"¸":{"ha":413,"x_min":-22,"x_max":296,"o":"m 24 -175 q 68 -194 38 -185 q 133 -203 99 -203 q 197 -190 174 -203 q 221 -146 221 -176 q 204 -117 221 -125 q 161 -108 188 -108 q 101 -114 133 -108 q 51 -125 69 -119 l 164 33 l 222 13 l 160 -62 q 183 -58 171 -60 q 204 -57 194 -57 q 270 -75 244 -57 q 296 -131 296 -93 q 249 -225 296 -187 q 110 -262 203 -262 q 35 -254 68 -262 q -22 -235 1 -246 l 24 -175 z "},"Ĉ":{"ha":910,"x_min":57,"x_max":940,"o":"m 479 1140 l 644 1272 l 756 1272 l 864 1140 l 775 1101 l 682 1189 l 551 1101 l 479 1140 m 408 -8 q 259 27 325 -8 q 149 121 193 63 q 81 254 104 179 q 57 410 57 329 q 100 615 57 511 q 219 802 143 718 q 401 939 296 886 q 629 992 506 992 q 836 932 757 992 q 940 776 915 872 l 801 694 q 771 769 792 739 q 722 818 750 800 q 660 844 693 836 q 593 851 626 851 q 439 811 508 851 q 320 708 369 771 q 244 568 271 644 q 217 419 217 492 q 232 309 217 361 q 276 217 247 257 q 348 155 306 178 q 444 132 390 132 q 516 141 478 132 q 591 170 554 150 q 662 221 628 190 q 724 294 696 251 l 838 221 q 754 123 804 165 q 646 51 704 81 q 526 7 588 22 q 408 -8 464 -8 z "},"Ċ":{"ha":910,"x_min":57,"x_max":940,"o":"m 408 -8 q 259 27 325 -8 q 149 121 193 63 q 81 254 104 179 q 57 410 57 329 q 100 615 57 511 q 219 802 143 718 q 401 939 296 886 q 629 992 506 992 q 836 932 757 992 q 940 776 915 872 l 801 694 q 771 769 792 739 q 722 818 750 800 q 660 844 693 836 q 593 851 626 851 q 439 811 508 851 q 320 708 369 771 q 244 568 271 644 q 217 419 217 492 q 232 309 217 361 q 276 217 247 257 q 348 155 306 178 q 444 132 390 132 q 516 141 478 132 q 591 170 554 150 q 662 221 628 190 q 724 294 696 251 l 838 221 q 754 123 804 165 q 646 51 704 81 q 526 7 588 22 q 408 -8 464 -8 m 596 1113 l 631 1272 l 767 1272 l 733 1113 l 596 1113 z "},"˙":{"ha":269,"x_min":71,"x_max":242,"o":"m 71 854 l 106 1014 l 242 1014 l 208 854 l 71 854 z "},"D":{"ha":961,"x_min":21,"x_max":933,"o":"m 231 986 l 565 986 q 729 957 660 986 q 844 876 799 928 q 911 756 889 825 q 933 606 933 686 q 890 364 933 475 q 769 172 846 253 q 585 46 692 92 q 356 0 479 0 l 21 0 l 231 986 m 385 138 q 545 174 474 138 q 667 272 617 210 q 745 414 718 333 q 772 582 772 494 q 757 689 772 640 q 713 773 742 738 q 639 828 683 808 q 536 849 594 849 l 358 849 l 207 138 l 385 138 z "},"Ď":{"ha":961,"x_min":21,"x_max":933,"o":"m 413 1233 l 501 1272 l 594 1185 l 725 1272 l 797 1233 l 632 1101 l 521 1101 l 413 1233 m 231 986 l 565 986 q 729 957 660 986 q 844 876 799 928 q 911 756 889 825 q 933 606 933 686 q 890 364 933 475 q 769 172 846 253 q 585 46 692 92 q 356 0 479 0 l 21 0 l 231 986 m 385 138 q 545 174 474 138 q 667 272 617 210 q 745 414 718 333 q 772 582 772 494 q 757 689 772 640 q 713 773 742 738 q 639 828 683 808 q 536 849 594 849 l 358 849 l 207 138 l 385 138 z "},"Đ":{"ha":969,"x_min":29,"x_max":942,"o":"m 79 554 l 147 554 l 239 986 l 574 986 q 738 957 668 986 q 852 876 807 928 q 919 756 897 825 q 942 606 942 686 q 898 364 942 475 q 777 172 854 253 q 594 46 700 92 q 364 0 488 0 l 29 0 l 122 438 l 54 438 l 79 554 m 393 138 q 553 174 482 138 q 676 272 625 210 q 753 414 726 333 q 781 582 781 494 q 765 689 781 640 q 721 773 750 738 q 647 828 692 808 q 544 849 603 849 l 367 849 l 304 554 l 499 554 l 475 438 l 279 438 l 215 138 l 393 138 z "},"E":{"ha":804,"x_min":21,"x_max":863,"o":"m 231 986 l 863 986 l 833 849 l 358 849 l 299 568 l 710 568 l 683 439 l 271 439 l 207 138 l 694 138 l 665 0 l 21 0 l 231 986 z "},"É":{"ha":804,"x_min":21,"x_max":863,"o":"m 600 1094 l 503 1119 l 608 1272 l 754 1272 l 600 1094 m 231 986 l 863 986 l 833 849 l 358 849 l 299 568 l 710 568 l 683 439 l 271 439 l 207 138 l 694 138 l 665 0 l 21 0 l 231 986 z "},"Ĕ":{"ha":804,"x_min":21,"x_max":863,"o":"m 231 986 l 863 986 l 833 849 l 358 849 l 299 568 l 710 568 l 683 439 l 271 439 l 207 138 l 694 138 l 665 0 l 21 0 l 231 986 m 574 1174 q 631 1201 603 1174 q 671 1272 658 1229 l 756 1272 q 728 1205 747 1236 q 683 1151 710 1174 q 625 1115 657 1128 q 558 1103 593 1103 q 463 1138 499 1103 q 428 1232 428 1174 q 429 1253 428 1243 q 433 1272 431 1263 l 518 1272 q 516 1260 517 1265 q 515 1247 515 1254 q 531 1195 515 1217 q 574 1174 547 1174 z "},"Ě":{"ha":804,"x_min":21,"x_max":863,"o":"m 400 1233 l 489 1272 l 582 1185 l 713 1272 l 785 1233 l 619 1101 l 508 1101 l 400 1233 m 231 986 l 863 986 l 833 849 l 358 849 l 299 568 l 710 568 l 683 439 l 271 439 l 207 138 l 694 138 l 665 0 l 21 0 l 231 986 z "},"Ê":{"ha":804,"x_min":21,"x_max":863,"o":"m 396 1140 l 561 1272 l 672 1272 l 781 1140 l 692 1101 l 599 1189 l 468 1101 l 396 1140 m 231 986 l 863 986 l 833 849 l 358 849 l 299 568 l 710 568 l 683 439 l 271 439 l 207 138 l 694 138 l 665 0 l 21 0 l 231 986 z "},"Ë":{"ha":804,"x_min":21,"x_max":863,"o":"m 392 1114 l 425 1267 l 551 1267 l 519 1114 l 392 1114 m 631 1114 l 663 1267 l 789 1267 l 757 1114 l 631 1114 m 231 986 l 863 986 l 833 849 l 358 849 l 299 568 l 710 568 l 683 439 l 271 439 l 207 138 l 694 138 l 665 0 l 21 0 l 231 986 z "},"Ė":{"ha":804,"x_min":21,"x_max":863,"o":"m 231 986 l 863 986 l 833 849 l 358 849 l 299 568 l 710 568 l 683 439 l 271 439 l 207 138 l 694 138 l 665 0 l 21 0 l 231 986 m 506 1113 l 540 1272 l 676 1272 l 643 1113 l 506 1113 z "},"È":{"ha":804,"x_min":21,"x_max":863,"o":"m 231 986 l 863 986 l 833 849 l 358 849 l 299 568 l 710 568 l 683 439 l 271 439 l 207 138 l 694 138 l 665 0 l 21 0 l 231 986 m 469 1274 l 614 1274 l 656 1121 l 550 1094 l 469 1274 z "},"Ē":{"ha":804,"x_min":21,"x_max":863,"o":"m 231 986 l 863 986 l 833 849 l 358 849 l 299 568 l 710 568 l 683 439 l 271 439 l 207 138 l 694 138 l 665 0 l 21 0 l 231 986 m 385 1150 l 404 1247 l 797 1247 l 776 1150 l 385 1150 z "},"Ŋ":{"ha":1008,"x_min":21,"x_max":1018,"o":"m 522 -265 q 435 -250 475 -265 q 368 -203 396 -235 l 457 -100 q 490 -124 469 -117 q 532 -132 510 -132 q 606 -102 571 -132 q 650 -26 640 -72 l 663 29 l 325 692 l 178 0 l 21 0 l 231 986 l 351 986 l 713 283 l 863 985 l 1018 985 l 804 -21 q 765 -120 793 -75 q 697 -198 736 -165 q 613 -248 658 -231 q 522 -265 568 -265 z "},"Ę":{"ha":804,"x_min":21,"x_max":863,"o":"m 231 986 l 863 986 l 833 849 l 358 849 l 299 568 l 710 568 l 683 439 l 271 439 l 207 138 l 694 138 l 665 0 l 397 0 q 296 -72 326 -40 q 265 -132 265 -103 q 332 -181 265 -176 l 282 -261 q 196 -225 224 -251 q 168 -164 168 -199 q 201 -83 168 -124 q 306 0 235 -42 l 21 0 l 231 986 z "},"Ð":{"ha":969,"x_min":29,"x_max":942,"o":"m 79 554 l 147 554 l 239 986 l 574 986 q 738 957 668 986 q 852 876 807 928 q 919 756 897 825 q 942 606 942 686 q 898 364 942 475 q 777 172 854 253 q 594 46 700 92 q 364 0 488 0 l 29 0 l 122 438 l 54 438 l 79 554 m 393 138 q 553 174 482 138 q 676 272 625 210 q 753 414 726 333 q 781 582 781 494 q 765 689 781 640 q 721 773 750 738 q 647 828 692 808 q 544 849 603 849 l 367 849 l 304 554 l 499 554 l 475 438 l 279 438 l 215 138 l 393 138 z "},"Ẽ":{"ha":804,"x_min":21,"x_max":863,"o":"m 231 986 l 863 986 l 833 849 l 358 849 l 299 568 l 710 568 l 683 439 l 271 439 l 207 138 l 694 138 l 665 0 l 21 0 l 231 986 m 650 1113 q 600 1122 621 1113 q 563 1142 579 1131 q 529 1163 546 1154 q 490 1172 513 1172 q 453 1163 468 1172 q 430 1141 439 1153 q 417 1118 421 1129 q 414 1106 414 1107 l 326 1106 q 342 1143 329 1117 q 377 1197 354 1169 q 432 1244 400 1224 q 506 1265 464 1265 q 554 1256 535 1265 q 590 1235 574 1246 q 624 1214 607 1224 q 664 1204 640 1204 q 705 1214 689 1204 q 731 1236 721 1224 q 747 1259 742 1249 q 751 1272 751 1269 l 838 1272 q 822 1238 835 1264 q 786 1183 810 1211 q 728 1134 763 1156 q 650 1113 694 1113 z "},"€":{"ha":1054,"x_min":32,"x_max":1054,"o":"m 207 599 q 289 748 238 676 q 410 874 340 819 q 563 960 479 928 q 742 992 647 992 q 950 932 871 992 q 1054 776 1029 872 l 915 694 q 884 769 906 739 q 834 818 863 800 q 773 844 806 836 q 707 851 740 851 q 597 831 649 851 q 501 776 544 811 q 424 696 457 742 q 368 599 390 650 l 744 599 l 690 513 l 340 513 q 329 435 329 471 l 665 435 l 611 349 l 335 349 q 362 263 343 303 q 409 194 381 224 q 474 149 438 165 q 557 132 511 132 q 628 141 590 132 q 704 170 667 150 q 776 221 742 190 q 838 294 810 251 l 951 221 q 868 123 918 165 q 760 51 818 81 q 640 7 701 22 q 522 -8 578 -8 q 385 21 446 -8 q 281 99 325 50 q 209 213 236 147 q 174 349 182 278 l 32 349 l 88 435 l 171 435 q 175 474 172 454 q 182 513 178 493 l 90 513 l 144 599 l 207 599 z "},"F":{"ha":779,"x_min":21,"x_max":856,"o":"m 231 986 l 856 986 l 826 849 l 358 849 l 296 554 l 688 554 l 660 425 l 268 425 l 178 0 l 21 0 l 231 986 z "},"G":{"ha":960,"x_min":57,"x_max":943,"o":"m 701 121 q 406 -7 557 -7 q 262 26 326 -7 q 151 114 197 58 q 81 244 106 169 q 57 403 57 319 q 104 625 57 518 q 231 814 151 732 q 412 944 310 896 q 624 993 514 993 q 837 934 758 993 q 943 778 915 875 l 807 692 q 727 813 785 772 q 589 853 669 853 q 446 815 514 853 q 327 716 378 778 q 247 576 276 654 q 217 415 217 497 q 233 306 217 357 q 278 216 249 254 q 351 156 308 178 q 447 133 394 133 q 736 279 592 133 l 758 383 l 564 383 l 589 499 l 913 499 l 807 0 l 676 0 l 701 121 z "},"Ğ":{"ha":960,"x_min":57,"x_max":943,"o":"m 701 121 q 406 -7 557 -7 q 262 26 326 -7 q 151 114 197 58 q 81 244 106 169 q 57 403 57 319 q 104 625 57 518 q 231 814 151 732 q 412 944 310 896 q 624 993 514 993 q 837 934 758 993 q 943 778 915 875 l 807 692 q 727 813 785 772 q 589 853 669 853 q 446 815 514 853 q 327 716 378 778 q 247 576 276 654 q 217 415 217 497 q 233 306 217 357 q 278 216 249 254 q 351 156 308 178 q 447 133 394 133 q 736 279 592 133 l 758 383 l 564 383 l 589 499 l 913 499 l 807 0 l 676 0 l 701 121 m 653 1174 q 710 1201 682 1174 q 750 1272 738 1229 l 835 1272 q 808 1205 826 1236 q 763 1151 789 1174 q 704 1115 736 1128 q 638 1103 672 1103 q 542 1138 578 1103 q 507 1232 507 1174 q 508 1253 507 1243 q 513 1272 510 1263 l 597 1272 q 595 1260 596 1265 q 594 1247 594 1254 q 610 1195 594 1217 q 653 1174 626 1174 z "},"Ĝ":{"ha":960,"x_min":57,"x_max":943,"o":"m 463 1140 l 628 1272 l 739 1272 l 847 1140 l 758 1101 l 665 1189 l 535 1101 l 463 1140 m 701 121 q 406 -7 557 -7 q 262 26 326 -7 q 151 114 197 58 q 81 244 106 169 q 57 403 57 319 q 104 625 57 518 q 231 814 151 732 q 412 944 310 896 q 624 993 514 993 q 837 934 758 993 q 943 778 915 875 l 807 692 q 727 813 785 772 q 589 853 669 853 q 446 815 514 853 q 327 716 378 778 q 247 576 276 654 q 217 415 217 497 q 233 306 217 357 q 278 216 249 254 q 351 156 308 178 q 447 133 394 133 q 736 279 592 133 l 758 383 l 564 383 l 589 499 l 913 499 l 807 0 l 676 0 l 701 121 z "},"Ģ":{"ha":960,"x_min":57,"x_max":943,"o":"m 299 -296 l 353 -189 l 308 -189 l 335 -67 l 465 -67 l 439 -189 l 369 -296 l 299 -296 m 701 121 q 406 -7 557 -7 q 262 26 326 -7 q 151 114 197 58 q 81 244 106 169 q 57 403 57 319 q 104 625 57 518 q 231 814 151 732 q 412 944 310 896 q 624 993 514 993 q 837 934 758 993 q 943 778 915 875 l 807 692 q 727 813 785 772 q 589 853 669 853 q 446 815 514 853 q 327 716 378 778 q 247 576 276 654 q 217 415 217 497 q 233 306 217 357 q 278 216 249 254 q 351 156 308 178 q 447 133 394 133 q 736 279 592 133 l 758 383 l 564 383 l 589 499 l 913 499 l 807 0 l 676 0 l 701 121 z "},"":{"ha":249,"x_min":29,"x_max":196,"o":"m 29 -296 l 83 -189 l 39 -189 l 65 -67 l 196 -67 l 169 -189 l 100 -296 l 29 -296 z "},"Ġ":{"ha":960,"x_min":57,"x_max":943,"o":"m 701 121 q 406 -7 557 -7 q 262 26 326 -7 q 151 114 197 58 q 81 244 106 169 q 57 403 57 319 q 104 625 57 518 q 231 814 151 732 q 412 944 310 896 q 624 993 514 993 q 837 934 758 993 q 943 778 915 875 l 807 692 q 727 813 785 772 q 589 853 669 853 q 446 815 514 853 q 327 716 378 778 q 247 576 276 654 q 217 415 217 497 q 233 306 217 357 q 278 216 249 254 q 351 156 308 178 q 447 133 394 133 q 736 279 592 133 l 758 383 l 564 383 l 589 499 l 913 499 l 807 0 l 676 0 l 701 121 m 586 1113 l 621 1272 l 757 1272 l 724 1113 l 586 1113 z "},"H":{"ha":993,"x_min":21,"x_max":1004,"o":"m 231 986 l 388 986 l 300 574 l 761 574 l 849 986 l 1004 986 l 794 0 l 639 0 l 732 435 l 271 435 l 178 0 l 21 0 l 231 986 z "},"Ħ":{"ha":1006,"x_min":28,"x_max":1046,"o":"m 140 836 l 206 836 l 238 986 l 394 986 l 363 836 l 824 836 l 856 986 l 1013 986 l 981 836 l 1046 836 l 1029 758 l 964 758 l 803 0 l 646 0 l 739 435 l 278 435 l 185 0 l 28 0 l 189 758 l 124 758 l 140 836 m 768 574 l 807 758 l 346 758 l 307 574 l 768 574 z "},"Ĥ":{"ha":993,"x_min":21,"x_max":1004,"o":"m 454 1140 l 619 1272 l 731 1272 l 839 1140 l 750 1101 l 657 1189 l 526 1101 l 454 1140 m 231 986 l 388 986 l 300 574 l 761 574 l 849 986 l 1004 986 l 794 0 l 639 0 l 732 435 l 271 435 l 178 0 l 21 0 l 231 986 z "},"I":{"ha":376,"x_min":21,"x_max":388,"o":"m 231 985 l 388 985 l 178 0 l 21 0 l 231 985 z "},"Ĳ":{"ha":1036,"x_min":21,"x_max":1058,"o":"m 231 985 l 388 985 l 178 0 l 21 0 l 231 985 m 510 -15 q 319 46 392 -15 l 383 174 q 442 141 401 157 q 539 125 482 125 q 639 148 599 125 q 708 216 679 171 q 756 328 736 261 q 796 485 776 396 l 903 985 l 1058 985 l 951 485 q 898 280 928 372 q 819 122 868 188 q 696 21 769 57 q 510 -15 622 -15 z "},"J":{"ha":660,"x_min":-57,"x_max":682,"o":"m 133 -15 q -57 46 15 -15 l 7 174 q 65 141 25 157 q 163 125 106 125 q 263 148 222 125 q 331 216 303 171 q 380 328 360 261 q 419 485 400 396 l 526 985 l 682 985 l 575 485 q 522 280 551 372 q 442 122 492 188 q 319 21 393 57 q 133 -15 246 -15 z "},"Í":{"ha":376,"x_min":21,"x_max":490,"o":"m 231 985 l 388 985 l 178 0 l 21 0 l 231 985 m 336 1094 l 239 1119 l 344 1272 l 490 1272 l 336 1094 z "},"Ĭ":{"ha":376,"x_min":21,"x_max":517,"o":"m 231 985 l 388 985 l 178 0 l 21 0 l 231 985 m 335 1174 q 392 1201 364 1174 q 432 1272 419 1229 l 517 1272 q 490 1205 508 1236 q 444 1151 471 1174 q 386 1115 418 1128 q 319 1103 354 1103 q 224 1138 260 1103 q 189 1232 189 1174 q 190 1253 189 1243 q 194 1272 192 1263 l 279 1272 q 277 1260 278 1265 q 276 1247 276 1254 q 292 1195 276 1217 q 335 1174 308 1174 z "},"Î":{"ha":376,"x_min":21,"x_max":532,"o":"m 231 985 l 388 985 l 178 0 l 21 0 l 231 985 m 147 1140 l 313 1272 l 424 1272 l 532 1140 l 443 1101 l 350 1189 l 219 1101 l 147 1140 z "},"Ï":{"ha":376,"x_min":21,"x_max":550,"o":"m 231 985 l 388 985 l 178 0 l 21 0 l 231 985 m 153 1114 l 186 1267 l 313 1267 l 281 1114 l 153 1114 m 392 1114 l 424 1267 l 550 1267 l 518 1114 l 392 1114 z "},"İ":{"ha":376,"x_min":21,"x_max":438,"o":"m 231 985 l 388 985 l 178 0 l 21 0 l 231 985 m 267 1113 l 301 1272 l 438 1272 l 404 1113 l 267 1113 z "},"Ì":{"ha":376,"x_min":21,"x_max":411,"o":"m 231 985 l 388 985 l 178 0 l 21 0 l 231 985 m 225 1274 l 369 1274 l 411 1121 l 306 1094 l 225 1274 z "},"Ī":{"ha":376,"x_min":21,"x_max":561,"o":"m 231 985 l 388 985 l 178 0 l 21 0 l 231 985 m 149 1150 l 168 1247 l 561 1247 l 540 1150 l 149 1150 z "},"Į":{"ha":376,"x_min":-53,"x_max":388,"o":"m 231 985 l 388 985 l 178 0 q 76 -72 107 -40 q 44 -132 44 -103 q 111 -181 44 -176 l 61 -261 q -25 -225 3 -251 q -53 -164 -53 -199 q 85 0 -53 -82 l 21 0 l 231 985 z "},"Ĩ":{"ha":376,"x_min":21,"x_max":611,"o":"m 231 985 l 388 985 l 178 0 l 21 0 l 231 985 m 424 1113 q 374 1122 394 1113 q 336 1142 353 1131 q 303 1163 319 1154 q 264 1172 286 1172 q 227 1163 242 1172 q 203 1141 213 1153 q 191 1118 194 1129 q 188 1106 188 1107 l 100 1106 q 115 1143 103 1117 q 151 1197 128 1169 q 206 1244 174 1224 q 279 1265 238 1265 q 328 1256 308 1265 q 364 1235 347 1246 q 397 1214 381 1224 q 438 1204 414 1204 q 478 1214 463 1204 q 505 1236 494 1224 q 520 1259 515 1249 q 525 1272 525 1269 l 611 1272 q 596 1238 608 1264 q 560 1183 583 1211 q 502 1134 536 1156 q 424 1113 468 1113 z "},"Ĵ":{"ha":660,"x_min":-57,"x_max":828,"o":"m 443 1140 l 608 1272 l 719 1272 l 828 1140 l 739 1101 l 646 1189 l 515 1101 l 443 1140 m 133 -15 q -57 46 15 -15 l 7 174 q 65 141 25 157 q 163 125 106 125 q 263 148 222 125 q 331 216 303 171 q 380 328 360 261 q 419 485 400 396 l 526 985 l 682 985 l 575 485 q 522 280 551 372 q 442 122 492 188 q 319 21 393 57 q 133 -15 246 -15 z "},"K":{"ha":881,"x_min":21,"x_max":989,"o":"m 231 985 l 388 985 l 279 478 l 815 986 l 989 986 l 529 550 l 800 0 l 625 0 l 411 454 l 240 297 l 178 0 l 21 0 l 231 985 z "},"Ķ":{"ha":881,"x_min":21,"x_max":989,"o":"m 278 -296 l 332 -189 l 288 -189 l 314 -67 l 444 -67 l 418 -189 l 349 -296 l 278 -296 m 231 985 l 388 985 l 279 478 l 815 986 l 989 986 l 529 550 l 800 0 l 625 0 l 411 454 l 240 297 l 178 0 l 21 0 l 231 985 z "},"L":{"ha":778,"x_min":21,"x_max":703,"o":"m 231 986 l 388 986 l 207 138 l 703 138 l 674 0 l 21 0 l 231 986 z "},"Ĺ":{"ha":778,"x_min":21,"x_max":703,"o":"m 354 1094 l 257 1119 l 363 1272 l 508 1272 l 354 1094 m 231 986 l 388 986 l 207 138 l 703 138 l 674 0 l 21 0 l 231 986 z "},"Ľ":{"ha":778,"x_min":21,"x_max":708,"o":"m 458 861 l 564 1014 l 708 1014 l 550 831 l 458 861 m 231 986 l 388 986 l 207 138 l 703 138 l 674 0 l 21 0 l 231 986 z "},"Ļ":{"ha":778,"x_min":21,"x_max":703,"o":"m 239 -296 l 293 -189 l 249 -189 l 275 -67 l 406 -67 l 379 -189 l 310 -296 l 239 -296 m 231 986 l 388 986 l 207 138 l 703 138 l 674 0 l 21 0 l 231 986 z "},"Ŀ":{"ha":778,"x_min":21,"x_max":703,"o":"m 231 986 l 388 986 l 207 138 l 703 138 l 674 0 l 21 0 l 231 986 m 460 474 l 500 664 l 626 664 l 586 474 l 460 474 z "},"·":{"ha":293,"x_min":65,"x_max":232,"o":"m 65 338 l 106 528 l 232 528 l 192 338 l 65 338 z "},"Ł":{"ha":788,"x_min":8,"x_max":713,"o":"m 8 414 l 138 496 l 242 986 l 397 986 l 317 610 l 504 728 l 526 644 l 293 496 l 217 138 l 713 138 l 683 0 l 32 0 l 113 382 l 31 329 l 8 414 z "},"M":{"ha":1158,"x_min":21,"x_max":1169,"o":"m 231 986 l 397 986 l 572 383 l 1004 986 l 1169 986 l 960 0 l 803 0 l 954 710 l 571 172 l 485 172 l 329 710 l 178 0 l 21 0 l 231 986 z "},"N":{"ha":1022,"x_min":21,"x_max":1033,"o":"m 231 986 l 353 986 l 726 275 l 876 985 l 1033 985 l 824 0 l 696 0 l 325 694 l 178 0 l 21 0 l 231 986 z "},"\u0000":{"ha":0,"x_min":0,"x_max":0,"o":""},"Ń":{"ha":1022,"x_min":21,"x_max":1033,"o":"m 674 1094 l 576 1119 l 682 1272 l 828 1272 l 674 1094 m 231 986 l 353 986 l 726 275 l 876 985 l 1033 985 l 824 0 l 696 0 l 325 694 l 178 0 l 21 0 l 231 986 z "},"Ň":{"ha":1022,"x_min":21,"x_max":1033,"o":"m 478 1233 l 567 1272 l 660 1185 l 790 1272 l 863 1233 l 697 1101 l 586 1101 l 478 1233 m 231 986 l 353 986 l 726 275 l 876 985 l 1033 985 l 824 0 l 696 0 l 325 694 l 178 0 l 21 0 l 231 986 z "},"Ņ":{"ha":1022,"x_min":21,"x_max":1033,"o":"m 311 -296 l 365 -189 l 321 -189 l 347 -67 l 478 -67 l 451 -189 l 382 -296 l 311 -296 m 231 986 l 353 986 l 726 275 l 876 985 l 1033 985 l 824 0 l 696 0 l 325 694 l 178 0 l 21 0 l 231 986 z "},"Ṅ":{"ha":1022,"x_min":21,"x_max":1033,"o":"m 583 1113 l 618 1272 l 754 1272 l 721 1113 l 583 1113 m 231 986 l 353 986 l 726 275 l 876 985 l 1033 985 l 824 0 l 696 0 l 325 694 l 178 0 l 21 0 l 231 986 z "},"Ñ":{"ha":1022,"x_min":21,"x_max":1033,"o":"m 231 986 l 353 986 l 726 275 l 876 985 l 1033 985 l 824 0 l 696 0 l 325 694 l 178 0 l 21 0 l 231 986 m 743 1113 q 693 1122 714 1113 q 656 1142 672 1131 q 622 1163 639 1154 q 583 1172 606 1172 q 547 1163 561 1172 q 523 1141 532 1153 q 510 1118 514 1129 q 507 1106 507 1107 l 419 1106 q 435 1143 422 1117 q 470 1197 447 1169 q 525 1244 493 1224 q 599 1265 557 1265 q 647 1256 628 1265 q 683 1235 667 1246 q 717 1214 700 1224 q 757 1204 733 1204 q 798 1214 782 1204 q 824 1236 814 1224 q 840 1259 835 1249 q 844 1272 844 1269 l 931 1272 q 915 1238 928 1264 q 879 1183 903 1211 q 822 1134 856 1156 q 743 1113 788 1113 z "},"O":{"ha":1007,"x_min":57,"x_max":981,"o":"m 413 -7 q 260 27 326 -7 q 149 117 194 61 q 81 247 104 174 q 57 401 57 321 q 105 620 57 514 q 232 810 153 726 q 414 943 311 893 q 628 993 517 993 q 780 958 714 993 q 890 867 846 924 q 958 735 935 810 q 981 582 981 661 q 933 365 981 471 q 808 176 886 258 q 626 43 729 93 q 413 -7 524 -7 m 443 133 q 593 173 524 133 q 713 276 663 213 q 792 417 764 339 q 821 571 821 494 q 806 678 821 626 q 763 767 792 729 q 693 828 735 806 q 596 851 651 851 q 445 812 514 851 q 325 710 376 772 q 245 569 274 647 q 217 414 217 490 q 231 306 217 357 q 274 217 246 256 q 344 156 301 179 q 443 133 386 133 z "},"Œ":{"ha":1465,"x_min":57,"x_max":1526,"o":"m 406 -7 q 257 27 322 -7 q 147 117 192 61 q 80 247 103 174 q 57 400 57 321 q 104 619 57 513 q 229 810 151 726 q 409 943 307 893 q 621 993 511 993 q 708 978 668 993 q 780 938 749 964 q 833 878 811 913 q 869 803 856 843 l 907 986 l 1526 986 l 1497 849 l 1035 849 l 976 571 l 1367 571 l 1338 433 l 947 433 l 883 138 l 1357 138 l 1328 0 l 697 0 l 738 183 q 667 108 706 143 q 587 48 629 74 q 499 8 544 22 q 406 -7 453 -7 m 436 133 q 583 174 515 133 q 701 277 651 214 q 780 419 751 340 q 808 574 808 497 q 794 680 808 629 q 751 769 779 731 q 683 830 724 807 q 589 853 642 853 q 442 813 510 853 q 324 710 374 774 q 245 567 274 646 q 217 413 217 489 q 231 306 217 356 q 272 217 244 256 q 341 156 300 178 q 436 133 382 133 z "},"Ó":{"ha":1007,"x_min":57,"x_max":981,"o":"m 672 1094 l 575 1119 l 681 1272 l 826 1272 l 672 1094 m 413 -7 q 260 27 326 -7 q 149 117 194 61 q 81 247 104 174 q 57 401 57 321 q 105 620 57 514 q 232 810 153 726 q 414 943 311 893 q 628 993 517 993 q 780 958 714 993 q 890 867 846 924 q 958 735 935 810 q 981 582 981 661 q 933 365 981 471 q 808 176 886 258 q 626 43 729 93 q 413 -7 524 -7 m 443 133 q 593 173 524 133 q 713 276 663 213 q 792 417 764 339 q 821 571 821 494 q 806 678 821 626 q 763 767 792 729 q 693 828 735 806 q 596 851 651 851 q 445 812 514 851 q 325 710 376 772 q 245 569 274 647 q 217 414 217 490 q 231 306 217 357 q 274 217 246 256 q 344 156 301 179 q 443 133 386 133 z "},"Ŏ":{"ha":1007,"x_min":57,"x_max":981,"o":"m 413 -7 q 260 27 326 -7 q 149 117 194 61 q 81 247 104 174 q 57 401 57 321 q 105 620 57 514 q 232 810 153 726 q 414 943 311 893 q 628 993 517 993 q 780 958 714 993 q 890 867 846 924 q 958 735 935 810 q 981 582 981 661 q 933 365 981 471 q 808 176 886 258 q 626 43 729 93 q 413 -7 524 -7 m 443 133 q 593 173 524 133 q 713 276 663 213 q 792 417 764 339 q 821 571 821 494 q 806 678 821 626 q 763 767 792 729 q 693 828 735 806 q 596 851 651 851 q 445 812 514 851 q 325 710 376 772 q 245 569 274 647 q 217 414 217 490 q 231 306 217 357 q 274 217 246 256 q 344 156 301 179 q 443 133 386 133 m 660 1174 q 717 1201 689 1174 q 757 1272 744 1229 l 842 1272 q 815 1205 833 1236 q 769 1151 796 1174 q 711 1115 743 1128 q 644 1103 679 1103 q 549 1138 585 1103 q 514 1232 514 1174 q 515 1253 514 1243 q 519 1272 517 1263 l 604 1272 q 602 1260 603 1265 q 601 1247 601 1254 q 617 1195 601 1217 q 660 1174 633 1174 z "},"Ô":{"ha":1007,"x_min":57,"x_max":981,"o":"m 474 1140 l 639 1272 l 750 1272 l 858 1140 l 769 1101 l 676 1189 l 546 1101 l 474 1140 m 413 -7 q 260 27 326 -7 q 149 117 194 61 q 81 247 104 174 q 57 401 57 321 q 105 620 57 514 q 232 810 153 726 q 414 943 311 893 q 628 993 517 993 q 780 958 714 993 q 890 867 846 924 q 958 735 935 810 q 981 582 981 661 q 933 365 981 471 q 808 176 886 258 q 626 43 729 93 q 413 -7 524 -7 m 443 133 q 593 173 524 133 q 713 276 663 213 q 792 417 764 339 q 821 571 821 494 q 806 678 821 626 q 763 767 792 729 q 693 828 735 806 q 596 851 651 851 q 445 812 514 851 q 325 710 376 772 q 245 569 274 647 q 217 414 217 490 q 231 306 217 357 q 274 217 246 256 q 344 156 301 179 q 443 133 386 133 z "},"Ö":{"ha":1007,"x_min":57,"x_max":981,"o":"m 471 1114 l 504 1267 l 631 1267 l 599 1114 l 471 1114 m 710 1114 l 742 1267 l 868 1267 l 836 1114 l 710 1114 m 413 -7 q 260 27 326 -7 q 149 117 194 61 q 81 247 104 174 q 57 401 57 321 q 105 620 57 514 q 232 810 153 726 q 414 943 311 893 q 628 993 517 993 q 780 958 714 993 q 890 867 846 924 q 958 735 935 810 q 981 582 981 661 q 933 365 981 471 q 808 176 886 258 q 626 43 729 93 q 413 -7 524 -7 m 443 133 q 593 173 524 133 q 713 276 663 213 q 792 417 764 339 q 821 571 821 494 q 806 678 821 626 q 763 767 792 729 q 693 828 735 806 q 596 851 651 851 q 445 812 514 851 q 325 710 376 772 q 245 569 274 647 q 217 414 217 490 q 231 306 217 357 q 274 217 246 256 q 344 156 301 179 q 443 133 386 133 z "},"Ò":{"ha":1007,"x_min":57,"x_max":981,"o":"m 413 -7 q 260 27 326 -7 q 149 117 194 61 q 81 247 104 174 q 57 401 57 321 q 105 620 57 514 q 232 810 153 726 q 414 943 311 893 q 628 993 517 993 q 780 958 714 993 q 890 867 846 924 q 958 735 935 810 q 981 582 981 661 q 933 365 981 471 q 808 176 886 258 q 626 43 729 93 q 413 -7 524 -7 m 443 133 q 593 173 524 133 q 713 276 663 213 q 792 417 764 339 q 821 571 821 494 q 806 678 821 626 q 763 767 792 729 q 693 828 735 806 q 596 851 651 851 q 445 812 514 851 q 325 710 376 772 q 245 569 274 647 q 217 414 217 490 q 231 306 217 357 q 274 217 246 256 q 344 156 301 179 q 443 133 386 133 m 567 1274 l 711 1274 l 753 1121 l 647 1094 l 567 1274 z "},"Ő":{"ha":1007,"x_min":57,"x_max":981,"o":"m 563 1090 l 488 1114 l 586 1267 l 710 1267 l 563 1090 m 761 1090 l 688 1114 l 785 1267 l 908 1267 l 761 1090 m 413 -7 q 260 27 326 -7 q 149 117 194 61 q 81 247 104 174 q 57 401 57 321 q 105 620 57 514 q 232 810 153 726 q 414 943 311 893 q 628 993 517 993 q 780 958 714 993 q 890 867 846 924 q 958 735 935 810 q 981 582 981 661 q 933 365 981 471 q 808 176 886 258 q 626 43 729 93 q 413 -7 524 -7 m 443 133 q 593 173 524 133 q 713 276 663 213 q 792 417 764 339 q 821 571 821 494 q 806 678 821 626 q 763 767 792 729 q 693 828 735 806 q 596 851 651 851 q 445 812 514 851 q 325 710 376 772 q 245 569 274 647 q 217 414 217 490 q 231 306 217 357 q 274 217 246 256 q 344 156 301 179 q 443 133 386 133 z "},"˝":{"ha":468,"x_min":46,"x_max":467,"o":"m 121 838 l 46 861 l 144 1014 l 268 1014 l 121 838 m 319 838 l 246 861 l 343 1014 l 467 1014 l 319 838 z "},"Ō":{"ha":1007,"x_min":57,"x_max":981,"o":"m 468 1150 l 488 1247 l 881 1247 l 860 1150 l 468 1150 m 413 -7 q 260 27 326 -7 q 149 117 194 61 q 81 247 104 174 q 57 401 57 321 q 105 620 57 514 q 232 810 153 726 q 414 943 311 893 q 628 993 517 993 q 780 958 714 993 q 890 867 846 924 q 958 735 935 810 q 981 582 981 661 q 933 365 981 471 q 808 176 886 258 q 626 43 729 93 q 413 -7 524 -7 m 443 133 q 593 173 524 133 q 713 276 663 213 q 792 417 764 339 q 821 571 821 494 q 806 678 821 626 q 763 767 792 729 q 693 828 735 806 q 596 851 651 851 q 445 812 514 851 q 325 710 376 772 q 245 569 274 647 q 217 414 217 490 q 231 306 217 357 q 274 217 246 256 q 344 156 301 179 q 443 133 386 133 z "},"Ǫ":{"ha":1006,"x_min":57,"x_max":981,"o":"m 347 -261 q 261 -225 289 -251 q 233 -164 233 -199 q 364 -3 233 -82 q 232 42 289 6 q 136 134 175 79 q 77 258 97 189 q 57 401 57 326 q 105 620 57 514 q 232 810 153 726 q 414 943 311 893 q 628 993 517 993 q 780 958 714 993 q 890 867 846 924 q 958 735 935 810 q 981 582 981 661 q 938 374 981 475 q 822 191 894 272 q 653 57 749 110 q 453 -4 558 4 q 359 -73 388 -42 q 331 -132 331 -104 q 397 -181 331 -176 l 347 -261 m 443 133 q 593 173 524 133 q 713 276 663 213 q 792 417 764 339 q 821 571 821 494 q 806 678 821 626 q 763 767 792 729 q 693 828 735 806 q 596 851 651 851 q 445 812 514 851 q 325 710 376 772 q 245 569 274 647 q 217 414 217 490 q 231 306 217 357 q 274 217 246 256 q 344 156 301 179 q 443 133 386 133 z "},"Ø":{"ha":1007,"x_min":11,"x_max":1035,"o":"m 1035 986 l 908 840 q 963 719 944 785 q 981 582 981 653 q 933 365 981 471 q 808 176 886 258 q 626 43 729 93 q 413 -7 524 -7 q 308 8 356 -7 q 222 49 261 22 l 181 0 l 11 0 l 132 139 q 76 260 94 193 q 57 401 57 328 q 105 620 57 514 q 232 810 153 726 q 414 943 311 893 q 628 993 517 993 q 733 977 685 993 q 819 933 781 961 l 865 986 l 1035 986 m 217 414 q 223 337 217 374 q 243 268 229 300 l 717 814 q 596 851 664 851 q 445 812 514 851 q 325 710 376 772 q 245 569 274 647 q 217 414 217 490 m 443 133 q 593 173 524 133 q 713 276 663 213 q 792 417 764 339 q 821 571 821 494 q 814 643 821 608 q 794 710 807 678 l 325 167 q 378 142 349 151 q 443 133 407 133 z "},"/":{"ha":915,"x_min":-36,"x_max":988,"o":"m 988 986 l 133 0 l -36 0 l 818 986 l 988 986 z "},"Ǿ":{"ha":1007,"x_min":10,"x_max":1033,"o":"m 1033 986 l 908 842 q 963 719 944 786 q 981 582 981 653 q 933 365 981 471 q 808 176 886 258 q 626 43 729 93 q 413 -7 524 -7 q 308 8 356 -7 q 221 49 261 22 l 179 0 l 10 0 l 131 140 q 76 261 94 194 q 57 401 57 328 q 105 620 57 514 q 232 810 153 726 q 414 943 311 893 q 628 993 517 993 q 732 978 685 993 q 819 935 779 963 l 864 986 l 1033 986 m 217 414 q 223 338 217 375 q 243 269 229 301 l 715 815 q 662 842 692 832 q 596 851 632 851 q 445 812 514 851 q 325 710 376 772 q 245 569 274 647 q 217 414 217 490 m 443 133 q 593 173 524 133 q 713 276 663 213 q 792 417 764 339 q 821 571 821 494 q 815 644 821 608 q 794 711 808 679 l 324 168 q 443 133 375 133 m 679 1094 l 582 1119 l 688 1272 l 833 1272 l 679 1094 z "},"Õ":{"ha":1007,"x_min":57,"x_max":981,"o":"m 413 -7 q 260 27 326 -7 q 149 117 194 61 q 81 247 104 174 q 57 401 57 321 q 105 620 57 514 q 232 810 153 726 q 414 943 311 893 q 628 993 517 993 q 780 958 714 993 q 890 867 846 924 q 958 735 935 810 q 981 582 981 661 q 933 365 981 471 q 808 176 886 258 q 626 43 729 93 q 413 -7 524 -7 m 443 133 q 593 173 524 133 q 713 276 663 213 q 792 417 764 339 q 821 571 821 494 q 806 678 821 626 q 763 767 792 729 q 693 828 735 806 q 596 851 651 851 q 445 812 514 851 q 325 710 376 772 q 245 569 274 647 q 217 414 217 490 q 231 306 217 357 q 274 217 246 256 q 344 156 301 179 q 443 133 386 133 m 740 1113 q 690 1122 711 1113 q 653 1142 669 1131 q 619 1163 636 1154 q 581 1172 603 1172 q 544 1163 558 1172 q 520 1141 529 1153 q 508 1118 511 1129 q 504 1106 504 1107 l 417 1106 q 432 1143 419 1117 q 467 1197 444 1169 q 522 1244 490 1224 q 596 1265 554 1265 q 644 1256 625 1265 q 681 1235 664 1246 q 714 1214 697 1224 q 754 1204 731 1204 q 795 1214 779 1204 q 822 1236 811 1224 q 837 1259 832 1249 q 842 1272 842 1269 l 928 1272 q 913 1238 925 1264 q 876 1183 900 1211 q 819 1134 853 1156 q 740 1113 785 1113 z "},"P":{"ha":835,"x_min":21,"x_max":857,"o":"m 231 986 l 625 986 q 722 964 679 986 q 795 904 765 942 q 841 819 825 867 q 857 719 857 771 q 828 584 857 651 q 749 463 799 517 q 634 376 700 410 q 494 343 568 343 l 250 343 l 178 0 l 21 0 l 231 986 m 515 481 q 584 499 551 481 q 642 548 617 517 q 681 620 667 579 q 696 707 696 661 q 665 810 696 771 q 585 849 633 849 l 358 849 l 279 481 l 515 481 z "},"Q":{"ha":1006,"x_min":56,"x_max":981,"o":"m 671 67 q 546 13 611 32 q 413 -7 481 -7 q 260 27 326 -7 q 148 117 193 61 q 79 247 103 174 q 56 401 56 321 q 103 620 56 514 q 231 810 151 726 q 413 943 310 893 q 628 993 517 993 q 778 958 713 993 q 890 867 844 924 q 958 735 935 810 q 981 582 981 661 q 924 343 981 458 q 774 143 867 228 l 865 0 l 714 0 l 671 67 m 443 133 q 526 145 486 133 q 601 178 565 157 l 497 343 l 646 343 l 699 260 q 789 407 757 325 q 821 571 821 489 q 806 678 821 626 q 763 768 792 729 q 692 830 735 807 q 594 853 650 853 q 444 813 514 853 q 324 710 375 774 q 245 569 274 647 q 217 414 217 490 q 231 306 217 357 q 274 217 246 256 q 344 156 301 179 q 443 133 386 133 z "},"R":{"ha":885,"x_min":21,"x_max":871,"o":"m 21 0 l 231 986 l 640 986 q 738 964 694 986 q 810 904 781 942 q 856 819 840 867 q 871 719 871 771 q 851 610 871 664 q 799 509 832 556 q 720 427 765 463 q 622 375 675 392 l 761 0 l 585 0 l 457 343 l 250 343 l 178 0 l 21 0 m 531 481 q 598 499 565 481 q 656 549 631 518 q 695 621 681 581 q 710 703 710 661 q 679 807 710 765 q 601 849 649 849 l 358 849 l 279 481 l 531 481 z "},"Ŕ":{"ha":885,"x_min":21,"x_max":871,"o":"m 586 1097 l 489 1122 l 594 1275 l 740 1275 l 586 1097 m 21 0 l 231 986 l 640 986 q 738 964 694 986 q 810 904 781 942 q 856 819 840 867 q 871 719 871 771 q 851 610 871 664 q 799 509 832 556 q 720 427 765 463 q 622 375 675 392 l 761 0 l 585 0 l 457 343 l 250 343 l 178 0 l 21 0 m 531 481 q 598 499 565 481 q 656 549 631 518 q 695 621 681 581 q 710 703 710 661 q 679 807 710 765 q 601 849 649 849 l 358 849 l 279 481 l 531 481 z "},"Ř":{"ha":885,"x_min":21,"x_max":871,"o":"m 411 1236 l 500 1275 l 593 1188 l 724 1275 l 796 1236 l 631 1104 l 519 1104 l 411 1236 m 21 0 l 231 986 l 640 986 q 738 964 694 986 q 810 904 781 942 q 856 819 840 867 q 871 719 871 771 q 851 610 871 664 q 799 509 832 556 q 720 427 765 463 q 622 375 675 392 l 761 0 l 585 0 l 457 343 l 250 343 l 178 0 l 21 0 m 531 481 q 598 499 565 481 q 656 549 631 518 q 695 621 681 581 q 710 703 710 661 q 679 807 710 765 q 601 849 649 849 l 358 849 l 279 481 l 531 481 z "},"Ŗ":{"ha":885,"x_min":21,"x_max":871,"o":"m 242 -296 l 296 -189 l 251 -189 l 278 -67 l 408 -67 l 382 -189 l 313 -296 l 242 -296 m 21 0 l 231 986 l 640 986 q 738 964 694 986 q 810 904 781 942 q 856 819 840 867 q 871 719 871 771 q 851 610 871 664 q 799 509 832 556 q 720 427 765 463 q 622 375 675 392 l 761 0 l 585 0 l 457 343 l 250 343 l 178 0 l 21 0 m 531 481 q 598 499 565 481 q 656 549 631 518 q 695 621 681 581 q 710 703 710 661 q 679 807 710 765 q 601 849 649 849 l 358 849 l 279 481 l 531 481 z "},"S":{"ha":819,"x_min":-24,"x_max":835,"o":"m 338 -10 q 137 24 231 -10 q -24 124 43 58 l 78 257 q 116 217 89 239 q 181 176 143 194 q 267 144 219 157 q 369 131 315 131 q 522 170 469 131 q 575 281 575 210 q 559 333 575 311 q 515 371 543 354 q 445 401 486 388 q 354 429 404 414 q 185 508 243 461 q 128 640 128 554 q 161 789 128 724 q 251 900 194 854 q 381 969 307 946 q 539 993 456 993 q 710 961 635 993 q 835 882 785 929 l 738 754 q 707 787 729 769 q 654 819 685 804 q 585 844 624 835 q 506 854 547 854 q 349 809 400 854 q 299 693 299 764 q 311 646 299 665 q 349 612 324 626 q 410 585 374 597 q 496 560 447 572 q 601 525 554 544 q 681 479 647 506 q 732 416 714 453 q 750 328 750 379 q 716 176 750 240 q 624 71 682 113 q 492 10 567 29 q 338 -10 418 -10 z "},"Ś":{"ha":819,"x_min":-24,"x_max":835,"o":"m 586 1114 l 489 1139 l 594 1292 l 740 1292 l 586 1114 m 338 -10 q 137 24 231 -10 q -24 124 43 58 l 78 257 q 116 217 89 239 q 181 176 143 194 q 267 144 219 157 q 369 131 315 131 q 522 170 469 131 q 575 281 575 210 q 559 333 575 311 q 515 371 543 354 q 445 401 486 388 q 354 429 404 414 q 185 508 243 461 q 128 640 128 554 q 161 789 128 724 q 251 900 194 854 q 381 969 307 946 q 539 993 456 993 q 710 961 635 993 q 835 882 785 929 l 738 754 q 707 787 729 769 q 654 819 685 804 q 585 844 624 835 q 506 854 547 854 q 349 809 400 854 q 299 693 299 764 q 311 646 299 665 q 349 612 324 626 q 410 585 374 597 q 496 560 447 572 q 601 525 554 544 q 681 479 647 506 q 732 416 714 453 q 750 328 750 379 q 716 176 750 240 q 624 71 682 113 q 492 10 567 29 q 338 -10 418 -10 z "},"Š":{"ha":819,"x_min":-24,"x_max":835,"o":"m 393 1253 l 482 1292 l 575 1204 l 706 1292 l 778 1253 l 613 1121 l 501 1121 l 393 1253 m 338 -10 q 137 24 231 -10 q -24 124 43 58 l 78 257 q 116 217 89 239 q 181 176 143 194 q 267 144 219 157 q 369 131 315 131 q 522 170 469 131 q 575 281 575 210 q 559 333 575 311 q 515 371 543 354 q 445 401 486 388 q 354 429 404 414 q 185 508 243 461 q 128 640 128 554 q 161 789 128 724 q 251 900 194 854 q 381 969 307 946 q 539 993 456 993 q 710 961 635 993 q 835 882 785 929 l 738 754 q 707 787 729 769 q 654 819 685 804 q 585 844 624 835 q 506 854 547 854 q 349 809 400 854 q 299 693 299 764 q 311 646 299 665 q 349 612 324 626 q 410 585 374 597 q 496 560 447 572 q 601 525 554 544 q 681 479 647 506 q 732 416 714 453 q 750 328 750 379 q 716 176 750 240 q 624 71 682 113 q 492 10 567 29 q 338 -10 418 -10 z "},"Ŝ":{"ha":819,"x_min":-24,"x_max":835,"o":"m 385 1160 l 550 1292 l 661 1292 l 769 1160 l 681 1121 l 588 1208 l 457 1121 l 385 1160 m 338 -10 q 137 24 231 -10 q -24 124 43 58 l 78 257 q 116 217 89 239 q 181 176 143 194 q 267 144 219 157 q 369 131 315 131 q 522 170 469 131 q 575 281 575 210 q 559 333 575 311 q 515 371 543 354 q 445 401 486 388 q 354 429 404 414 q 185 508 243 461 q 128 640 128 554 q 161 789 128 724 q 251 900 194 854 q 381 969 307 946 q 539 993 456 993 q 710 961 635 993 q 835 882 785 929 l 738 754 q 707 787 729 769 q 654 819 685 804 q 585 844 624 835 q 506 854 547 854 q 349 809 400 854 q 299 693 299 764 q 311 646 299 665 q 349 612 324 626 q 410 585 374 597 q 496 560 447 572 q 601 525 554 544 q 681 479 647 506 q 732 416 714 453 q 750 328 750 379 q 716 176 750 240 q 624 71 682 113 q 492 10 567 29 q 338 -10 418 -10 z "},"T":{"ha":818,"x_min":113,"x_max":915,"o":"m 421 849 l 113 849 l 142 986 l 915 986 l 886 849 l 578 849 l 397 0 l 242 0 l 421 849 z "},"Ŧ":{"ha":858,"x_min":96,"x_max":935,"o":"m 113 539 l 374 539 l 440 849 l 132 849 l 161 986 l 935 986 l 906 849 l 597 849 l 531 539 l 793 539 l 776 461 l 514 461 l 417 0 l 260 0 l 357 461 l 96 461 l 113 539 z "},"Ť":{"ha":818,"x_min":113,"x_max":915,"o":"m 382 1233 l 471 1272 l 564 1185 l 694 1272 l 767 1233 l 601 1101 l 490 1101 l 382 1233 m 421 849 l 113 849 l 142 986 l 915 986 l 886 849 l 578 849 l 397 0 l 242 0 l 421 849 z "},"Þ":{"ha":808,"x_min":21,"x_max":794,"o":"m 231 986 l 388 986 l 349 801 l 563 801 q 660 779 617 801 q 733 719 703 757 q 778 634 763 682 q 794 536 794 586 q 765 399 794 467 q 687 278 736 332 q 572 192 638 225 q 433 158 507 158 l 211 158 l 178 0 l 21 0 l 231 986 m 456 297 q 524 317 492 297 q 581 367 557 336 q 620 438 606 399 q 635 519 635 478 q 604 623 635 582 q 525 664 574 664 l 318 664 l 240 297 l 456 297 z "},"U":{"ha":1003,"x_min":92,"x_max":1028,"o":"m 411 -7 q 263 19 324 -7 q 164 89 201 44 q 109 194 126 133 q 92 324 92 254 q 111 486 92 400 l 217 986 l 374 986 l 267 486 q 251 351 251 413 q 261 265 251 306 q 293 196 271 225 q 351 150 315 167 q 440 133 388 133 q 567 164 513 133 q 660 244 621 194 q 726 356 700 293 q 765 486 751 419 l 871 986 l 1028 986 l 921 486 q 858 295 900 385 q 753 138 817 206 q 605 32 690 71 q 411 -7 519 -7 z "},"Ú":{"ha":1001,"x_min":92,"x_max":1028,"o":"m 656 1094 l 558 1119 l 664 1272 l 810 1272 l 656 1094 m 411 -7 q 263 19 324 -7 q 164 89 201 44 q 109 194 126 133 q 92 324 92 254 q 111 486 92 400 l 217 986 l 374 986 l 267 486 q 251 351 251 413 q 261 265 251 306 q 293 196 271 225 q 351 150 315 167 q 440 133 388 133 q 567 164 513 133 q 660 244 621 194 q 726 356 700 293 q 765 486 751 419 l 871 986 l 1028 986 l 921 486 q 858 295 900 385 q 753 138 817 206 q 605 32 690 71 q 411 -7 519 -7 z "},"Ŭ":{"ha":1001,"x_min":92,"x_max":1028,"o":"m 411 -7 q 263 19 324 -7 q 164 89 201 44 q 109 194 126 133 q 92 324 92 254 q 111 486 92 400 l 217 986 l 374 986 l 267 486 q 251 351 251 413 q 261 265 251 306 q 293 196 271 225 q 351 150 315 167 q 440 133 388 133 q 567 164 513 133 q 660 244 621 194 q 726 356 700 293 q 765 486 751 419 l 871 986 l 1028 986 l 921 486 q 858 295 900 385 q 753 138 817 206 q 605 32 690 71 q 411 -7 519 -7 m 642 1174 q 699 1201 671 1174 q 739 1272 726 1229 l 824 1272 q 797 1205 815 1236 q 751 1151 778 1174 q 693 1115 725 1128 q 626 1103 661 1103 q 531 1138 567 1103 q 496 1232 496 1174 q 497 1253 496 1243 q 501 1272 499 1263 l 586 1272 q 584 1260 585 1265 q 583 1247 583 1254 q 599 1195 583 1217 q 642 1174 615 1174 z "},"Û":{"ha":1001,"x_min":92,"x_max":1028,"o":"m 454 1140 l 619 1272 l 731 1272 l 839 1140 l 750 1101 l 657 1189 l 526 1101 l 454 1140 m 411 -7 q 263 19 324 -7 q 164 89 201 44 q 109 194 126 133 q 92 324 92 254 q 111 486 92 400 l 217 986 l 374 986 l 267 486 q 251 351 251 413 q 261 265 251 306 q 293 196 271 225 q 351 150 315 167 q 440 133 388 133 q 567 164 513 133 q 660 244 621 194 q 726 356 700 293 q 765 486 751 419 l 871 986 l 1028 986 l 921 486 q 858 295 900 385 q 753 138 817 206 q 605 32 690 71 q 411 -7 519 -7 z "},"Ü":{"ha":1001,"x_min":92,"x_max":1028,"o":"m 457 1114 l 490 1267 l 617 1267 l 585 1114 l 457 1114 m 696 1114 l 728 1267 l 854 1267 l 822 1114 l 696 1114 m 411 -7 q 263 19 324 -7 q 164 89 201 44 q 109 194 126 133 q 92 324 92 254 q 111 486 92 400 l 217 986 l 374 986 l 267 486 q 251 351 251 413 q 261 265 251 306 q 293 196 271 225 q 351 150 315 167 q 440 133 388 133 q 567 164 513 133 q 660 244 621 194 q 726 356 700 293 q 765 486 751 419 l 871 986 l 1028 986 l 921 486 q 858 295 900 385 q 753 138 817 206 q 605 32 690 71 q 411 -7 519 -7 z "},"Ù":{"ha":1001,"x_min":92,"x_max":1028,"o":"m 411 -7 q 263 19 324 -7 q 164 89 201 44 q 109 194 126 133 q 92 324 92 254 q 111 486 92 400 l 217 986 l 374 986 l 267 486 q 251 351 251 413 q 261 265 251 306 q 293 196 271 225 q 351 150 315 167 q 440 133 388 133 q 567 164 513 133 q 660 244 621 194 q 726 356 700 293 q 765 486 751 419 l 871 986 l 1028 986 l 921 486 q 858 295 900 385 q 753 138 817 206 q 605 32 690 71 q 411 -7 519 -7 m 542 1274 l 686 1274 l 728 1121 l 622 1094 l 542 1274 z "},"Ű":{"ha":1001,"x_min":92,"x_max":1028,"o":"m 411 -7 q 263 19 324 -7 q 164 89 201 44 q 109 194 126 133 q 92 324 92 254 q 111 486 92 400 l 217 986 l 374 986 l 267 486 q 251 351 251 413 q 261 265 251 306 q 293 196 271 225 q 351 150 315 167 q 440 133 388 133 q 567 164 513 133 q 660 244 621 194 q 726 356 700 293 q 765 486 751 419 l 871 986 l 1028 986 l 921 486 q 858 295 900 385 q 753 138 817 206 q 605 32 690 71 q 411 -7 519 -7 m 533 1097 l 458 1121 l 557 1274 l 681 1274 l 533 1097 m 732 1097 l 658 1121 l 756 1274 l 879 1274 l 732 1097 z "},"Ū":{"ha":1001,"x_min":92,"x_max":1028,"o":"m 411 -7 q 263 19 324 -7 q 164 89 201 44 q 109 194 126 133 q 92 324 92 254 q 111 486 92 400 l 217 986 l 374 986 l 267 486 q 251 351 251 413 q 261 265 251 306 q 293 196 271 225 q 351 150 315 167 q 440 133 388 133 q 567 164 513 133 q 660 244 621 194 q 726 356 700 293 q 765 486 751 419 l 871 986 l 1028 986 l 921 486 q 858 295 900 385 q 753 138 817 206 q 605 32 690 71 q 411 -7 519 -7 m 453 1150 l 472 1247 l 865 1247 l 844 1150 l 453 1150 z "},"Ų":{"ha":1001,"x_min":92,"x_max":1028,"o":"m 347 -261 q 261 -225 289 -251 q 233 -164 233 -199 q 265 -84 233 -124 q 363 -4 296 -44 q 237 31 289 3 q 153 102 185 58 q 106 202 121 146 q 92 324 92 258 q 111 486 92 400 l 217 986 l 374 986 l 267 486 q 251 351 251 413 q 261 265 251 306 q 293 196 271 225 q 351 150 315 167 q 440 133 388 133 q 567 164 513 133 q 660 244 621 194 q 726 356 700 293 q 765 486 751 419 l 871 986 l 1028 986 l 921 486 q 862 304 900 390 q 765 151 824 218 q 628 43 707 85 q 451 -6 550 1 q 359 -74 388 -43 q 331 -132 331 -104 q 397 -181 331 -176 l 347 -261 l 347 -261 z "},"Ů":{"ha":1001,"x_min":92,"x_max":1028,"o":"m 533 1151 q 575 1240 533 1207 q 678 1272 617 1272 q 752 1251 726 1272 q 778 1190 778 1229 q 738 1103 778 1136 q 635 1069 697 1069 q 560 1092 588 1069 q 533 1151 533 1114 m 667 1222 q 622 1206 642 1222 q 603 1163 603 1189 q 615 1132 603 1144 q 646 1119 626 1119 q 690 1137 669 1119 q 711 1181 711 1154 q 699 1211 711 1200 q 667 1222 686 1222 m 411 -7 q 263 19 324 -7 q 164 89 201 44 q 109 194 126 133 q 92 324 92 254 q 111 486 92 400 l 217 986 l 374 986 l 267 486 q 251 351 251 413 q 261 265 251 306 q 293 196 271 225 q 351 150 315 167 q 440 133 388 133 q 567 164 513 133 q 660 244 621 194 q 726 356 700 293 q 765 486 751 419 l 871 986 l 1028 986 l 921 486 q 858 295 900 385 q 753 138 817 206 q 605 32 690 71 q 411 -7 519 -7 z "},"Ũ":{"ha":1001,"x_min":92,"x_max":1028,"o":"m 411 -7 q 263 19 324 -7 q 164 89 201 44 q 109 194 126 133 q 92 324 92 254 q 111 486 92 400 l 217 986 l 374 986 l 267 486 q 251 351 251 413 q 261 265 251 306 q 293 196 271 225 q 351 150 315 167 q 440 133 388 133 q 567 164 513 133 q 660 244 621 194 q 726 356 700 293 q 765 486 751 419 l 871 986 l 1028 986 l 921 486 q 858 295 900 385 q 753 138 817 206 q 605 32 690 71 q 411 -7 519 -7 m 724 1113 q 674 1122 694 1113 q 636 1142 653 1131 q 603 1163 619 1154 q 564 1172 586 1172 q 527 1163 542 1172 q 503 1141 513 1153 q 491 1118 494 1129 q 488 1106 488 1107 l 400 1106 q 415 1143 403 1117 q 451 1197 428 1169 q 506 1244 474 1224 q 579 1265 538 1265 q 628 1256 608 1265 q 664 1235 647 1246 q 697 1214 681 1224 q 738 1204 714 1204 q 778 1214 763 1204 q 805 1236 794 1224 q 820 1259 815 1249 q 825 1272 825 1269 l 911 1272 q 896 1238 908 1264 q 860 1183 883 1211 q 802 1134 836 1156 q 724 1113 768 1113 z "},"V":{"ha":900,"x_min":126,"x_max":1006,"o":"m 126 986 l 292 986 l 399 196 l 840 986 l 1006 986 l 424 0 l 290 0 l 126 986 z "},"W":{"ha":1392,"x_min":122,"x_max":1501,"o":"m 122 986 l 290 986 l 406 181 l 618 543 l 551 982 l 697 982 l 739 647 l 924 982 l 1069 982 l 817 543 l 874 181 l 1331 986 l 1501 986 l 906 0 l 774 0 l 696 442 l 429 0 l 297 0 l 122 986 z "},"Ẃ":{"ha":1392,"x_min":122,"x_max":1501,"o":"m 836 1094 l 739 1119 l 844 1272 l 990 1272 l 836 1094 m 122 986 l 290 986 l 406 181 l 618 543 l 551 982 l 697 982 l 739 647 l 924 982 l 1069 982 l 817 543 l 874 181 l 1331 986 l 1501 986 l 906 0 l 774 0 l 696 442 l 429 0 l 297 0 l 122 986 z "},"Ŵ":{"ha":1392,"x_min":122,"x_max":1501,"o":"m 647 1140 l 813 1272 l 924 1272 l 1032 1140 l 943 1101 l 850 1189 l 719 1101 l 647 1140 m 122 986 l 290 986 l 406 181 l 618 543 l 551 982 l 697 982 l 739 647 l 924 982 l 1069 982 l 817 543 l 874 181 l 1331 986 l 1501 986 l 906 0 l 774 0 l 696 442 l 429 0 l 297 0 l 122 986 z "},"Ẅ":{"ha":1392,"x_min":122,"x_max":1501,"o":"m 642 1114 l 675 1267 l 801 1267 l 769 1114 l 642 1114 m 881 1114 l 913 1267 l 1039 1267 l 1007 1114 l 881 1114 m 122 986 l 290 986 l 406 181 l 618 543 l 551 982 l 697 982 l 739 647 l 924 982 l 1069 982 l 817 543 l 874 181 l 1331 986 l 1501 986 l 906 0 l 774 0 l 696 442 l 429 0 l 297 0 l 122 986 z "},"Ẁ":{"ha":1392,"x_min":122,"x_max":1501,"o":"m 122 986 l 290 986 l 406 181 l 618 543 l 551 982 l 697 982 l 739 647 l 924 982 l 1069 982 l 817 543 l 874 181 l 1331 986 l 1501 986 l 906 0 l 774 0 l 696 442 l 429 0 l 297 0 l 122 986 m 707 1274 l 851 1274 l 893 1121 l 788 1094 l 707 1274 z "},"X":{"ha":854,"x_min":-76,"x_max":972,"o":"m 358 486 l 122 986 l 294 986 l 465 597 l 801 986 l 972 986 l 525 486 l 751 0 l 581 0 l 418 375 l 96 0 l -76 0 l 358 486 z "},"Y":{"ha":854,"x_min":118,"x_max":967,"o":"m 329 356 l 118 986 l 289 986 l 436 492 l 797 986 l 967 986 l 485 353 l 410 0 l 253 0 l 329 356 z "},"Ý":{"ha":854,"x_min":118,"x_max":967,"o":"m 329 356 l 118 986 l 289 986 l 436 492 l 797 986 l 967 986 l 485 353 l 410 0 l 253 0 l 329 356 m 574 1094 l 476 1119 l 582 1272 l 728 1272 l 574 1094 z "},"Ŷ":{"ha":854,"x_min":118,"x_max":967,"o":"m 329 356 l 118 986 l 289 986 l 436 492 l 797 986 l 967 986 l 485 353 l 410 0 l 253 0 l 329 356 m 369 1140 l 535 1272 l 646 1272 l 754 1140 l 665 1101 l 572 1189 l 442 1101 l 369 1140 z "},"Ÿ":{"ha":854,"x_min":118,"x_max":967,"o":"m 329 356 l 118 986 l 289 986 l 436 492 l 797 986 l 967 986 l 485 353 l 410 0 l 253 0 l 329 356 m 382 1114 l 415 1267 l 542 1267 l 510 1114 l 382 1114 m 621 1114 l 653 1267 l 779 1267 l 747 1114 l 621 1114 z "},"Ỳ":{"ha":854,"x_min":118,"x_max":967,"o":"m 329 356 l 118 986 l 289 986 l 436 492 l 797 986 l 967 986 l 485 353 l 410 0 l 253 0 l 329 356 m 454 1274 l 599 1274 l 640 1121 l 535 1094 l 454 1274 z "},"Ỹ":{"ha":854,"x_min":118,"x_max":967,"o":"m 329 356 l 118 986 l 289 986 l 436 492 l 797 986 l 967 986 l 485 353 l 410 0 l 253 0 l 329 356 m 640 1113 q 590 1122 611 1113 q 553 1142 569 1131 q 519 1163 536 1154 q 481 1172 503 1172 q 444 1163 458 1172 q 420 1141 429 1153 q 408 1118 411 1129 q 404 1106 404 1107 l 317 1106 q 332 1143 319 1117 q 367 1197 344 1169 q 422 1244 390 1224 q 496 1265 454 1265 q 544 1256 525 1265 q 581 1235 564 1246 q 614 1214 597 1224 q 654 1204 631 1204 q 695 1214 679 1204 q 722 1236 711 1224 q 737 1259 732 1249 q 742 1272 742 1269 l 828 1272 q 813 1238 825 1264 q 776 1183 800 1211 q 719 1134 753 1156 q 640 1113 685 1113 z "},"Z":{"ha":831,"x_min":-49,"x_max":903,"o":"m -22 119 l 692 849 l 147 849 l 176 986 l 903 986 l 878 867 l 178 138 l 724 138 l 694 0 l -49 0 l -22 119 z "},"Ź":{"ha":831,"x_min":-49,"x_max":903,"o":"m 563 1094 l 465 1119 l 571 1272 l 717 1272 l 563 1094 m -22 119 l 692 849 l 147 849 l 176 986 l 903 986 l 878 867 l 178 138 l 724 138 l 694 0 l -49 0 l -22 119 z "},"Ž":{"ha":831,"x_min":-49,"x_max":903,"o":"m 381 1233 l 469 1272 l 563 1185 l 693 1272 l 765 1233 l 600 1101 l 489 1101 l 381 1233 m -22 119 l 692 849 l 147 849 l 176 986 l 903 986 l 878 867 l 178 138 l 724 138 l 694 0 l -49 0 l -22 119 z "},"Ż":{"ha":831,"x_min":-49,"x_max":903,"o":"m -22 119 l 692 849 l 147 849 l 176 986 l 903 986 l 878 867 l 178 138 l 724 138 l 694 0 l -49 0 l -22 119 m 482 1113 l 517 1272 l 653 1272 l 619 1113 l 482 1113 z "},"a":{"ha":854,"x_min":26,"x_max":818,"o":"m 285 -14 q 176 10 224 -14 q 94 74 128 33 q 44 169 61 114 q 26 286 26 224 q 59 457 26 375 q 147 601 92 539 q 275 701 203 664 q 426 739 347 739 q 559 697 506 739 q 635 589 613 654 l 664 725 l 818 725 l 701 181 q 699 169 700 174 q 699 160 699 164 q 731 131 699 132 l 703 0 q 667 -5 683 -3 q 640 -7 651 -7 q 550 65 550 -7 q 560 132 550 88 q 432 24 507 61 q 285 -14 357 -14 m 351 117 q 410 128 379 117 q 472 158 442 139 q 526 204 501 178 q 567 261 551 231 l 606 451 q 587 513 601 485 q 550 563 572 542 q 501 597 528 585 q 446 608 475 608 q 347 582 393 608 q 265 514 300 556 q 208 419 229 472 q 188 311 188 365 q 199 234 188 269 q 231 173 210 199 q 283 132 253 147 q 351 117 314 117 z "},"á":{"ha":854,"x_min":26,"x_max":818,"o":"m 285 -14 q 176 10 224 -14 q 94 74 128 33 q 44 169 61 114 q 26 286 26 224 q 59 457 26 375 q 147 601 92 539 q 275 701 203 664 q 426 739 347 739 q 559 697 506 739 q 635 589 613 654 l 664 725 l 818 725 l 701 181 q 699 169 700 174 q 699 160 699 164 q 731 131 699 132 l 703 0 q 667 -5 683 -3 q 640 -7 651 -7 q 550 65 550 -7 q 560 132 550 88 q 432 24 507 61 q 285 -14 357 -14 m 351 117 q 410 128 379 117 q 472 158 442 139 q 526 204 501 178 q 567 261 551 231 l 606 451 q 587 513 601 485 q 550 563 572 542 q 501 597 528 585 q 446 608 475 608 q 347 582 393 608 q 265 514 300 556 q 208 419 229 472 q 188 311 188 365 q 199 234 188 269 q 231 173 210 199 q 283 132 253 147 q 351 117 314 117 m 497 836 l 400 861 l 506 1014 l 651 1014 l 497 836 z "},"ă":{"ha":854,"x_min":26,"x_max":818,"o":"m 285 -14 q 176 10 224 -14 q 94 74 128 33 q 44 169 61 114 q 26 286 26 224 q 59 457 26 375 q 147 601 92 539 q 275 701 203 664 q 426 739 347 739 q 559 697 506 739 q 635 589 613 654 l 664 725 l 818 725 l 701 181 q 699 169 700 174 q 699 160 699 164 q 731 131 699 132 l 703 0 q 667 -5 683 -3 q 640 -7 651 -7 q 550 65 550 -7 q 560 132 550 88 q 432 24 507 61 q 285 -14 357 -14 m 351 117 q 410 128 379 117 q 472 158 442 139 q 526 204 501 178 q 567 261 551 231 l 606 451 q 587 513 601 485 q 550 563 572 542 q 501 597 528 585 q 446 608 475 608 q 347 582 393 608 q 265 514 300 556 q 208 419 229 472 q 188 311 188 365 q 199 234 188 269 q 231 173 210 199 q 283 132 253 147 q 351 117 314 117 m 478 915 q 535 943 507 915 q 575 1014 563 971 l 660 1014 q 633 947 651 978 q 588 892 614 915 q 529 857 561 869 q 463 844 497 844 q 367 880 403 844 q 332 974 332 915 q 333 994 332 985 q 338 1014 335 1004 l 422 1014 q 420 1001 421 1007 q 419 989 419 996 q 435 937 419 958 q 478 915 451 915 z "},"â":{"ha":854,"x_min":26,"x_max":818,"o":"m 285 -14 q 176 10 224 -14 q 94 74 128 33 q 44 169 61 114 q 26 286 26 224 q 59 457 26 375 q 147 601 92 539 q 275 701 203 664 q 426 739 347 739 q 559 697 506 739 q 635 589 613 654 l 664 725 l 818 725 l 701 181 q 699 169 700 174 q 699 160 699 164 q 731 131 699 132 l 703 0 q 667 -5 683 -3 q 640 -7 651 -7 q 550 65 550 -7 q 560 132 550 88 q 432 24 507 61 q 285 -14 357 -14 m 351 117 q 410 128 379 117 q 472 158 442 139 q 526 204 501 178 q 567 261 551 231 l 606 451 q 587 513 601 485 q 550 563 572 542 q 501 597 528 585 q 446 608 475 608 q 347 582 393 608 q 265 514 300 556 q 208 419 229 472 q 188 311 188 365 q 199 234 188 269 q 231 173 210 199 q 283 132 253 147 q 351 117 314 117 m 289 882 l 454 1014 l 565 1014 l 674 882 l 585 843 l 492 931 l 361 843 l 289 882 z "},"ä":{"ha":854,"x_min":26,"x_max":818,"o":"m 285 -14 q 176 10 224 -14 q 94 74 128 33 q 44 169 61 114 q 26 286 26 224 q 59 457 26 375 q 147 601 92 539 q 275 701 203 664 q 426 739 347 739 q 559 697 506 739 q 635 589 613 654 l 664 725 l 818 725 l 701 181 q 699 169 700 174 q 699 160 699 164 q 731 131 699 132 l 703 0 q 667 -5 683 -3 q 640 -7 651 -7 q 550 65 550 -7 q 560 132 550 88 q 432 24 507 61 q 285 -14 357 -14 m 351 117 q 410 128 379 117 q 472 158 442 139 q 526 204 501 178 q 567 261 551 231 l 606 451 q 587 513 601 485 q 550 563 572 542 q 501 597 528 585 q 446 608 475 608 q 347 582 393 608 q 265 514 300 556 q 208 419 229 472 q 188 311 188 365 q 199 234 188 269 q 231 173 210 199 q 283 132 253 147 q 351 117 314 117 m 293 854 l 326 1007 l 453 1007 l 421 854 l 293 854 m 532 854 l 564 1007 l 690 1007 l 658 854 l 532 854 z "},"æ":{"ha":1238,"x_min":-11,"x_max":1203,"o":"m 183 -14 q 40 40 92 -14 q -11 174 -11 93 q 16 282 -11 232 q 90 367 43 332 q 199 423 136 403 q 335 443 263 443 q 419 436 379 443 q 492 415 460 429 q 511 471 500 447 q 522 522 522 494 q 488 600 522 569 q 388 631 454 631 q 276 609 333 631 q 153 547 219 588 l 126 644 q 426 739 282 739 q 563 708 510 739 q 640 621 617 678 q 767 706 696 674 q 918 739 838 739 q 1040 715 988 739 q 1129 650 1093 692 q 1184 553 1165 608 q 1203 435 1203 497 q 1194 355 1203 385 q 1179 313 1185 325 l 622 313 q 618 275 618 293 q 666 147 618 194 q 788 99 714 99 q 846 106 817 99 q 901 128 875 114 q 950 164 928 143 q 988 210 972 185 l 1111 172 q 1047 98 1085 132 q 964 39 1010 64 q 866 0 918 14 q 760 -14 814 -14 q 597 28 663 -14 q 499 140 531 69 q 426 69 467 99 q 342 22 385 40 q 258 -6 299 3 q 183 -14 217 -14 m 250 99 q 313 108 279 99 q 378 134 347 118 q 435 172 410 150 q 471 217 460 193 q 467 257 467 233 q 469 294 467 275 q 474 331 471 314 q 409 349 444 342 q 342 356 374 356 q 261 344 299 356 q 197 313 224 333 q 154 265 169 293 q 139 204 139 238 q 167 129 139 160 q 250 99 194 99 m 1049 410 q 1053 450 1053 431 q 1009 578 1053 529 q 890 626 965 626 q 809 610 849 626 q 736 565 769 594 q 678 497 703 536 q 639 410 653 457 l 1049 410 z "},"ǽ":{"ha":1235,"x_min":-14,"x_max":1200,"o":"m 721 836 l 624 861 l 729 1014 l 875 1014 l 721 836 m 181 -14 q 38 40 89 -14 q -14 174 -14 93 q 13 282 -14 232 q 87 367 40 332 q 197 423 133 403 q 332 443 260 443 q 417 436 376 443 q 489 415 457 429 q 508 471 497 447 q 519 522 519 494 q 485 600 519 569 q 385 631 451 631 q 274 609 331 631 q 150 547 217 588 l 124 644 q 424 739 279 739 q 560 708 507 739 q 638 621 614 678 q 764 706 693 674 q 915 739 835 739 q 1038 715 985 739 q 1126 650 1090 692 q 1181 553 1163 608 q 1200 435 1200 497 q 1191 355 1200 385 q 1176 313 1182 325 l 619 313 q 615 275 615 293 q 663 147 615 194 q 785 99 711 99 q 843 106 814 99 q 899 128 872 114 q 947 164 925 143 q 985 210 969 185 l 1108 172 q 1044 98 1082 132 q 961 39 1007 64 q 863 0 915 14 q 757 -14 811 -14 q 594 28 660 -14 q 496 140 528 69 q 423 69 464 99 q 339 22 382 40 q 255 -6 296 3 q 181 -14 214 -14 m 247 99 q 310 108 276 99 q 376 134 344 118 q 432 172 407 150 q 468 217 457 193 q 464 257 464 233 q 466 294 464 275 q 471 331 468 314 q 406 349 442 342 q 339 356 371 356 q 258 344 296 356 q 194 313 221 333 q 151 265 167 293 q 136 204 136 238 q 164 129 136 160 q 247 99 192 99 m 1046 410 q 1050 450 1050 431 q 1006 578 1050 529 q 888 626 963 626 q 806 610 846 626 q 733 565 767 594 q 675 497 700 536 q 636 410 650 457 l 1046 410 z "},"à":{"ha":854,"x_min":26,"x_max":818,"o":"m 285 -14 q 176 10 224 -14 q 94 74 128 33 q 44 169 61 114 q 26 286 26 224 q 59 457 26 375 q 147 601 92 539 q 275 701 203 664 q 426 739 347 739 q 559 697 506 739 q 635 589 613 654 l 664 725 l 818 725 l 701 181 q 699 169 700 174 q 699 160 699 164 q 731 131 699 132 l 703 0 q 667 -5 683 -3 q 640 -7 651 -7 q 550 65 550 -7 q 560 132 550 88 q 432 24 507 61 q 285 -14 357 -14 m 351 117 q 410 128 379 117 q 472 158 442 139 q 526 204 501 178 q 567 261 551 231 l 606 451 q 587 513 601 485 q 550 563 572 542 q 501 597 528 585 q 446 608 475 608 q 347 582 393 608 q 265 514 300 556 q 208 419 229 472 q 188 311 188 365 q 199 234 188 269 q 231 173 210 199 q 283 132 253 147 q 351 117 314 117 m 347 1014 l 492 1014 l 533 861 l 428 835 l 347 1014 z "},"ā":{"ha":854,"x_min":26,"x_max":818,"o":"m 285 -14 q 176 10 224 -14 q 94 74 128 33 q 44 169 61 114 q 26 286 26 224 q 59 457 26 375 q 147 601 92 539 q 275 701 203 664 q 426 739 347 739 q 559 697 506 739 q 635 589 613 654 l 664 725 l 818 725 l 701 181 q 699 169 700 174 q 699 160 699 164 q 731 131 699 132 l 703 0 q 667 -5 683 -3 q 640 -7 651 -7 q 550 65 550 -7 q 560 132 550 88 q 432 24 507 61 q 285 -14 357 -14 m 351 117 q 410 128 379 117 q 472 158 442 139 q 526 204 501 178 q 567 261 551 231 l 606 451 q 587 513 601 485 q 550 563 572 542 q 501 597 528 585 q 446 608 475 608 q 347 582 393 608 q 265 514 300 556 q 208 419 229 472 q 188 311 188 365 q 199 234 188 269 q 231 173 210 199 q 283 132 253 147 q 351 117 314 117 m 300 892 l 319 989 l 713 989 l 692 892 l 300 892 z "},"&":{"ha":950,"x_min":22,"x_max":919,"o":"m 557 114 q 414 19 489 51 q 264 -14 339 -14 q 163 4 208 -14 q 87 54 118 22 q 39 128 56 86 q 22 221 22 171 q 42 324 22 278 q 96 410 63 371 q 173 481 129 449 q 265 544 217 514 q 212 647 229 603 q 194 733 194 692 q 219 838 194 789 q 285 922 243 886 q 381 978 326 958 q 496 999 436 999 q 636 958 575 999 q 725 838 697 917 l 619 764 q 563 851 601 818 q 476 885 524 885 q 424 874 449 885 q 379 847 399 864 q 349 806 360 829 q 338 758 338 783 q 356 692 338 731 q 422 583 374 653 l 592 338 q 640 450 619 390 q 671 578 660 510 l 919 578 l 899 464 l 774 464 q 663 236 732 335 l 828 0 l 635 0 l 557 114 m 300 106 q 401 131 350 106 q 496 203 451 157 l 331 447 q 213 351 256 400 q 171 238 171 303 q 208 140 171 174 q 300 106 246 106 z "},"ą":{"ha":854,"x_min":26,"x_max":818,"o":"m 588 -261 q 501 -225 529 -251 q 474 -164 474 -199 q 506 -83 474 -124 q 606 -3 538 -43 q 550 65 550 10 q 560 132 550 88 q 432 24 507 61 q 285 -14 357 -14 q 176 10 224 -14 q 94 74 128 33 q 44 169 61 114 q 26 286 26 224 q 59 457 26 375 q 147 601 92 539 q 275 701 203 664 q 426 739 347 739 q 559 697 506 739 q 635 589 613 654 l 664 725 l 818 725 l 701 181 q 699 169 700 174 q 699 160 699 164 q 731 131 699 132 l 703 0 q 601 -72 632 -40 q 571 -132 571 -103 q 638 -181 571 -176 l 588 -261 m 351 117 q 410 128 379 117 q 472 158 442 139 q 526 204 501 178 q 567 261 551 231 l 606 451 q 587 513 601 485 q 550 563 572 542 q 501 597 528 585 q 446 608 475 608 q 347 582 393 608 q 265 514 300 556 q 208 419 229 472 q 188 311 188 365 q 199 234 188 269 q 231 173 210 199 q 283 132 253 147 q 351 117 314 117 z "},"ʼ":{"ha":735,"x_min":361,"x_max":613,"o":"m 361 861 l 428 956 l 433 1014 l 613 1014 l 453 831 l 361 861 z "},"å":{"ha":854,"x_min":26,"x_max":818,"o":"m 285 -14 q 176 10 224 -14 q 94 74 128 33 q 44 169 61 114 q 26 286 26 224 q 59 457 26 375 q 147 601 92 539 q 275 701 203 664 q 426 739 347 739 q 559 697 506 739 q 635 589 613 654 l 664 725 l 818 725 l 701 181 q 699 169 700 174 q 699 160 699 164 q 731 131 699 132 l 703 0 q 667 -5 683 -3 q 640 -7 651 -7 q 550 65 550 -7 q 560 132 550 88 q 432 24 507 61 q 285 -14 357 -14 m 351 117 q 410 128 379 117 q 472 158 442 139 q 526 204 501 178 q 567 261 551 231 l 606 451 q 587 513 601 485 q 550 563 572 542 q 501 597 528 585 q 446 608 475 608 q 347 582 393 608 q 265 514 300 556 q 208 419 229 472 q 188 311 188 365 q 199 234 188 269 q 231 173 210 199 q 283 132 253 147 q 351 117 314 117 m 361 893 q 403 981 361 949 q 506 1014 444 1014 q 580 992 554 1014 q 606 932 606 971 q 565 844 606 878 q 463 811 525 811 q 388 833 415 811 q 361 893 361 856 m 494 964 q 450 947 469 964 q 431 904 431 931 q 442 874 431 886 q 474 861 454 861 q 518 878 497 861 q 539 922 539 896 q 526 953 539 942 q 494 964 514 964 z "},"ǻ":{"ha":854,"x_min":26,"x_max":818,"o":"m 285 -14 q 176 10 224 -14 q 94 74 128 33 q 44 169 61 114 q 26 286 26 224 q 59 457 26 375 q 147 601 92 539 q 275 701 203 664 q 426 739 347 739 q 559 697 506 739 q 635 589 613 654 l 664 725 l 818 725 l 701 181 q 699 169 700 174 q 699 160 699 164 q 731 131 699 132 l 703 0 q 667 -5 683 -3 q 640 -7 651 -7 q 550 65 550 -7 q 560 132 550 88 q 432 24 507 61 q 285 -14 357 -14 m 351 117 q 410 128 379 117 q 472 158 442 139 q 526 204 501 178 q 567 261 551 231 l 606 451 q 587 513 601 485 q 550 563 572 542 q 501 597 528 585 q 446 608 475 608 q 347 582 393 608 q 265 514 300 556 q 208 419 229 472 q 188 311 188 365 q 199 234 188 269 q 231 173 210 199 q 283 132 253 147 q 351 117 314 117 m 544 1053 l 447 1078 l 553 1231 l 699 1231 l 544 1053 m 358 893 q 400 981 358 949 q 503 1014 442 1014 q 577 992 551 1014 q 603 932 603 971 q 563 844 603 878 q 460 811 522 811 q 385 833 413 811 q 358 893 358 856 m 492 964 q 447 947 467 964 q 428 904 428 931 q 440 874 428 886 q 471 861 451 861 q 515 878 494 861 q 536 922 536 896 q 524 953 536 942 q 492 964 511 964 z "},"^":{"ha":794,"x_min":68,"x_max":746,"o":"m 68 421 l 343 986 l 472 986 l 746 421 l 618 421 l 408 854 l 193 421 l 68 421 z "},"~":{"ha":735,"x_min":63,"x_max":668,"o":"m 63 322 q 77 360 64 332 q 115 417 90 388 q 177 469 140 446 q 263 492 214 492 q 324 480 297 492 q 376 453 351 468 q 424 427 400 439 q 478 415 449 415 q 524 426 504 415 q 557 449 544 436 q 576 472 569 461 q 582 486 582 483 l 668 486 q 654 454 667 481 q 616 399 642 428 q 552 346 590 369 q 463 322 514 322 q 400 334 428 322 q 348 360 372 346 q 299 387 324 375 q 249 399 275 399 q 203 387 222 399 q 173 361 185 375 q 156 335 161 347 q 150 322 150 324 l 63 322 l 63 322 z "},"*":{"ha":457,"x_min":169,"x_max":472,"o":"m 175 736 l 254 829 l 169 860 l 206 929 l 290 889 l 307 994 l 390 994 l 363 889 l 467 929 l 472 860 l 374 829 l 414 736 l 344 694 l 307 793 l 226 694 l 175 736 z "},"@":{"ha":1126,"x_min":31,"x_max":1044,"o":"m 796 50 q 871 88 838 50 q 928 181 904 125 q 964 300 951 236 q 976 417 976 364 q 954 551 976 486 q 888 665 932 615 q 778 744 843 714 q 628 774 713 774 q 431 731 526 774 q 262 615 336 689 q 143 442 188 542 q 99 228 99 342 q 122 81 99 149 q 187 -35 144 14 q 291 -111 229 -83 q 431 -139 353 -139 q 537 -124 486 -139 q 644 -86 588 -110 l 651 -147 q 533 -189 592 -175 q 417 -203 474 -203 q 260 -172 331 -203 q 138 -86 189 -142 q 58 47 86 -31 q 31 221 31 125 q 85 469 31 356 q 226 665 139 583 q 422 792 313 746 q 644 838 532 838 q 813 805 739 838 q 939 717 888 772 q 1017 589 990 663 q 1044 435 1044 515 q 1038 347 1044 396 q 1017 248 1031 299 q 981 149 1003 197 q 929 62 960 100 q 859 1 899 24 q 771 -22 819 -22 q 699 -1 728 -22 q 671 69 671 21 q 671 83 671 76 q 674 97 671 90 q 566 24 625 51 q 446 -3 507 -3 q 353 17 394 -3 q 284 72 313 38 q 240 153 256 107 q 225 253 225 200 q 253 398 225 328 q 330 522 282 468 q 439 607 378 575 q 567 639 500 639 q 685 603 639 639 q 749 513 731 567 l 771 625 l 857 625 l 757 149 q 753 123 754 135 q 751 103 751 111 q 796 50 751 50 m 485 78 q 547 90 517 78 q 604 122 578 101 q 651 170 631 143 q 685 228 672 197 l 715 413 q 656 518 697 483 q 563 553 615 553 q 478 531 521 553 q 400 471 435 508 q 344 382 365 433 q 322 272 322 331 q 334 194 322 231 q 368 133 346 158 q 419 92 390 107 q 485 78 449 78 z "},"ã":{"ha":854,"x_min":26,"x_max":818,"o":"m 285 -14 q 176 10 224 -14 q 94 74 128 33 q 44 169 61 114 q 26 286 26 224 q 59 457 26 375 q 147 601 92 539 q 275 701 203 664 q 426 739 347 739 q 559 697 506 739 q 635 589 613 654 l 664 725 l 818 725 l 701 181 q 699 169 700 174 q 699 160 699 164 q 731 131 699 132 l 703 0 q 667 -5 683 -3 q 640 -7 651 -7 q 550 65 550 -7 q 560 132 550 88 q 432 24 507 61 q 285 -14 357 -14 m 351 117 q 410 128 379 117 q 472 158 442 139 q 526 204 501 178 q 567 261 551 231 l 606 451 q 587 513 601 485 q 550 563 572 542 q 501 597 528 585 q 446 608 475 608 q 347 582 393 608 q 265 514 300 556 q 208 419 229 472 q 188 311 188 365 q 199 234 188 269 q 231 173 210 199 q 283 132 253 147 q 351 117 314 117 m 553 854 q 503 863 524 854 q 465 884 482 872 q 432 905 449 896 q 393 914 415 914 q 356 904 371 914 q 333 883 342 894 q 320 860 324 871 q 317 847 317 849 l 229 847 q 244 885 232 858 q 280 938 257 911 q 335 986 303 965 q 408 1007 367 1007 q 457 997 438 1007 q 493 976 476 988 q 526 956 510 965 q 567 946 543 946 q 608 956 592 946 q 634 978 624 965 q 649 1001 644 990 q 654 1014 654 1011 l 740 1014 q 725 979 738 1006 q 689 925 713 953 q 631 876 665 897 q 553 854 597 854 z "},"b":{"ha":840,"x_min":0,"x_max":790,"o":"m 378 -14 q 240 26 294 -14 q 163 132 186 65 l 135 0 l 0 0 l 215 1014 l 368 1014 l 279 589 q 402 698 332 657 q 551 739 472 739 q 655 715 610 739 q 730 651 700 692 q 775 558 760 611 q 790 444 790 504 q 756 268 790 351 q 663 122 721 185 q 531 23 606 60 q 378 -14 457 -14 m 369 117 q 466 142 419 117 q 549 208 513 167 q 608 303 586 249 q 629 415 629 357 q 619 489 629 454 q 590 550 610 524 q 542 592 571 576 q 476 608 514 608 q 413 596 444 608 q 351 562 381 583 q 297 512 322 540 q 250 451 271 483 l 208 260 q 258 158 213 199 q 369 117 303 117 z "},"\\":{"ha":804,"x_min":150,"x_max":685,"o":"m 321 986 l 685 0 l 515 0 l 150 986 l 321 986 z "},"|":{"ha":436,"x_min":160,"x_max":290,"o":"m 160 -181 l 160 1076 l 290 1076 l 290 -181 l 160 -181 z "},"{":{"ha":396,"x_min":32,"x_max":464,"o":"m 364 904 l 297 593 q 276 544 292 569 q 235 500 260 519 q 260 429 260 472 q 260 419 260 424 q 258 407 260 414 l 189 81 l 261 81 l 236 -43 l 56 -43 q 40 -37 47 -43 q 32 -17 32 -32 q 33 -1 32 -7 l 110 360 q 111 381 111 367 q 99 425 111 407 q 67 447 88 443 l 90 556 q 117 564 104 556 q 142 585 131 572 q 160 613 153 599 q 171 640 168 628 l 243 986 q 263 1020 249 1013 q 283 1028 276 1028 l 464 1028 l 436 904 l 364 904 z "},"}":{"ha":397,"x_min":-33,"x_max":397,"o":"m 168 904 l 194 1028 l 374 1028 q 389 1022 381 1028 q 397 999 397 1017 q 396 986 397 990 l 322 640 q 319 622 319 629 q 331 577 319 599 q 367 556 343 556 l 343 447 q 292 417 315 442 q 263 360 269 393 l 186 -1 q 168 -34 181 -25 q 146 -43 156 -43 l -33 -43 l -7 81 l 65 81 l 135 407 q 156 456 140 431 q 196 500 172 481 q 172 569 172 531 q 172 581 172 576 q 175 593 172 586 l 240 904 l 168 904 z "},"[":{"ha":392,"x_min":8,"x_max":460,"o":"m 8 -56 l 239 1028 l 460 1028 l 435 904 l 353 904 l 175 68 l 257 68 l 231 -56 l 8 -56 z "},"]":{"ha":393,"x_min":-39,"x_max":414,"o":"m -39 -56 l -12 68 l 68 68 l 246 904 l 165 904 l 192 1028 l 414 1028 l 185 -56 l -39 -56 z "},"¦":{"ha":428,"x_min":156,"x_max":286,"o":"m 286 374 l 286 -181 l 156 -181 l 156 374 l 286 374 m 286 1076 l 286 522 l 156 522 l 156 1076 l 286 1076 z "},"•":{"ha":485,"x_min":118,"x_max":390,"o":"m 390 507 q 376 446 390 475 q 339 394 363 417 q 285 359 315 372 q 225 346 256 346 q 148 378 178 346 q 118 460 118 411 q 133 521 118 492 q 170 572 147 550 q 223 608 193 594 q 283 621 253 621 q 361 588 332 621 q 390 507 390 556 z "},"c":{"ha":744,"x_min":26,"x_max":738,"o":"m 315 -14 q 192 10 246 -14 q 101 76 138 35 q 45 174 64 118 q 26 292 26 229 q 60 460 26 379 q 155 602 94 540 q 297 701 215 664 q 474 739 378 739 q 649 690 582 739 q 738 558 715 640 l 579 511 q 528 583 564 557 q 443 608 493 608 q 347 585 393 608 q 264 522 300 563 q 206 426 228 481 q 185 310 185 372 q 196 233 185 268 q 228 172 207 197 q 277 131 249 146 q 340 117 306 117 q 393 124 367 117 q 444 146 419 132 q 488 178 468 160 q 519 217 507 196 l 660 172 q 598 98 635 132 q 517 39 561 64 q 421 0 472 14 q 315 -14 369 -14 z "},"ć":{"ha":744,"x_min":26,"x_max":738,"o":"m 493 836 l 396 861 l 501 1014 l 647 1014 l 493 836 m 315 -14 q 192 10 246 -14 q 101 76 138 35 q 45 174 64 118 q 26 292 26 229 q 60 460 26 379 q 155 602 94 540 q 297 701 215 664 q 474 739 378 739 q 649 690 582 739 q 738 558 715 640 l 579 511 q 528 583 564 557 q 443 608 493 608 q 347 585 393 608 q 264 522 300 563 q 206 426 228 481 q 185 310 185 372 q 196 233 185 268 q 228 172 207 197 q 277 131 249 146 q 340 117 306 117 q 393 124 367 117 q 444 146 419 132 q 488 178 468 160 q 519 217 507 196 l 660 172 q 598 98 635 132 q 517 39 561 64 q 421 0 472 14 q 315 -14 369 -14 z "},"č":{"ha":744,"x_min":26,"x_max":738,"o":"m 324 975 l 413 1014 l 506 926 l 636 1014 l 708 975 l 543 843 l 432 843 l 324 975 m 315 -14 q 192 10 246 -14 q 101 76 138 35 q 45 174 64 118 q 26 292 26 229 q 60 460 26 379 q 155 602 94 540 q 297 701 215 664 q 474 739 378 739 q 649 690 582 739 q 738 558 715 640 l 579 511 q 528 583 564 557 q 443 608 493 608 q 347 585 393 608 q 264 522 300 563 q 206 426 228 481 q 185 310 185 372 q 196 233 185 268 q 228 172 207 197 q 277 131 249 146 q 340 117 306 117 q 393 124 367 117 q 444 146 419 132 q 488 178 468 160 q 519 217 507 196 l 660 172 q 598 98 635 132 q 517 39 561 64 q 421 0 472 14 q 315 -14 369 -14 z "},"ç":{"ha":744,"x_min":26,"x_max":738,"o":"m 165 -175 q 210 -194 179 -185 q 275 -203 240 -203 q 339 -190 315 -203 q 363 -146 363 -176 q 346 -117 363 -125 q 303 -108 329 -108 q 243 -114 275 -108 q 193 -125 211 -119 l 274 -11 q 167 22 214 -4 q 90 89 121 49 q 42 181 58 129 q 26 292 26 233 q 60 460 26 379 q 155 602 94 540 q 297 701 215 664 q 474 739 378 739 q 649 690 582 739 q 738 558 715 640 l 579 511 q 528 583 564 557 q 443 608 493 608 q 347 585 393 608 q 264 522 300 563 q 206 426 228 481 q 185 310 185 372 q 196 233 185 268 q 228 172 207 197 q 277 131 249 146 q 340 117 306 117 q 393 124 367 117 q 444 146 419 132 q 488 178 468 160 q 519 217 507 196 l 660 172 q 528 45 611 96 q 343 -12 444 -6 l 301 -62 q 324 -58 313 -60 q 346 -57 336 -57 q 412 -75 386 -57 q 438 -131 438 -93 q 391 -225 438 -187 q 251 -262 344 -262 q 176 -254 210 -262 q 119 -235 143 -246 l 165 -175 z "},"ĉ":{"ha":744,"x_min":26,"x_max":738,"o":"m 311 882 l 476 1014 l 588 1014 l 696 882 l 607 843 l 514 931 l 383 843 l 311 882 m 315 -14 q 192 10 246 -14 q 101 76 138 35 q 45 174 64 118 q 26 292 26 229 q 60 460 26 379 q 155 602 94 540 q 297 701 215 664 q 474 739 378 739 q 649 690 582 739 q 738 558 715 640 l 579 511 q 528 583 564 557 q 443 608 493 608 q 347 585 393 608 q 264 522 300 563 q 206 426 228 481 q 185 310 185 372 q 196 233 185 268 q 228 172 207 197 q 277 131 249 146 q 340 117 306 117 q 393 124 367 117 q 444 146 419 132 q 488 178 468 160 q 519 217 507 196 l 660 172 q 598 98 635 132 q 517 39 561 64 q 421 0 472 14 q 315 -14 369 -14 z "},"ċ":{"ha":744,"x_min":26,"x_max":738,"o":"m 315 -14 q 192 10 246 -14 q 101 76 138 35 q 45 174 64 118 q 26 292 26 229 q 60 460 26 379 q 155 602 94 540 q 297 701 215 664 q 474 739 378 739 q 649 690 582 739 q 738 558 715 640 l 579 511 q 528 583 564 557 q 443 608 493 608 q 347 585 393 608 q 264 522 300 563 q 206 426 228 481 q 185 310 185 372 q 196 233 185 268 q 228 172 207 197 q 277 131 249 146 q 340 117 306 117 q 393 124 367 117 q 444 146 419 132 q 488 178 468 160 q 519 217 507 196 l 660 172 q 598 98 635 132 q 517 39 561 64 q 421 0 472 14 q 315 -14 369 -14 m 426 854 l 461 1014 l 597 1014 l 564 854 l 426 854 z "},"¢":{"ha":776,"x_min":38,"x_max":751,"o":"m 246 -167 l 279 -12 q 177 19 222 -8 q 101 90 132 47 q 53 185 69 132 q 38 293 38 238 q 67 444 38 369 q 148 580 96 518 q 274 683 200 642 q 438 738 347 725 l 472 896 l 542 896 l 508 738 q 665 688 603 735 q 751 558 728 642 l 593 511 q 551 577 581 554 q 481 603 521 600 l 378 121 q 422 131 399 124 q 466 151 444 139 q 506 181 488 164 q 533 217 524 197 l 674 172 q 604 91 646 126 q 517 33 563 56 q 428 -2 472 10 q 349 -14 383 -14 l 317 -167 l 246 -167 m 196 308 q 226 193 196 244 q 308 128 256 142 l 408 597 q 324 560 363 589 q 256 491 285 532 q 212 402 228 450 q 196 308 196 354 z "},":":{"ha":306,"x_min":0,"x_max":279,"o":"m 115 543 l 153 719 l 279 719 l 242 543 l 115 543 m 0 0 l 39 178 l 164 178 l 126 0 l 0 0 z "},",":{"ha":303,"x_min":-15,"x_max":169,"o":"m -15 -135 l 47 8 l -1 8 l 33 178 l 169 178 l 135 8 l 56 -135 l -15 -135 z "},"©":{"ha":1183,"x_min":88,"x_max":1128,"o":"m 604 -10 q 398 28 493 -10 q 234 134 303 67 q 126 293 165 201 q 88 493 88 385 q 126 692 88 600 q 234 850 165 783 q 398 955 303 917 q 604 993 493 993 q 813 955 717 993 q 978 850 908 917 q 1088 692 1049 783 q 1128 493 1128 600 q 1088 293 1128 385 q 978 134 1049 201 q 813 28 908 67 q 604 -10 717 -10 m 604 51 q 784 83 700 51 q 929 174 868 115 q 1026 313 990 232 q 1061 490 1061 393 q 1026 665 1061 585 q 931 806 992 746 q 786 899 869 865 q 604 932 703 932 q 424 899 507 932 q 281 806 342 865 q 187 665 221 746 q 153 492 153 585 q 187 318 153 399 q 281 178 221 238 q 424 85 342 119 q 604 51 507 51 m 615 165 q 481 190 543 165 q 372 258 418 214 q 301 362 326 301 q 275 493 275 422 q 296 613 275 554 q 358 719 317 672 q 463 794 400 765 q 610 822 526 822 q 790 777 714 822 q 903 653 867 732 l 756 606 q 726 647 743 631 q 689 673 708 664 q 649 686 669 682 q 610 690 628 690 q 533 674 567 690 q 477 630 500 657 q 442 567 454 603 q 431 493 431 531 q 447 409 431 446 q 490 347 464 372 q 548 309 515 322 q 613 296 581 296 q 699 319 657 296 q 761 383 742 342 l 910 339 q 869 276 896 307 q 806 220 843 244 q 720 181 768 196 q 615 165 672 165 z "},"d":{"ha":853,"x_min":26,"x_max":879,"o":"m 285 -14 q 176 10 224 -14 q 94 74 128 33 q 44 169 61 114 q 26 286 26 224 q 59 457 26 375 q 147 601 92 539 q 275 701 203 664 q 426 739 347 739 q 559 697 506 739 q 635 589 613 654 l 725 1014 l 879 1014 l 701 181 q 699 169 700 174 q 699 160 699 164 q 731 131 699 132 l 703 0 q 667 -5 683 -3 q 640 -7 651 -7 q 573 12 597 -7 q 549 64 549 31 q 551 90 549 75 q 560 132 553 106 q 432 24 507 61 q 285 -14 357 -14 m 351 117 q 410 128 379 117 q 472 158 442 139 q 526 204 501 178 q 567 261 551 231 l 606 451 q 587 513 601 485 q 550 563 572 542 q 501 597 528 585 q 446 608 475 608 q 347 582 393 608 q 265 514 300 556 q 208 419 229 472 q 188 311 188 365 q 199 234 188 269 q 231 173 210 199 q 283 132 253 147 q 351 117 314 117 z "},"†":{"ha":596,"x_min":28,"x_max":550,"o":"m 99 -181 l 201 307 l 28 307 l 57 446 l 231 446 l 365 1076 l 511 1076 l 376 446 l 550 446 l 521 307 l 347 307 l 244 -181 l 99 -181 z "},"‡":{"ha":603,"x_min":3,"x_max":586,"o":"m 103 -181 l 176 171 l 3 171 l 32 308 l 206 308 l 239 464 l 65 464 l 94 601 l 268 601 l 369 1076 l 515 1076 l 414 601 l 586 601 l 557 464 l 385 464 l 351 308 l 525 308 l 496 171 l 322 171 l 249 -181 l 103 -181 z "},"ď":{"ha":853,"x_min":26,"x_max":1158,"o":"m 908 861 l 1014 1014 l 1158 1014 l 1000 831 l 908 861 m 285 -14 q 176 10 224 -14 q 94 74 128 33 q 44 169 61 114 q 26 286 26 224 q 59 457 26 375 q 147 601 92 539 q 275 701 203 664 q 426 739 347 739 q 559 697 506 739 q 635 589 613 654 l 725 1014 l 879 1014 l 701 181 q 699 169 700 174 q 699 160 699 164 q 731 131 699 132 l 703 0 q 667 -5 683 -3 q 640 -7 651 -7 q 573 12 597 -7 q 549 64 549 31 q 551 90 549 75 q 560 132 553 106 q 432 24 507 61 q 285 -14 357 -14 m 351 117 q 410 128 379 117 q 472 158 442 139 q 526 204 501 178 q 567 261 551 231 l 606 451 q 587 513 601 485 q 550 563 572 542 q 501 597 528 585 q 446 608 475 608 q 347 582 393 608 q 265 514 300 556 q 208 419 229 472 q 188 311 188 365 q 199 234 188 269 q 231 173 210 199 q 283 132 253 147 q 351 117 314 117 z "},"đ":{"ha":853,"x_min":26,"x_max":961,"o":"m 585 922 l 706 922 l 725 1014 l 879 1014 l 860 922 l 961 922 l 942 828 l 839 828 l 701 181 q 699 169 700 174 q 699 160 699 164 q 731 131 699 132 l 703 0 q 667 -5 683 -3 q 640 -7 651 -7 q 573 13 596 -7 q 550 64 550 32 q 551 90 550 72 q 560 132 553 107 q 432 24 507 61 q 285 -14 357 -14 q 176 10 224 -14 q 94 74 128 33 q 44 169 61 114 q 26 286 26 224 q 59 457 26 375 q 147 601 92 539 q 275 701 203 664 q 426 739 347 739 q 559 697 506 739 q 635 589 613 654 l 685 828 l 565 828 l 585 922 m 351 117 q 410 128 379 117 q 472 158 442 139 q 526 204 501 178 q 567 261 551 231 l 606 451 q 587 513 601 485 q 550 563 572 542 q 501 597 528 585 q 446 608 475 608 q 347 582 393 608 q 265 514 300 556 q 208 419 229 472 q 188 311 188 365 q 199 234 188 269 q 231 173 210 199 q 283 132 253 147 q 351 117 314 117 z "},"°":{"ha":376,"x_min":150,"x_max":414,"o":"m 253 740 q 178 769 207 740 q 150 844 150 799 q 163 903 150 875 q 197 955 175 932 q 247 992 218 978 q 310 1006 276 1006 q 386 975 358 1006 q 414 900 414 944 q 401 838 414 867 q 366 787 388 808 q 315 753 344 765 q 253 740 286 740 m 269 818 q 314 838 293 818 q 335 883 335 857 q 324 916 335 904 q 293 928 313 928 q 249 908 269 928 q 228 864 228 889 q 239 831 228 843 q 269 818 250 818 z "},"÷":{"ha":732,"x_min":82,"x_max":642,"o":"m 297 571 l 297 731 l 428 731 l 428 571 l 297 571 m 297 81 l 297 239 l 428 239 l 428 81 l 297 81 m 82 344 l 82 467 l 642 467 l 642 344 l 82 344 z "},"$":{"ha":838,"x_min":-15,"x_max":843,"o":"m 746 754 q 718 784 738 768 q 672 815 699 800 q 610 840 644 829 q 539 853 576 850 l 478 567 q 572 536 522 551 q 663 496 621 521 q 731 431 704 471 q 758 328 758 390 q 726 180 758 242 q 640 76 694 118 q 515 14 586 35 q 367 -10 444 -7 l 336 -156 l 265 -156 l 297 -7 q 124 33 204 0 q -15 124 43 65 l 86 257 q 119 221 96 240 q 175 183 143 201 q 248 151 207 165 q 335 132 289 138 l 396 419 q 310 445 356 429 q 225 486 264 461 q 161 549 186 511 q 136 640 136 586 q 166 781 136 718 q 247 888 196 843 q 365 960 297 933 q 508 992 432 986 l 539 1132 l 610 1132 l 579 992 q 731 956 665 986 q 843 882 797 925 l 746 754 m 583 281 q 546 355 583 328 q 443 404 508 382 l 386 131 q 533 172 482 132 q 583 281 583 211 m 308 693 q 339 624 308 649 q 431 581 369 600 l 489 853 q 352 803 396 847 q 308 693 308 760 z "},"ı":{"ha":332,"x_min":0,"x_max":308,"o":"m 156 726 l 308 726 l 153 0 l 0 0 l 156 726 z "},"ȷ":{"ha":332,"x_min":-289,"x_max":308,"o":"m -133 -265 q -222 -250 -182 -265 q -289 -203 -261 -235 l -199 -100 q -166 -124 -186 -117 q -122 -132 -146 -132 q -50 -102 -85 -132 q -6 -26 -15 -72 l 154 726 l 308 726 l 150 -15 q 110 -117 138 -71 q 44 -196 82 -162 q -40 -247 6 -229 q -133 -265 -86 -265 z "},"e":{"ha":757,"x_min":28,"x_max":725,"o":"m 318 -14 q 195 10 249 -14 q 104 74 142 33 q 47 172 67 115 q 28 293 28 228 q 62 463 28 382 q 156 604 96 543 q 299 702 217 665 q 478 739 382 739 q 658 688 590 739 q 725 539 725 638 q 318 311 725 311 q 183 315 258 311 l 183 290 q 193 215 183 250 q 222 154 203 181 q 272 113 242 128 q 344 99 303 99 q 460 128 404 99 q 547 210 515 158 l 668 172 q 603 97 642 131 q 519 38 565 63 q 422 0 474 14 q 318 -14 371 -14 m 458 626 q 367 609 408 626 q 293 563 325 592 q 239 495 261 533 q 203 415 217 457 q 321 411 267 411 q 444 420 394 411 q 526 445 494 429 q 570 484 557 461 q 583 535 583 507 q 550 604 583 582 q 458 626 517 626 z "},"é":{"ha":757,"x_min":28,"x_max":725,"o":"m 496 836 l 399 861 l 504 1014 l 650 1014 l 496 836 m 318 -14 q 195 10 249 -14 q 104 74 142 33 q 47 172 67 115 q 28 293 28 228 q 62 463 28 382 q 156 604 96 543 q 299 702 217 665 q 478 739 382 739 q 658 688 590 739 q 725 539 725 638 q 318 311 725 311 q 183 315 258 311 l 183 290 q 193 215 183 250 q 222 154 203 181 q 272 113 242 128 q 344 99 303 99 q 460 128 404 99 q 547 210 515 158 l 668 172 q 603 97 642 131 q 519 38 565 63 q 422 0 474 14 q 318 -14 371 -14 m 458 626 q 367 609 408 626 q 293 563 325 592 q 239 495 261 533 q 203 415 217 457 q 321 411 267 411 q 444 420 394 411 q 526 445 494 429 q 570 484 557 461 q 583 535 583 507 q 550 604 583 582 q 458 626 517 626 z "},"ĕ":{"ha":757,"x_min":28,"x_max":725,"o":"m 318 -14 q 195 10 249 -14 q 104 74 142 33 q 47 172 67 115 q 28 293 28 228 q 62 463 28 382 q 156 604 96 543 q 299 702 217 665 q 478 739 382 739 q 658 688 590 739 q 725 539 725 638 q 318 311 725 311 q 183 315 258 311 l 183 290 q 193 215 183 250 q 222 154 203 181 q 272 113 242 128 q 344 99 303 99 q 460 128 404 99 q 547 210 515 158 l 668 172 q 603 97 642 131 q 519 38 565 63 q 422 0 474 14 q 318 -14 371 -14 m 458 626 q 367 609 408 626 q 293 563 325 592 q 239 495 261 533 q 203 415 217 457 q 321 411 267 411 q 444 420 394 411 q 526 445 494 429 q 570 484 557 461 q 583 535 583 507 q 550 604 583 582 q 458 626 517 626 m 496 915 q 553 943 525 915 q 593 1014 581 971 l 678 1014 q 651 947 669 978 q 606 892 632 915 q 547 857 579 869 q 481 844 515 844 q 385 880 421 844 q 350 974 350 915 q 351 994 350 985 q 356 1014 353 1004 l 440 1014 q 438 1001 439 1007 q 438 989 438 996 q 453 937 438 958 q 496 915 469 915 z "},"ě":{"ha":757,"x_min":28,"x_max":725,"o":"m 325 975 l 414 1014 l 507 926 l 638 1014 l 710 975 l 544 843 l 433 843 l 325 975 m 318 -14 q 195 10 249 -14 q 104 74 142 33 q 47 172 67 115 q 28 293 28 228 q 62 463 28 382 q 156 604 96 543 q 299 702 217 665 q 478 739 382 739 q 658 688 590 739 q 725 539 725 638 q 318 311 725 311 q 183 315 258 311 l 183 290 q 193 215 183 250 q 222 154 203 181 q 272 113 242 128 q 344 99 303 99 q 460 128 404 99 q 547 210 515 158 l 668 172 q 603 97 642 131 q 519 38 565 63 q 422 0 474 14 q 318 -14 371 -14 m 458 626 q 367 609 408 626 q 293 563 325 592 q 239 495 261 533 q 203 415 217 457 q 321 411 267 411 q 444 420 394 411 q 526 445 494 429 q 570 484 557 461 q 583 535 583 507 q 550 604 583 582 q 458 626 517 626 z "},"ê":{"ha":757,"x_min":28,"x_max":725,"o":"m 315 882 l 481 1014 l 592 1014 l 700 882 l 611 843 l 518 931 l 388 843 l 315 882 m 318 -14 q 195 10 249 -14 q 104 74 142 33 q 47 172 67 115 q 28 293 28 228 q 62 463 28 382 q 156 604 96 543 q 299 702 217 665 q 478 739 382 739 q 658 688 590 739 q 725 539 725 638 q 318 311 725 311 q 183 315 258 311 l 183 290 q 193 215 183 250 q 222 154 203 181 q 272 113 242 128 q 344 99 303 99 q 460 128 404 99 q 547 210 515 158 l 668 172 q 603 97 642 131 q 519 38 565 63 q 422 0 474 14 q 318 -14 371 -14 m 458 626 q 367 609 408 626 q 293 563 325 592 q 239 495 261 533 q 203 415 217 457 q 321 411 267 411 q 444 420 394 411 q 526 445 494 429 q 570 484 557 461 q 583 535 583 507 q 550 604 583 582 q 458 626 517 626 z "},"ë":{"ha":757,"x_min":28,"x_max":725,"o":"m 310 854 l 343 1007 l 469 1007 l 438 854 l 310 854 m 549 854 l 581 1007 l 707 1007 l 675 854 l 549 854 m 318 -14 q 195 10 249 -14 q 104 74 142 33 q 47 172 67 115 q 28 293 28 228 q 62 463 28 382 q 156 604 96 543 q 299 702 217 665 q 478 739 382 739 q 658 688 590 739 q 725 539 725 638 q 318 311 725 311 q 183 315 258 311 l 183 290 q 193 215 183 250 q 222 154 203 181 q 272 113 242 128 q 344 99 303 99 q 460 128 404 99 q 547 210 515 158 l 668 172 q 603 97 642 131 q 519 38 565 63 q 422 0 474 14 q 318 -14 371 -14 m 458 626 q 367 609 408 626 q 293 563 325 592 q 239 495 261 533 q 203 415 217 457 q 321 411 267 411 q 444 420 394 411 q 526 445 494 429 q 570 484 557 461 q 583 535 583 507 q 550 604 583 582 q 458 626 517 626 z "},"ė":{"ha":757,"x_min":28,"x_max":725,"o":"m 318 -14 q 195 10 249 -14 q 104 74 142 33 q 47 172 67 115 q 28 293 28 228 q 62 463 28 382 q 156 604 96 543 q 299 702 217 665 q 478 739 382 739 q 658 688 590 739 q 725 539 725 638 q 318 311 725 311 q 183 315 258 311 l 183 290 q 193 215 183 250 q 222 154 203 181 q 272 113 242 128 q 344 99 303 99 q 460 128 404 99 q 547 210 515 158 l 668 172 q 603 97 642 131 q 519 38 565 63 q 422 0 474 14 q 318 -14 371 -14 m 458 626 q 367 609 408 626 q 293 563 325 592 q 239 495 261 533 q 203 415 217 457 q 321 411 267 411 q 444 420 394 411 q 526 445 494 429 q 570 484 557 461 q 583 535 583 507 q 550 604 583 582 q 458 626 517 626 m 428 854 l 463 1014 l 599 1014 l 565 854 l 428 854 z "},"è":{"ha":757,"x_min":28,"x_max":725,"o":"m 318 -14 q 195 10 249 -14 q 104 74 142 33 q 47 172 67 115 q 28 293 28 228 q 62 463 28 382 q 156 604 96 543 q 299 702 217 665 q 478 739 382 739 q 658 688 590 739 q 725 539 725 638 q 318 311 725 311 q 183 315 258 311 l 183 290 q 193 215 183 250 q 222 154 203 181 q 272 113 242 128 q 344 99 303 99 q 460 128 404 99 q 547 210 515 158 l 668 172 q 603 97 642 131 q 519 38 565 63 q 422 0 474 14 q 318 -14 371 -14 m 458 626 q 367 609 408 626 q 293 563 325 592 q 239 495 261 533 q 203 415 217 457 q 321 411 267 411 q 444 420 394 411 q 526 445 494 429 q 570 484 557 461 q 583 535 583 507 q 550 604 583 582 q 458 626 517 626 m 383 1014 l 528 1014 l 569 861 l 464 835 l 383 1014 z "},"₈":{"ha":554,"x_min":-33,"x_max":464,"o":"m 431 74 q 408 -4 431 32 q 347 -66 385 -40 q 261 -106 310 -92 q 161 -121 213 -121 q 82 -109 118 -121 q 20 -77 46 -97 q -19 -30 -6 -57 q -33 29 -33 -3 q -21 88 -33 63 q 13 134 -8 114 q 60 169 33 154 q 115 194 88 183 q 64 231 85 207 q 43 290 43 254 q 65 359 43 328 q 123 413 88 390 q 201 447 158 435 q 285 460 244 460 q 351 451 318 460 q 408 424 383 442 q 449 383 433 407 q 464 328 464 358 q 427 245 464 279 q 342 194 390 211 q 406 147 381 176 q 431 74 431 117 m 336 72 q 326 105 336 90 q 300 130 317 119 q 263 146 283 140 q 219 151 242 151 q 164 144 192 151 q 114 123 136 136 q 78 90 92 110 q 64 49 64 71 q 74 17 64 31 q 101 -8 85 3 q 140 -24 118 -18 q 183 -29 161 -29 q 238 -22 210 -29 q 287 -1 265 -14 q 322 31 308 13 q 336 72 336 50 m 136 290 q 167 244 136 261 q 236 228 199 228 q 281 233 257 228 q 324 249 304 239 q 356 274 343 260 q 368 308 368 289 q 338 354 368 338 q 267 371 307 371 q 176 349 217 371 q 136 290 136 328 z "},"⁸":{"ha":551,"x_min":108,"x_max":603,"o":"m 569 742 q 547 664 569 700 q 486 602 524 628 q 401 562 449 576 q 301 547 353 547 q 161 590 214 547 q 108 697 108 633 q 121 756 108 731 q 154 801 133 782 q 201 835 175 821 q 256 861 228 850 q 206 898 226 874 q 185 958 185 922 q 207 1027 185 996 q 265 1081 229 1058 q 342 1115 300 1103 q 425 1128 385 1128 q 490 1119 458 1128 q 547 1092 522 1110 q 588 1051 572 1075 q 603 996 603 1026 q 567 913 603 947 q 482 861 532 879 q 546 814 522 844 q 569 742 569 783 m 478 740 q 442 798 478 776 q 360 819 406 819 q 303 812 331 819 q 253 791 275 804 q 218 759 232 778 q 204 718 204 740 q 215 685 204 700 q 242 660 225 671 q 280 644 258 650 q 324 639 301 639 q 378 647 350 639 q 428 667 406 654 q 464 699 450 681 q 478 740 478 718 m 276 960 q 285 933 276 944 q 308 913 294 921 q 340 901 322 906 q 376 897 358 897 q 422 903 399 897 q 464 918 444 908 q 496 942 483 928 q 508 976 508 957 q 478 1022 508 1006 q 407 1039 447 1039 q 358 1033 382 1039 q 317 1017 335 1028 q 288 992 299 1007 q 276 960 276 978 z "},"…":{"ha":751,"x_min":-4,"x_max":618,"o":"m -4 0 l 33 178 l 161 178 l 122 0 l -4 0 m 225 0 l 263 178 l 389 178 l 351 0 l 225 0 m 453 0 l 490 178 l 618 178 l 579 0 l 453 0 z "},"ē":{"ha":757,"x_min":28,"x_max":725,"o":"m 318 -14 q 195 10 249 -14 q 104 74 142 33 q 47 172 67 115 q 28 293 28 228 q 62 463 28 382 q 156 604 96 543 q 299 702 217 665 q 478 739 382 739 q 658 688 590 739 q 725 539 725 638 q 318 311 725 311 q 183 315 258 311 l 183 290 q 193 215 183 250 q 222 154 203 181 q 272 113 242 128 q 344 99 303 99 q 460 128 404 99 q 547 210 515 158 l 668 172 q 603 97 642 131 q 519 38 565 63 q 422 0 474 14 q 318 -14 371 -14 m 458 626 q 367 609 408 626 q 293 563 325 592 q 239 495 261 533 q 203 415 217 457 q 321 411 267 411 q 444 420 394 411 q 526 445 494 429 q 570 484 557 461 q 583 535 583 507 q 550 604 583 582 q 458 626 517 626 m 301 892 l 321 989 l 714 989 l 693 892 l 301 892 z "},"—":{"ha":1222,"x_min":60,"x_max":1146,"o":"m 60 311 l 89 449 l 1146 449 l 1117 311 l 60 311 z "},"–":{"ha":793,"x_min":60,"x_max":717,"o":"m 60 311 l 89 449 l 717 449 l 686 311 l 60 311 z "},"ŋ":{"ha":797,"x_min":0,"x_max":736,"o":"m 339 -265 q 251 -250 290 -265 q 183 -203 211 -235 l 274 -100 q 306 -124 286 -117 q 350 -132 326 -132 q 387 -124 368 -132 q 422 -103 406 -117 q 451 -69 439 -89 q 468 -26 463 -50 l 560 407 q 568 455 565 433 q 571 496 571 476 q 482 603 571 603 q 418 590 451 603 q 353 555 385 578 q 292 501 321 532 q 246 432 264 469 l 153 0 l 0 0 l 156 726 l 293 726 l 263 581 q 400 697 317 654 q 575 739 483 739 q 651 726 621 739 q 701 691 682 714 q 728 638 719 668 q 736 569 736 607 q 731 509 736 540 q 719 443 726 478 l 622 -15 q 582 -117 610 -71 q 515 -196 554 -162 q 431 -247 476 -229 q 339 -265 386 -265 z "},"ę":{"ha":757,"x_min":28,"x_max":725,"o":"m 275 -268 q 189 -232 217 -258 q 161 -171 161 -206 q 192 -92 161 -132 q 289 -12 222 -53 q 178 17 226 -8 q 96 83 129 42 q 45 177 63 124 q 28 293 28 231 q 62 463 28 382 q 156 604 96 543 q 299 702 217 665 q 478 739 382 739 q 658 688 590 739 q 725 539 725 638 q 318 311 725 311 q 183 315 258 311 l 183 290 q 193 215 183 250 q 222 154 203 181 q 272 113 242 128 q 344 99 303 99 q 460 128 404 99 q 547 210 515 158 l 668 172 q 550 56 624 103 q 390 -7 476 8 q 289 -78 319 -47 q 258 -139 258 -110 q 325 -187 258 -183 l 275 -268 m 458 626 q 367 609 408 626 q 293 563 325 592 q 239 495 261 533 q 203 415 217 457 q 321 411 267 411 q 444 420 394 411 q 526 445 494 429 q 570 484 557 461 q 583 535 583 507 q 550 604 583 582 q 458 626 517 626 z "},"=":{"ha":669,"x_min":111,"x_max":540,"o":"m 111 225 l 111 326 l 540 326 l 540 225 l 111 225 m 111 440 l 111 542 l 540 542 l 540 440 l 111 440 z "},"ð":{"ha":815,"x_min":21,"x_max":794,"o":"m 794 928 l 679 867 q 751 694 729 786 q 774 519 774 603 q 735 299 774 397 q 631 131 696 200 q 483 24 567 61 q 307 -14 399 -14 q 190 8 243 -14 q 100 67 138 29 q 42 155 63 104 q 21 265 21 206 q 55 414 21 343 q 144 539 89 485 q 272 625 200 593 q 419 657 343 657 q 549 622 494 657 q 628 528 604 586 q 626 574 628 551 q 621 617 625 596 q 597 715 614 667 q 551 810 581 763 l 410 732 l 378 794 l 510 865 q 339 1014 447 942 l 540 1014 q 639 922 599 974 l 763 990 l 794 928 m 179 285 q 191 218 179 249 q 224 165 203 188 q 274 130 244 143 q 339 117 303 117 q 434 138 389 117 q 514 193 479 158 q 569 273 549 228 q 590 368 590 318 q 547 486 590 439 q 431 533 504 533 q 336 513 382 533 q 256 459 290 493 q 200 380 221 425 q 179 285 179 335 z "},"ẽ":{"ha":757,"x_min":28,"x_max":761,"o":"m 318 -14 q 195 10 249 -14 q 104 74 142 33 q 47 172 67 115 q 28 293 28 228 q 62 463 28 382 q 156 604 96 543 q 299 702 217 665 q 478 739 382 739 q 658 688 590 739 q 725 539 725 638 q 318 311 725 311 q 183 315 258 311 l 183 290 q 193 215 183 250 q 222 154 203 181 q 272 113 242 128 q 344 99 303 99 q 460 128 404 99 q 547 210 515 158 l 668 172 q 603 97 642 131 q 519 38 565 63 q 422 0 474 14 q 318 -14 371 -14 m 458 626 q 367 609 408 626 q 293 563 325 592 q 239 495 261 533 q 203 415 217 457 q 321 411 267 411 q 444 420 394 411 q 526 445 494 429 q 570 484 557 461 q 583 535 583 507 q 550 604 583 582 q 458 626 517 626 m 574 854 q 524 863 544 854 q 486 884 503 872 q 453 905 469 896 q 414 914 436 914 q 377 904 392 914 q 353 883 363 894 q 341 860 344 871 q 338 847 338 849 l 250 847 q 265 885 253 858 q 301 938 278 911 q 356 986 324 965 q 429 1007 388 1007 q 478 997 458 1007 q 514 976 497 988 q 547 956 531 965 q 588 946 564 946 q 628 956 613 946 q 655 978 644 965 q 670 1001 665 990 q 675 1014 675 1011 l 761 1014 q 746 979 758 1006 q 710 925 733 953 q 652 876 686 897 q 574 854 618 854 z "},"!":{"ha":381,"x_min":25,"x_max":389,"o":"m 100 351 l 236 996 l 389 996 l 253 351 l 100 351 m 25 0 l 65 190 l 218 190 l 178 0 l 25 0 z "},"¡":{"ha":379,"x_min":24,"x_max":388,"o":"m 313 639 l 176 -6 l 24 -6 l 160 639 l 313 639 m 388 990 l 347 800 l 194 800 l 235 990 l 388 990 z "},"f":{"ha":482,"x_min":-25,"x_max":633,"o":"m 163 590 l 72 590 l 97 708 l 189 708 l 194 738 q 235 858 208 804 q 300 950 263 913 q 383 1008 338 988 q 481 1028 429 1028 q 560 1016 521 1028 q 633 983 600 1004 l 576 869 q 534 890 560 882 q 485 899 508 899 q 400 858 435 899 q 349 742 365 818 l 342 708 l 517 708 l 490 590 l 315 590 l 128 -294 l -25 -294 l 163 590 z "},"ﬀ":{"ha":833,"x_min":38,"x_max":978,"o":"m 163 590 l 72 590 l 97 708 l 189 708 l 192 719 q 229 818 204 771 q 290 900 254 865 q 373 956 326 935 q 474 976 419 976 q 558 965 519 976 q 629 938 597 954 q 718 1003 669 978 q 829 1028 767 1028 q 917 1012 883 1028 q 978 983 951 996 l 922 869 q 886 889 907 881 q 833 897 865 897 q 777 883 801 897 q 734 848 753 869 q 703 799 715 826 q 683 742 690 771 l 675 708 l 867 708 l 843 590 l 650 590 l 525 0 l 372 0 l 497 590 l 315 590 l 190 0 l 38 0 l 163 590 m 522 708 q 539 767 528 733 q 563 824 550 800 q 521 841 546 836 q 475 846 496 846 q 387 810 418 846 q 344 722 356 774 l 342 708 l 522 708 z "},"ﬃ":{"ha":1068,"x_min":38,"x_max":1085,"o":"m 163 590 l 72 590 l 97 708 l 189 708 l 192 719 q 228 815 203 768 q 290 897 253 861 q 373 955 326 933 q 474 976 419 976 q 558 965 519 976 q 629 938 597 954 q 731 1003 674 978 q 860 1028 789 1028 q 985 1003 929 1028 q 1085 947 1042 979 l 999 833 q 933 878 975 860 q 847 897 892 897 q 785 884 813 897 q 738 849 758 871 q 704 799 718 826 q 683 742 690 771 l 675 708 l 1040 708 l 889 0 l 736 0 l 861 590 l 650 590 l 525 0 l 372 0 l 497 590 l 315 590 l 190 0 l 38 0 l 163 590 m 522 708 q 539 767 528 733 q 563 824 550 800 q 521 841 546 836 q 475 846 496 846 q 425 835 447 846 q 386 808 403 825 q 359 768 369 790 q 344 722 349 746 l 342 708 l 522 708 z "},"ﬄ":{"ha":1181,"x_min":38,"x_max":1104,"o":"m 936 -10 q 833 24 867 -10 q 799 107 799 57 q 801 133 799 119 q 807 165 803 146 l 932 747 q 937 774 935 761 q 939 800 939 788 q 918 869 939 840 q 842 897 897 897 q 782 883 808 897 q 736 845 756 869 q 703 789 717 821 q 682 721 690 757 l 679 708 l 800 708 l 776 590 l 653 590 l 528 0 l 375 0 l 500 590 l 315 590 l 190 0 l 38 0 l 163 590 l 72 590 l 97 708 l 189 708 l 192 719 q 230 817 204 771 q 293 899 256 864 q 377 956 331 935 q 478 976 424 976 q 561 965 525 976 q 631 938 597 954 q 735 1005 675 982 q 868 1028 794 1028 q 1043 977 988 1028 q 1099 842 1099 926 q 1090 776 1099 810 l 971 210 q 968 186 968 196 q 980 144 968 163 q 1019 126 992 126 q 1045 129 1031 126 q 1072 135 1060 132 q 1094 142 1085 139 q 1104 144 1103 144 l 1096 21 q 1080 15 1094 19 q 1042 4 1065 10 q 991 -6 1019 -1 q 936 -10 963 -10 m 526 708 q 541 770 532 736 q 561 825 550 804 q 523 842 544 838 q 482 846 501 846 q 431 835 454 846 q 390 808 407 825 q 360 769 372 790 q 344 725 349 747 l 342 708 l 526 708 z "},"ﬁ":{"ha":733,"x_min":38,"x_max":750,"o":"m 163 590 l 72 590 l 97 708 l 189 708 l 194 738 q 235 847 206 794 q 307 939 264 899 q 406 1003 350 979 q 528 1028 463 1028 q 657 1003 603 1028 q 750 947 711 979 l 664 833 q 599 879 639 861 q 510 897 558 897 q 449 884 476 897 q 402 849 422 871 q 368 799 382 826 q 349 742 354 771 l 342 708 l 706 708 l 554 0 l 401 0 l 526 590 l 315 590 l 190 0 l 38 0 l 163 590 z "},"ﬂ":{"ha":844,"x_min":38,"x_max":767,"o":"m 599 -10 q 497 24 532 -10 q 463 107 463 57 q 464 130 463 118 q 469 160 465 142 l 596 744 q 601 774 599 760 q 603 800 603 788 q 582 869 603 840 q 507 897 561 897 q 401 849 440 897 q 346 726 361 801 l 342 708 l 464 708 l 440 590 l 315 590 l 190 0 l 38 0 l 163 590 l 72 590 l 97 708 l 189 708 l 197 750 q 313 954 226 881 q 531 1028 400 1028 q 707 977 651 1028 q 763 842 763 926 q 754 776 763 810 l 635 210 q 632 186 632 196 q 644 144 632 163 q 683 126 656 126 q 710 129 696 126 q 736 135 724 132 q 758 142 749 139 q 767 144 767 144 l 760 21 q 744 15 758 19 q 706 4 729 10 q 655 -6 683 -1 q 599 -10 626 -10 z "},"⅝":{"ha":1215,"x_min":72,"x_max":1144,"o":"m 358 810 q 487 767 438 810 q 536 657 536 725 q 514 567 536 608 q 453 496 492 526 q 363 449 414 465 q 257 432 313 432 q 140 460 190 432 q 72 533 90 488 l 142 593 q 196 541 160 560 q 282 522 232 522 q 342 531 314 522 q 393 556 371 539 q 428 596 415 572 q 440 649 440 619 q 408 716 440 693 q 336 739 375 739 q 261 721 300 739 q 199 675 222 703 l 117 675 q 151 755 131 708 q 192 850 171 801 q 233 942 214 899 q 263 1014 251 986 l 575 1014 l 556 922 l 311 922 l 244 779 q 294 801 265 793 q 358 810 322 810 m 129 56 l 599 518 l 1047 994 l 1106 932 l 644 475 l 188 -8 l 129 56 m 842 -7 q 763 5 799 -7 q 702 37 728 17 q 663 84 676 57 q 649 143 649 111 q 661 202 649 176 q 694 248 674 228 q 742 283 715 268 q 797 308 769 297 q 746 344 767 321 q 725 404 725 368 q 747 473 725 442 q 805 526 769 504 q 883 561 840 549 q 965 574 925 574 q 1032 565 1000 574 q 1089 538 1064 556 q 1129 497 1114 521 q 1144 442 1144 472 q 1108 359 1144 393 q 1022 308 1072 325 q 1087 260 1063 290 q 1111 188 1111 231 q 1088 110 1111 146 q 1028 48 1065 74 q 942 8 990 22 q 842 -7 893 -7 m 864 85 q 918 92 890 85 q 968 113 946 100 q 1004 145 990 126 q 1018 186 1018 164 q 982 244 1018 224 q 900 265 946 265 q 844 258 872 265 q 794 238 817 251 q 758 205 772 224 q 744 163 744 186 q 755 131 744 144 q 782 106 765 117 q 820 90 799 96 q 864 85 842 85 m 917 342 q 962 347 939 342 q 1004 363 985 353 q 1036 388 1024 374 q 1049 422 1049 403 q 1018 468 1049 451 q 947 485 988 485 q 857 463 897 485 q 817 404 817 442 q 826 378 817 389 q 849 358 835 367 q 881 346 863 350 q 917 342 899 342 z "},"⁄":{"ha":256,"x_min":-344,"x_max":632,"o":"m -344 56 l 125 518 l 574 994 l 632 932 l 171 475 l -286 -8 l -344 56 z "},"⁵":{"ha":519,"x_min":86,"x_max":589,"o":"m 374 924 q 501 881 453 924 q 550 771 550 839 q 528 681 550 722 q 467 610 506 640 q 378 564 429 581 q 272 547 328 547 q 154 574 203 547 q 86 649 106 601 l 156 708 q 210 656 174 675 q 297 636 247 636 q 356 644 328 636 q 407 669 385 653 q 442 710 429 686 q 454 763 454 733 q 422 830 454 807 q 350 853 389 853 q 275 835 314 853 q 213 789 236 817 l 131 789 q 165 869 144 822 q 206 964 185 915 q 247 1056 228 1013 q 276 1128 265 1100 l 589 1128 l 569 1036 l 325 1036 l 260 893 q 308 915 279 907 q 374 924 338 924 z "},"₅":{"ha":521,"x_min":-54,"x_max":449,"o":"m 232 256 q 360 213 311 256 q 408 103 408 171 q 386 13 408 54 q 326 -58 364 -28 q 238 -104 288 -87 q 132 -121 188 -121 q 15 -94 64 -121 q -54 -21 -35 -67 l 15 39 q 69 -13 33 7 q 156 -33 106 -33 q 215 -24 186 -33 q 266 1 244 -15 q 301 42 288 18 q 314 94 314 65 q 281 162 314 139 q 210 185 249 185 q 135 167 174 185 q 72 121 96 149 l -10 121 q 24 201 4 154 q 66 296 44 247 q 106 388 88 344 q 136 460 125 432 l 449 460 l 429 368 l 183 368 l 118 225 q 167 247 139 239 q 232 256 196 256 z "},"ƒ":{"ha":721,"x_min":-90,"x_max":793,"o":"m 65 -265 q -22 -250 18 -265 q -90 -203 -62 -235 l -1 -100 q 33 -124 13 -117 q 75 -132 53 -132 q 149 -102 114 -132 q 193 -26 183 -72 l 310 524 l 218 524 l 243 642 l 335 642 l 356 738 q 397 858 369 804 q 460 949 424 911 q 543 1008 497 988 q 639 1028 589 1028 q 721 1016 681 1028 q 793 983 761 1004 l 736 869 q 694 890 719 882 q 644 899 668 899 q 510 742 543 899 l 488 642 l 663 642 l 638 524 l 463 524 l 346 -22 q 307 -121 335 -76 q 241 -197 279 -165 q 157 -247 203 -229 q 65 -265 111 -265 z "},"₄":{"ha":536,"x_min":-53,"x_max":432,"o":"m 213 -114 l 240 19 l -53 19 l -35 110 l 364 460 l 426 460 l 351 111 l 432 111 l 413 19 l 333 19 l 306 -114 l 213 -114 m 58 111 l 264 111 l 314 343 l 58 111 z "},"⁴":{"ha":538,"x_min":90,"x_max":575,"o":"m 356 556 l 385 688 l 90 688 l 110 778 l 507 1128 l 569 1128 l 496 779 l 575 779 l 556 688 l 476 688 l 449 556 l 356 556 m 201 779 l 407 779 l 457 1011 l 201 779 z "},"g":{"ha":840,"x_min":-61,"x_max":817,"o":"m 226 -310 q 44 -269 111 -310 q -61 -154 -24 -228 l 42 -74 q 124 -162 69 -132 q 250 -193 179 -193 q 337 -181 294 -193 q 415 -142 379 -168 q 477 -75 451 -115 q 514 21 503 -35 l 536 132 q 415 29 488 65 q 272 -7 343 -7 q 168 17 214 -7 q 91 81 122 40 q 43 174 60 121 q 26 286 26 226 q 60 457 26 375 q 149 601 93 539 q 280 701 206 664 q 438 739 354 739 q 573 697 521 739 q 653 589 625 656 l 682 726 l 817 726 l 667 21 q 608 -119 650 -58 q 508 -223 567 -181 q 378 -287 450 -265 q 226 -310 306 -310 m 349 117 q 413 128 381 117 q 474 160 444 140 q 526 206 503 181 q 564 261 550 232 l 606 451 q 549 565 594 521 q 443 608 503 608 q 343 581 390 608 q 260 512 296 554 q 205 416 225 469 q 185 311 185 363 q 197 235 185 271 q 230 174 208 200 q 281 132 251 147 q 349 117 311 117 z "},"ğ":{"ha":840,"x_min":-61,"x_max":817,"o":"m 226 -310 q 44 -269 111 -310 q -61 -154 -24 -228 l 42 -74 q 124 -162 69 -132 q 250 -193 179 -193 q 337 -181 294 -193 q 415 -142 379 -168 q 477 -75 451 -115 q 514 21 503 -35 l 536 132 q 415 29 488 65 q 272 -7 343 -7 q 168 17 214 -7 q 91 81 122 40 q 43 174 60 121 q 26 286 26 226 q 60 457 26 375 q 149 601 93 539 q 280 701 206 664 q 438 739 354 739 q 573 697 521 739 q 653 589 625 656 l 682 726 l 817 726 l 667 21 q 608 -119 650 -58 q 508 -223 567 -181 q 378 -287 450 -265 q 226 -310 306 -310 m 349 117 q 413 128 381 117 q 474 160 444 140 q 526 206 503 181 q 564 261 550 232 l 606 451 q 549 565 594 521 q 443 608 503 608 q 343 581 390 608 q 260 512 296 554 q 205 416 225 469 q 185 311 185 363 q 197 235 185 271 q 230 174 208 200 q 281 132 251 147 q 349 117 311 117 m 482 915 q 539 943 511 915 q 579 1014 567 971 l 664 1014 q 637 947 656 978 q 592 892 618 915 q 533 857 565 869 q 467 844 501 844 q 372 880 407 844 q 336 974 336 915 q 338 994 336 985 q 342 1014 339 1004 l 426 1014 q 424 1001 425 1007 q 424 989 424 996 q 440 937 424 958 q 482 915 456 915 z "},"ĝ":{"ha":840,"x_min":-61,"x_max":817,"o":"m 297 882 l 463 1014 l 574 1014 l 682 882 l 593 843 l 500 931 l 369 843 l 297 882 m 226 -310 q 44 -269 111 -310 q -61 -154 -24 -228 l 42 -74 q 124 -162 69 -132 q 250 -193 179 -193 q 337 -181 294 -193 q 415 -142 379 -168 q 477 -75 451 -115 q 514 21 503 -35 l 536 132 q 415 29 488 65 q 272 -7 343 -7 q 168 17 214 -7 q 91 81 122 40 q 43 174 60 121 q 26 286 26 226 q 60 457 26 375 q 149 601 93 539 q 280 701 206 664 q 438 739 354 739 q 573 697 521 739 q 653 589 625 656 l 682 726 l 817 726 l 667 21 q 608 -119 650 -58 q 508 -223 567 -181 q 378 -287 450 -265 q 226 -310 306 -310 m 349 117 q 413 128 381 117 q 474 160 444 140 q 526 206 503 181 q 564 261 550 232 l 606 451 q 549 565 594 521 q 443 608 503 608 q 343 581 390 608 q 260 512 296 554 q 205 416 225 469 q 185 311 185 363 q 197 235 185 271 q 230 174 208 200 q 281 132 251 147 q 349 117 311 117 z "},"ģ":{"ha":840,"x_min":-61,"x_max":817,"o":"m 572 1035 l 518 928 l 563 928 l 536 806 l 406 806 l 432 928 l 501 1035 l 572 1035 m 226 -310 q 44 -269 111 -310 q -61 -154 -24 -228 l 42 -74 q 124 -162 69 -132 q 250 -193 179 -193 q 337 -181 294 -193 q 415 -142 379 -168 q 477 -75 451 -115 q 514 21 503 -35 l 536 132 q 415 29 488 65 q 272 -7 343 -7 q 168 17 214 -7 q 91 81 122 40 q 43 174 60 121 q 26 286 26 226 q 60 457 26 375 q 149 601 93 539 q 280 701 206 664 q 438 739 354 739 q 573 697 521 739 q 653 589 625 656 l 682 726 l 817 726 l 667 21 q 608 -119 650 -58 q 508 -223 567 -181 q 378 -287 450 -265 q 226 -310 306 -310 m 349 117 q 413 128 381 117 q 474 160 444 140 q 526 206 503 181 q 564 261 550 232 l 606 451 q 549 565 594 521 q 443 608 503 608 q 343 581 390 608 q 260 512 296 554 q 205 416 225 469 q 185 311 185 363 q 197 235 185 271 q 230 174 208 200 q 281 132 251 147 q 349 117 311 117 z "},"ġ":{"ha":840,"x_min":-61,"x_max":817,"o":"m 226 -310 q 44 -269 111 -310 q -61 -154 -24 -228 l 42 -74 q 124 -162 69 -132 q 250 -193 179 -193 q 337 -181 294 -193 q 415 -142 379 -168 q 477 -75 451 -115 q 514 21 503 -35 l 536 132 q 415 29 488 65 q 272 -7 343 -7 q 168 17 214 -7 q 91 81 122 40 q 43 174 60 121 q 26 286 26 226 q 60 457 26 375 q 149 601 93 539 q 280 701 206 664 q 438 739 354 739 q 573 697 521 739 q 653 589 625 656 l 682 726 l 817 726 l 667 21 q 608 -119 650 -58 q 508 -223 567 -181 q 378 -287 450 -265 q 226 -310 306 -310 m 349 117 q 413 128 381 117 q 474 160 444 140 q 526 206 503 181 q 564 261 550 232 l 606 451 q 549 565 594 521 q 443 608 503 608 q 343 581 390 608 q 260 512 296 554 q 205 416 225 469 q 185 311 185 363 q 197 235 185 271 q 230 174 208 200 q 281 132 251 147 q 349 117 311 117 m 407 854 l 442 1014 l 578 1014 l 544 854 l 407 854 z "},"ß":{"ha":743,"x_min":0,"x_max":710,"o":"m 267 132 q 365 146 319 133 q 445 185 411 158 q 499 250 479 211 q 518 342 518 289 q 481 443 518 407 q 382 479 443 479 l 354 479 l 383 618 l 410 618 q 469 630 442 618 q 515 662 496 642 q 546 709 535 682 q 557 768 557 736 q 528 838 557 815 q 458 861 499 861 q 397 848 425 861 q 349 812 369 835 q 315 759 329 789 q 294 696 301 729 l 146 0 l 0 0 l 154 722 q 199 831 167 781 q 276 916 231 881 q 378 972 322 951 q 497 992 435 992 q 651 942 593 992 q 710 806 710 892 q 694 724 710 764 q 655 650 679 683 q 599 592 631 617 q 538 558 568 568 q 642 483 607 540 q 676 349 676 425 q 640 192 676 258 q 544 83 604 126 q 403 17 483 39 q 236 -8 324 -6 l 267 132 z "},">":{"ha":761,"x_min":110,"x_max":694,"o":"m 694 318 l 110 -29 l 110 140 l 472 360 l 110 585 l 110 747 l 694 394 l 694 318 z "},"«":{"ha":835,"x_min":32,"x_max":803,"o":"m 49 394 l 446 651 l 418 525 l 163 360 l 349 200 l 322 75 l 32 318 l 49 394 m 406 394 l 803 651 l 776 525 l 521 360 l 708 200 l 681 75 l 390 318 l 406 394 z "},"»":{"ha":835,"x_min":7,"x_max":776,"o":"m 760 318 l 367 75 l 393 200 l 647 360 l 461 525 l 489 651 l 776 394 l 760 318 m 401 318 l 7 75 l 35 200 l 289 360 l 104 525 l 129 651 l 418 394 l 401 318 z "},"‹":{"ha":476,"x_min":32,"x_max":446,"o":"m 49 394 l 446 651 l 418 525 l 163 360 l 349 200 l 322 75 l 32 318 l 49 394 z "},"›":{"ha":476,"x_min":7,"x_max":418,"o":"m 401 318 l 7 75 l 35 200 l 289 360 l 104 525 l 129 651 l 418 394 l 401 318 z "},"h":{"ha":797,"x_min":0,"x_max":733,"o":"m 215 1014 l 368 1014 l 276 581 q 408 697 332 656 q 565 739 485 739 q 697 689 660 739 q 733 563 733 639 q 730 505 733 535 q 719 443 726 475 l 626 0 l 474 0 l 560 407 q 569 489 569 451 q 544 575 569 547 q 474 603 519 603 q 413 590 446 603 q 349 555 381 578 q 291 501 318 532 q 246 432 264 469 l 153 0 l 0 0 l 215 1014 z "},"ħ":{"ha":797,"x_min":0,"x_max":733,"o":"m 107 922 l 196 922 l 215 1014 l 368 1014 l 349 922 l 483 922 l 463 828 l 328 828 l 276 581 q 408 697 332 656 q 565 739 485 739 q 697 689 660 739 q 733 563 733 639 q 730 505 733 535 q 719 443 726 475 l 626 0 l 474 0 l 560 407 q 569 489 569 451 q 544 575 569 547 q 474 603 519 603 q 413 590 446 603 q 349 555 381 578 q 291 501 318 532 q 246 432 264 469 l 153 0 l 0 0 l 175 828 l 88 828 l 107 922 z "},"ĥ":{"ha":797,"x_min":0,"x_max":753,"o":"m 396 882 l 550 1013 l 653 1013 l 753 882 l 671 843 l 585 929 l 463 843 l 396 882 m 215 1014 l 368 1014 l 276 581 q 408 697 332 656 q 565 739 485 739 q 697 689 660 739 q 733 563 733 639 q 730 505 733 535 q 719 443 726 475 l 626 0 l 474 0 l 560 407 q 569 489 569 451 q 544 575 569 547 q 474 603 519 603 q 413 590 446 603 q 349 555 381 578 q 291 501 318 532 q 246 432 264 469 l 153 0 l 0 0 l 215 1014 z "},"-":{"ha":561,"x_min":60,"x_max":485,"o":"m 60 311 l 89 449 l 485 449 l 456 311 l 60 311 z "},"i":{"ha":332,"x_min":0,"x_max":368,"o":"m 156 726 l 308 726 l 153 0 l 0 0 l 156 726 m 215 1014 l 368 1014 l 333 846 l 181 846 l 215 1014 z "},"í":{"ha":332,"x_min":0,"x_max":426,"o":"m 272 836 l 175 861 l 281 1014 l 426 1014 l 272 836 m 156 726 l 308 726 l 153 0 l 0 0 l 156 726 z "},"ĭ":{"ha":332,"x_min":0,"x_max":439,"o":"m 156 726 l 308 726 l 153 0 l 0 0 l 156 726 m 257 915 q 314 943 286 915 q 354 1014 342 971 l 439 1014 q 412 947 431 978 q 367 892 393 915 q 308 857 340 869 q 242 844 276 844 q 147 880 182 844 q 111 974 111 915 q 113 994 111 985 q 117 1014 114 1004 l 201 1014 q 199 1001 200 1007 q 199 989 199 996 q 215 937 199 958 q 257 915 231 915 z "},"î":{"ha":332,"x_min":0,"x_max":463,"o":"m 78 882 l 243 1014 l 354 1014 l 463 882 l 374 843 l 281 931 l 150 843 l 78 882 m 156 726 l 308 726 l 153 0 l 0 0 l 156 726 z "},"ï":{"ha":332,"x_min":0,"x_max":468,"o":"m 71 854 l 104 1007 l 231 1007 l 199 854 l 71 854 m 310 854 l 342 1007 l 468 1007 l 436 854 l 310 854 m 156 726 l 308 726 l 153 0 l 0 0 l 156 726 z "},"ì":{"ha":332,"x_min":0,"x_max":322,"o":"m 156 726 l 308 726 l 153 0 l 0 0 l 156 726 m 136 1014 l 281 1014 l 322 861 l 217 835 l 136 1014 z "},"ĳ":{"ha":671,"x_min":0,"x_max":708,"o":"m 156 726 l 308 726 l 153 0 l 0 0 l 156 726 m 215 1014 l 368 1014 l 333 846 l 181 846 l 215 1014 m 207 -265 q 119 -250 158 -265 q 51 -203 79 -235 l 140 -100 q 174 -124 154 -117 q 217 -132 194 -132 q 290 -102 254 -132 q 335 -26 325 -72 l 494 726 l 647 726 l 490 -15 q 450 -117 478 -71 q 383 -196 422 -162 q 299 -247 344 -229 q 207 -265 254 -265 m 556 1014 l 708 1014 l 672 846 l 519 846 l 556 1014 z "},"j":{"ha":340,"x_min":-281,"x_max":376,"o":"m -125 -265 q -213 -250 -174 -265 q -281 -203 -253 -235 l -192 -100 q -158 -124 -178 -117 q -115 -132 -137 -132 q -42 -102 -78 -132 q 3 -26 -7 -72 l 163 726 l 315 726 l 158 -15 q 118 -117 146 -71 q 51 -196 90 -162 q -33 -247 13 -229 q -125 -265 -78 -265 m 224 1014 l 376 1014 l 340 846 l 188 846 l 224 1014 z "},"ī":{"ha":332,"x_min":0,"x_max":475,"o":"m 156 726 l 308 726 l 153 0 l 0 0 l 156 726 m 63 892 l 82 989 l 475 989 l 454 892 l 63 892 z "},"į":{"ha":332,"x_min":-76,"x_max":368,"o":"m 156 726 l 308 726 l 153 0 q 51 -72 82 -40 q 21 -132 21 -103 q 88 -181 21 -176 l 38 -261 q -49 -225 -21 -251 q -76 -164 -76 -199 q 61 0 -76 -82 l 0 0 l 156 726 m 215 1014 l 368 1014 l 333 846 l 181 846 l 215 1014 z "},"ĩ":{"ha":332,"x_min":0,"x_max":526,"o":"m 156 726 l 308 726 l 153 0 l 0 0 l 156 726 m 339 854 q 289 863 310 854 q 251 884 268 872 q 218 905 235 896 q 179 914 201 914 q 142 904 157 914 q 119 883 128 894 q 106 860 110 871 q 103 847 103 849 l 15 847 q 31 885 18 858 q 66 938 43 911 q 121 986 89 965 q 194 1007 153 1007 q 243 997 224 1007 q 279 976 263 988 q 313 956 296 965 q 353 946 329 946 q 394 956 378 946 q 420 978 410 965 q 435 1001 431 990 q 440 1014 440 1011 l 526 1014 q 511 979 524 1006 q 475 925 499 953 q 417 876 451 897 q 339 854 383 854 z "},"ĵ":{"ha":332,"x_min":-289,"x_max":453,"o":"m -133 -265 q -222 -250 -182 -265 q -289 -203 -261 -235 l -199 -100 q -166 -124 -186 -117 q -122 -132 -146 -132 q -50 -102 -85 -132 q -6 -26 -15 -72 l 154 726 l 308 726 l 150 -15 q 110 -117 138 -71 q 44 -196 82 -162 q -40 -247 6 -229 q -133 -265 -86 -265 m 68 882 l 233 1014 l 344 1014 l 453 882 l 364 843 l 271 931 l 140 843 l 68 882 z "},"k":{"ha":765,"x_min":0,"x_max":728,"o":"m 215 1014 l 368 1014 l 267 538 q 333 617 297 581 q 407 680 368 653 q 489 722 446 707 q 579 738 532 738 q 691 697 654 738 q 728 586 728 656 q 671 420 728 496 q 506 296 614 344 l 654 0 l 490 0 l 333 342 q 524 427 458 369 q 589 549 589 485 q 571 597 589 582 q 525 611 553 611 q 440 588 483 611 q 355 526 396 565 q 279 435 314 488 q 222 325 244 383 l 153 0 l 0 0 l 215 1014 z "},"ķ":{"ha":765,"x_min":0,"x_max":728,"o":"m 201 -296 l 256 -189 l 211 -189 l 238 -67 l 368 -67 l 342 -189 l 272 -296 l 201 -296 m 215 1014 l 368 1014 l 267 538 q 333 617 297 581 q 407 680 368 653 q 489 722 446 707 q 579 738 532 738 q 691 697 654 738 q 728 586 728 656 q 671 420 728 496 q 506 296 614 344 l 654 0 l 490 0 l 333 342 q 524 427 458 369 q 589 549 589 485 q 571 597 589 582 q 525 611 553 611 q 440 588 483 611 q 355 526 396 565 q 279 435 314 488 q 222 325 244 383 l 153 0 l 0 0 l 215 1014 z "},"ĸ":{"ha":733,"x_min":0,"x_max":779,"o":"m 156 726 l 308 726 l 232 371 l 615 725 l 779 725 l 450 421 l 643 0 l 479 0 l 335 335 l 200 221 l 153 0 l 0 0 l 156 726 z "},"l":{"ha":408,"x_min":29,"x_max":368,"o":"m 161 -11 q 63 19 97 -11 q 29 107 29 50 q 31 130 29 118 q 35 154 32 142 l 217 1014 l 368 1014 l 199 210 q 194 182 194 194 q 210 139 194 154 q 254 124 226 124 q 290 129 269 124 q 331 142 311 135 l 325 22 q 243 -2 289 7 q 161 -11 197 -11 z "},"ĺ":{"ha":408,"x_min":29,"x_max":475,"o":"m 321 1060 l 224 1085 l 329 1238 l 475 1238 l 321 1060 m 161 -11 q 63 19 97 -11 q 29 107 29 50 q 31 130 29 118 q 35 154 32 142 l 217 1014 l 368 1014 l 199 210 q 194 182 194 194 q 210 139 194 154 q 254 124 226 124 q 290 129 269 124 q 331 142 311 135 l 325 22 q 243 -2 289 7 q 161 -11 197 -11 z "},"ľ":{"ha":399,"x_min":29,"x_max":658,"o":"m 408 861 l 514 1014 l 658 1014 l 500 831 l 408 861 m 161 -11 q 63 19 97 -11 q 29 107 29 50 q 31 130 29 118 q 35 154 32 142 l 217 1014 l 368 1014 l 199 210 q 194 182 194 194 q 210 139 194 154 q 254 124 226 124 q 290 129 269 124 q 331 142 311 135 l 325 22 q 243 -2 289 7 q 161 -11 197 -11 z "},"ļ":{"ha":408,"x_min":29,"x_max":368,"o":"m 36 -296 l 90 -189 l 46 -189 l 72 -67 l 203 -67 l 176 -189 l 107 -296 l 36 -296 m 161 -11 q 63 19 97 -11 q 29 107 29 50 q 31 130 29 118 q 35 154 32 142 l 217 1014 l 368 1014 l 199 210 q 194 182 194 194 q 210 139 194 154 q 254 124 226 124 q 290 129 269 124 q 331 142 311 135 l 325 22 q 243 -2 289 7 q 161 -11 197 -11 z "},"ŀ":{"ha":496,"x_min":29,"x_max":507,"o":"m 161 -11 q 63 19 97 -11 q 29 107 29 50 q 31 130 29 118 q 35 154 32 142 l 217 1014 l 368 1014 l 199 210 q 194 182 194 194 q 210 139 194 154 q 254 124 226 124 q 290 129 269 124 q 331 142 311 135 l 325 22 q 243 -2 289 7 q 161 -11 197 -11 m 340 371 l 381 561 l 507 561 l 467 371 l 340 371 z "},"<":{"ha":763,"x_min":42,"x_max":625,"o":"m 42 394 l 625 747 l 625 585 l 263 360 l 625 140 l 625 -29 l 42 318 l 42 394 z "},"¬":{"ha":806,"x_min":82,"x_max":738,"o":"m 738 538 l 657 157 l 526 157 l 578 400 l 82 400 l 111 538 l 738 538 z "},"ł":{"ha":446,"x_min":18,"x_max":475,"o":"m 18 468 l 153 549 l 251 1014 l 404 1014 l 328 653 l 451 726 l 475 643 l 304 540 l 239 232 q 233 204 236 217 q 231 182 231 192 q 246 139 231 154 q 290 124 261 124 q 326 129 306 124 q 367 142 347 135 l 361 22 q 279 -2 325 7 q 197 -11 233 -11 q 99 19 133 -11 q 64 107 64 50 q 65 130 64 118 q 69 154 67 142 l 129 436 l 40 383 l 18 468 z "},"m":{"ha":1232,"x_min":0,"x_max":1171,"o":"m 156 726 l 293 726 l 263 581 q 392 697 315 656 q 550 739 469 739 q 674 695 633 739 q 718 574 715 651 q 853 697 779 654 q 1008 739 926 739 q 1135 690 1099 739 q 1171 565 1171 642 q 1167 510 1171 540 q 1156 443 1163 479 l 1061 0 l 908 0 l 994 407 q 1006 494 1006 460 q 917 603 1006 603 q 797 554 857 603 q 697 431 736 506 l 607 0 l 454 0 l 540 407 q 549 456 547 435 q 551 496 551 476 q 528 577 551 551 q 464 603 506 603 q 344 556 404 603 q 246 432 283 508 l 153 0 l 0 0 l 156 726 z "},"−":{"ha":764,"x_min":106,"x_max":665,"o":"m 106 376 l 106 500 l 665 500 l 665 376 l 106 376 z "},"µ":{"ha":860,"x_min":-50,"x_max":799,"o":"m 168 726 l 321 726 l 232 313 q 221 229 221 264 q 321 117 221 117 q 441 157 379 117 q 550 274 503 197 l 646 726 l 799 726 l 683 181 q 681 169 682 174 q 681 160 681 165 q 717 131 681 132 l 688 0 q 650 -5 667 -3 q 621 -7 633 -7 q 556 11 579 -7 q 532 61 532 29 q 534 90 532 72 q 546 147 536 108 q 497 89 526 118 q 432 37 467 60 q 359 0 397 14 q 285 -14 321 -14 q 205 13 232 -14 q 174 81 178 40 l 103 -294 l -50 -294 l 168 726 z "},"×":{"ha":665,"x_min":74,"x_max":571,"o":"m 571 228 l 474 133 l 321 285 l 169 133 l 74 229 l 225 381 l 78 529 l 175 624 l 322 476 l 469 625 l 565 529 l 418 381 l 571 228 z "},"n":{"ha":797,"x_min":0,"x_max":736,"o":"m 156 726 l 293 726 l 263 581 q 400 697 317 654 q 575 739 483 739 q 651 726 621 739 q 701 691 682 714 q 728 638 719 668 q 736 569 736 607 q 731 508 736 540 q 719 443 726 476 l 626 0 l 474 0 l 560 407 q 568 455 565 433 q 571 496 571 476 q 482 603 571 603 q 418 590 451 603 q 353 555 385 578 q 292 501 321 532 q 246 432 264 469 l 153 0 l 0 0 l 156 726 z "},"ń":{"ha":797,"x_min":0,"x_max":736,"o":"m 536 836 l 439 861 l 544 1014 l 690 1014 l 536 836 m 156 726 l 293 726 l 263 581 q 400 697 317 654 q 575 739 483 739 q 651 726 621 739 q 701 691 682 714 q 728 638 719 668 q 736 569 736 607 q 731 508 736 540 q 719 443 726 476 l 626 0 l 474 0 l 560 407 q 568 455 565 433 q 571 496 571 476 q 482 603 571 603 q 418 590 451 603 q 353 555 385 578 q 292 501 321 532 q 246 432 264 469 l 153 0 l 0 0 l 156 726 z "},"ŉ":{"ha":797,"x_min":-40,"x_max":736,"o":"m -40 861 l 26 956 l 32 1014 l 211 1014 l 51 831 l -40 861 m 156 726 l 293 726 l 263 581 q 400 697 317 654 q 575 739 483 739 q 651 726 621 739 q 701 691 682 714 q 728 638 719 668 q 736 569 736 607 q 731 508 736 540 q 719 443 726 476 l 626 0 l 474 0 l 560 407 q 568 455 565 433 q 571 496 571 476 q 482 603 571 603 q 418 590 451 603 q 353 555 385 578 q 292 501 321 532 q 246 432 264 469 l 153 0 l 0 0 l 156 726 z "},"ň":{"ha":797,"x_min":0,"x_max":736,"o":"m 317 975 l 406 1014 l 499 926 l 629 1014 l 701 975 l 536 843 l 425 843 l 317 975 m 156 726 l 293 726 l 263 581 q 400 697 317 654 q 575 739 483 739 q 651 726 621 739 q 701 691 682 714 q 728 638 719 668 q 736 569 736 607 q 731 508 736 540 q 719 443 726 476 l 626 0 l 474 0 l 560 407 q 568 455 565 433 q 571 496 571 476 q 482 603 571 603 q 418 590 451 603 q 353 555 385 578 q 292 501 321 532 q 246 432 264 469 l 153 0 l 0 0 l 156 726 z "},"ņ":{"ha":797,"x_min":0,"x_max":736,"o":"m 192 -296 l 246 -189 l 201 -189 l 228 -67 l 358 -67 l 332 -189 l 263 -296 l 192 -296 m 156 726 l 293 726 l 263 581 q 400 697 317 654 q 575 739 483 739 q 651 726 621 739 q 701 691 682 714 q 728 638 719 668 q 736 569 736 607 q 731 508 736 540 q 719 443 726 476 l 626 0 l 474 0 l 560 407 q 568 455 565 433 q 571 496 571 476 q 482 603 571 603 q 418 590 451 603 q 353 555 385 578 q 292 501 321 532 q 246 432 264 469 l 153 0 l 0 0 l 156 726 z "},"ṅ":{"ha":797,"x_min":0,"x_max":736,"o":"m 404 854 l 439 1014 l 575 1014 l 542 854 l 404 854 m 156 726 l 293 726 l 263 581 q 400 697 317 654 q 575 739 483 739 q 651 726 621 739 q 701 691 682 714 q 728 638 719 668 q 736 569 736 607 q 731 508 736 540 q 719 443 726 476 l 626 0 l 474 0 l 560 407 q 568 455 565 433 q 571 496 571 476 q 482 603 571 603 q 418 590 451 603 q 353 555 385 578 q 292 501 321 532 q 246 432 264 469 l 153 0 l 0 0 l 156 726 z "},"₉":{"ha":564,"x_min":-26,"x_max":472,"o":"m 6 235 q 28 324 6 282 q 90 397 51 365 q 180 446 129 428 q 285 464 231 464 q 422 412 372 464 q 472 267 472 360 q 449 114 472 185 q 383 -9 425 43 q 281 -91 340 -61 q 149 -121 221 -121 q 41 -97 88 -121 q -26 -29 -6 -74 l 43 35 q 90 -15 57 3 q 171 -33 124 -33 q 292 13 239 -33 q 364 142 344 58 q 289 91 336 110 q 196 72 242 72 q 57 119 108 72 q 6 235 6 165 m 265 379 q 203 369 233 379 q 149 340 172 358 q 110 299 125 322 q 96 251 96 276 q 131 183 96 211 q 218 154 165 154 q 281 165 250 154 q 335 192 311 175 q 372 233 358 210 q 386 281 386 256 q 352 350 386 321 q 265 379 318 379 z "},"⁹":{"ha":564,"x_min":117,"x_max":613,"o":"m 146 899 q 169 988 146 946 q 231 1060 192 1029 q 320 1110 269 1092 q 426 1128 371 1128 q 563 1075 514 1128 q 613 931 613 1022 q 589 777 613 849 q 522 653 565 706 q 420 572 479 601 q 289 542 361 542 q 183 566 229 542 q 117 635 138 590 l 185 697 q 231 647 197 665 q 311 629 265 629 q 433 676 382 629 q 504 806 485 722 q 430 755 478 774 q 336 736 382 736 q 198 783 250 736 q 146 899 146 829 m 406 1043 q 344 1033 374 1043 q 290 1004 314 1022 q 252 963 267 986 q 238 914 238 939 q 272 846 238 874 q 358 818 306 818 q 421 828 390 818 q 475 856 451 839 q 513 895 499 872 q 528 943 528 918 q 493 1013 528 983 q 406 1043 458 1043 z "},"ñ":{"ha":797,"x_min":0,"x_max":736,"o":"m 156 726 l 293 726 l 263 581 q 400 697 317 654 q 575 739 483 739 q 651 726 621 739 q 701 691 682 714 q 728 638 719 668 q 736 569 736 607 q 731 508 736 540 q 719 443 726 476 l 626 0 l 474 0 l 560 407 q 568 455 565 433 q 571 496 571 476 q 482 603 571 603 q 418 590 451 603 q 353 555 385 578 q 292 501 321 532 q 246 432 264 469 l 153 0 l 0 0 l 156 726 m 549 854 q 499 863 519 854 q 461 884 478 872 q 428 905 444 896 q 389 914 411 914 q 352 904 367 914 q 328 883 338 894 q 316 860 319 871 q 313 847 313 849 l 225 847 q 240 885 228 858 q 276 938 253 911 q 331 986 299 965 q 404 1007 363 1007 q 453 997 433 1007 q 489 976 472 988 q 522 956 506 965 q 563 946 539 946 q 603 956 588 946 q 630 978 619 965 q 645 1001 640 990 q 650 1014 650 1011 l 736 1014 q 721 979 733 1006 q 685 925 708 953 q 627 876 661 897 q 549 854 593 854 z "},"#":{"ha":942,"x_min":19,"x_max":954,"o":"m 931 606 l 744 606 l 650 386 l 822 386 l 799 269 l 597 269 l 478 0 l 354 0 l 474 269 l 292 269 l 172 0 l 47 0 l 168 269 l 19 269 l 44 386 l 221 386 l 315 606 l 151 606 l 175 714 l 365 714 l 486 986 l 610 986 l 489 714 l 672 714 l 792 986 l 915 986 l 794 714 l 954 714 l 931 606 m 526 386 l 621 606 l 439 606 l 344 386 l 526 386 z "},"o":{"ha":808,"x_min":26,"x_max":758,"o":"m 311 -14 q 189 10 242 -14 q 100 76 136 35 q 45 172 64 117 q 26 289 26 226 q 61 458 26 376 q 156 601 96 539 q 297 701 215 664 q 471 739 378 739 q 594 715 540 739 q 684 649 647 690 q 740 553 721 608 q 758 435 758 497 q 724 268 758 349 q 628 125 689 188 q 487 24 568 63 q 311 -14 406 -14 m 340 117 q 435 140 389 117 q 518 205 482 164 q 576 300 554 246 q 599 415 599 354 q 556 553 599 499 q 443 608 514 608 q 349 584 394 608 q 266 519 303 560 q 207 424 229 478 q 185 308 185 369 q 227 171 185 225 q 340 117 269 117 z "},"ó":{"ha":808,"x_min":26,"x_max":758,"o":"m 504 836 l 407 861 l 513 1014 l 658 1014 l 504 836 m 311 -14 q 189 10 242 -14 q 100 76 136 35 q 45 172 64 117 q 26 289 26 226 q 61 458 26 376 q 156 601 96 539 q 297 701 215 664 q 471 739 378 739 q 594 715 540 739 q 684 649 647 690 q 740 553 721 608 q 758 435 758 497 q 724 268 758 349 q 628 125 689 188 q 487 24 568 63 q 311 -14 406 -14 m 340 117 q 435 140 389 117 q 518 205 482 164 q 576 300 554 246 q 599 415 599 354 q 556 553 599 499 q 443 608 514 608 q 349 584 394 608 q 266 519 303 560 q 207 424 229 478 q 185 308 185 369 q 227 171 185 225 q 340 117 269 117 z "},"ŏ":{"ha":808,"x_min":26,"x_max":758,"o":"m 311 -14 q 189 10 242 -14 q 100 76 136 35 q 45 172 64 117 q 26 289 26 226 q 61 458 26 376 q 156 601 96 539 q 297 701 215 664 q 471 739 378 739 q 594 715 540 739 q 684 649 647 690 q 740 553 721 608 q 758 435 758 497 q 724 268 758 349 q 628 125 689 188 q 487 24 568 63 q 311 -14 406 -14 m 340 117 q 435 140 389 117 q 518 205 482 164 q 576 300 554 246 q 599 415 599 354 q 556 553 599 499 q 443 608 514 608 q 349 584 394 608 q 266 519 303 560 q 207 424 229 478 q 185 308 185 369 q 227 171 185 225 q 340 117 269 117 m 503 915 q 560 943 532 915 q 600 1014 588 971 l 685 1014 q 658 947 676 978 q 613 892 639 915 q 554 857 586 869 q 488 844 522 844 q 392 880 428 844 q 357 974 357 915 q 358 994 357 985 q 363 1014 360 1004 l 447 1014 q 445 1001 446 1007 q 444 989 444 996 q 460 937 444 958 q 503 915 476 915 z "},"ô":{"ha":808,"x_min":26,"x_max":758,"o":"m 310 882 l 475 1014 l 586 1014 l 694 882 l 606 843 l 513 931 l 382 843 l 310 882 m 311 -14 q 189 10 242 -14 q 100 76 136 35 q 45 172 64 117 q 26 289 26 226 q 61 458 26 376 q 156 601 96 539 q 297 701 215 664 q 471 739 378 739 q 594 715 540 739 q 684 649 647 690 q 740 553 721 608 q 758 435 758 497 q 724 268 758 349 q 628 125 689 188 q 487 24 568 63 q 311 -14 406 -14 m 340 117 q 435 140 389 117 q 518 205 482 164 q 576 300 554 246 q 599 415 599 354 q 556 553 599 499 q 443 608 514 608 q 349 584 394 608 q 266 519 303 560 q 207 424 229 478 q 185 308 185 369 q 227 171 185 225 q 340 117 269 117 z "},"ö":{"ha":808,"x_min":26,"x_max":758,"o":"m 315 854 l 349 1007 l 475 1007 l 443 854 l 315 854 m 554 854 l 586 1007 l 713 1007 l 681 854 l 554 854 m 311 -14 q 189 10 242 -14 q 100 76 136 35 q 45 172 64 117 q 26 289 26 226 q 61 458 26 376 q 156 601 96 539 q 297 701 215 664 q 471 739 378 739 q 594 715 540 739 q 684 649 647 690 q 740 553 721 608 q 758 435 758 497 q 724 268 758 349 q 628 125 689 188 q 487 24 568 63 q 311 -14 406 -14 m 340 117 q 435 140 389 117 q 518 205 482 164 q 576 300 554 246 q 599 415 599 354 q 556 553 599 499 q 443 608 514 608 q 349 584 394 608 q 266 519 303 560 q 207 424 229 478 q 185 308 185 369 q 227 171 185 225 q 340 117 269 117 z "},"œ":{"ha":1350,"x_min":26,"x_max":1314,"o":"m 311 -14 q 193 9 246 -14 q 103 72 140 32 q 47 167 67 113 q 26 288 26 222 q 63 463 26 381 q 161 606 100 544 q 303 703 222 668 q 471 739 383 739 q 624 689 563 739 q 708 547 685 639 q 856 690 775 642 q 1032 739 938 739 q 1151 717 1099 739 q 1239 654 1203 694 q 1294 558 1275 614 q 1314 433 1314 501 q 1306 354 1314 383 q 1292 313 1299 325 l 744 313 q 742 294 742 303 q 742 275 742 285 q 787 147 742 197 q 907 96 832 96 q 968 104 938 96 q 1026 128 999 113 q 1075 164 1053 143 q 1111 210 1097 185 l 1231 172 q 1163 96 1203 131 q 1078 37 1124 61 q 981 -1 1032 13 q 879 -14 931 -14 q 729 35 792 -14 q 631 172 667 85 q 477 33 556 81 q 311 -14 399 -14 m 340 117 q 437 141 390 117 q 519 206 483 165 q 577 301 556 247 q 599 417 599 356 q 588 493 599 458 q 557 553 576 528 q 508 594 538 579 q 444 608 479 608 q 348 584 394 608 q 265 518 301 560 q 207 422 229 476 q 185 306 185 367 q 196 231 185 265 q 227 171 207 196 q 276 131 247 146 q 340 117 304 117 m 1163 410 q 1165 429 1164 419 q 1165 449 1165 439 q 1121 578 1165 529 q 1004 626 1076 626 q 925 610 964 626 q 854 565 886 594 q 798 497 822 536 q 761 410 774 457 l 1163 410 z "},"ò":{"ha":808,"x_min":26,"x_max":758,"o":"m 311 -14 q 189 10 242 -14 q 100 76 136 35 q 45 172 64 117 q 26 289 26 226 q 61 458 26 376 q 156 601 96 539 q 297 701 215 664 q 471 739 378 739 q 594 715 540 739 q 684 649 647 690 q 740 553 721 608 q 758 435 758 497 q 724 268 758 349 q 628 125 689 188 q 487 24 568 63 q 311 -14 406 -14 m 340 117 q 435 140 389 117 q 518 205 482 164 q 576 300 554 246 q 599 415 599 354 q 556 553 599 499 q 443 608 514 608 q 349 584 394 608 q 266 519 303 560 q 207 424 229 478 q 185 308 185 369 q 227 171 185 225 q 340 117 269 117 m 382 1014 l 526 1014 l 568 861 l 463 835 l 382 1014 z "},"ő":{"ha":808,"x_min":26,"x_max":758,"o":"m 397 838 l 322 861 l 421 1014 l 544 1014 l 397 838 m 596 838 l 522 861 l 619 1014 l 743 1014 l 596 838 m 311 -14 q 189 10 242 -14 q 100 76 136 35 q 45 172 64 117 q 26 289 26 226 q 61 458 26 376 q 156 601 96 539 q 297 701 215 664 q 471 739 378 739 q 594 715 540 739 q 684 649 647 690 q 740 553 721 608 q 758 435 758 497 q 724 268 758 349 q 628 125 689 188 q 487 24 568 63 q 311 -14 406 -14 m 340 117 q 435 140 389 117 q 518 205 482 164 q 576 300 554 246 q 599 415 599 354 q 556 553 599 499 q 443 608 514 608 q 349 584 394 608 q 266 519 303 560 q 207 424 229 478 q 185 308 185 369 q 227 171 185 225 q 340 117 269 117 z "},"ō":{"ha":808,"x_min":26,"x_max":758,"o":"m 307 892 l 326 989 l 719 989 l 699 892 l 307 892 m 311 -14 q 189 10 242 -14 q 100 76 136 35 q 45 172 64 117 q 26 289 26 226 q 61 458 26 376 q 156 601 96 539 q 297 701 215 664 q 471 739 378 739 q 594 715 540 739 q 684 649 647 690 q 740 553 721 608 q 758 435 758 497 q 724 268 758 349 q 628 125 689 188 q 487 24 568 63 q 311 -14 406 -14 m 340 117 q 435 140 389 117 q 518 205 482 164 q 576 300 554 246 q 599 415 599 354 q 556 553 599 499 q 443 608 514 608 q 349 584 394 608 q 266 519 303 560 q 207 424 229 478 q 185 308 185 369 q 227 171 185 225 q 340 117 269 117 z "},"⅛":{"ha":1190,"x_min":82,"x_max":1122,"o":"m 93 56 l 563 518 l 1011 994 l 1069 932 l 608 475 l 151 -8 l 93 56 m 394 526 l 375 435 l 82 435 l 103 526 l 207 526 l 289 914 q 262 892 279 904 q 225 870 244 881 q 185 852 206 860 q 149 844 164 844 l 168 936 q 213 948 189 936 q 259 974 238 960 q 295 1001 281 989 q 310 1015 310 1014 l 404 1015 l 299 526 l 394 526 m 819 -7 q 741 5 776 -7 q 680 37 706 17 q 640 84 654 57 q 626 143 626 111 q 639 202 626 176 q 672 248 651 228 q 720 283 693 268 q 775 308 747 297 q 724 344 744 321 q 703 404 703 368 q 725 473 703 442 q 783 526 747 504 q 860 561 818 549 q 943 574 903 574 q 1010 565 978 574 q 1067 538 1042 556 q 1107 497 1092 521 q 1122 442 1122 472 q 1086 359 1122 393 q 1000 308 1050 325 q 1065 260 1040 290 q 1089 188 1089 231 q 1066 110 1089 146 q 1006 48 1043 74 q 919 8 968 22 q 819 -7 871 -7 m 842 85 q 896 92 868 85 q 946 113 924 100 q 982 145 968 126 q 996 186 996 164 q 960 244 996 224 q 878 265 924 265 q 822 258 850 265 q 772 238 794 251 q 736 205 750 224 q 722 163 722 186 q 733 131 722 144 q 760 106 743 117 q 798 90 776 96 q 842 85 819 85 m 894 342 q 940 347 917 342 q 982 363 963 353 q 1014 388 1001 374 q 1026 422 1026 403 q 996 468 1026 451 q 925 485 965 485 q 835 463 875 485 q 794 404 794 442 q 803 378 794 389 q 826 358 813 367 q 858 346 840 350 q 894 342 876 342 z "},"¹":{"ha":386,"x_min":93,"x_max":415,"o":"m 406 640 l 386 549 l 93 549 l 114 640 l 218 640 l 300 1028 q 274 1006 292 1018 q 237 984 257 994 q 197 966 217 974 q 160 958 176 958 l 179 1051 q 224 1063 200 1051 q 270 1089 249 1075 q 306 1115 292 1103 q 321 1129 321 1128 l 415 1129 l 311 640 l 406 640 z "},"½":{"ha":1190,"x_min":75,"x_max":1136,"o":"m 614 0 q 642 97 625 56 q 685 170 660 139 q 748 225 711 201 q 833 268 785 249 q 904 294 868 282 q 969 324 940 307 q 1015 363 997 340 q 1033 419 1033 386 q 1008 471 1033 451 q 935 490 983 490 q 832 466 876 490 q 761 418 788 442 l 718 486 q 751 514 729 497 q 806 545 774 531 q 878 570 838 560 q 967 581 918 581 q 1094 542 1051 581 q 1136 439 1136 504 q 1122 361 1136 394 q 1081 303 1108 328 q 1015 258 1054 278 q 925 222 976 239 q 816 161 849 197 q 776 90 783 125 l 1069 90 l 1049 0 l 614 0 m 75 56 l 544 518 l 993 994 l 1051 932 l 590 475 l 133 -8 l 75 56 m 393 526 l 374 435 l 81 435 l 101 526 l 206 526 l 288 914 q 260 892 278 904 q 224 870 243 881 q 183 852 204 860 q 147 844 163 844 l 167 936 q 212 948 188 936 q 258 974 236 960 q 294 1001 279 989 q 308 1015 308 1014 l 403 1015 l 297 526 l 393 526 z "},"₂":{"ha":550,"x_min":-67,"x_max":474,"o":"m -67 -114 q -37 -17 -56 -58 q 8 56 -19 25 q 72 111 35 88 q 161 154 110 135 q 234 181 197 168 q 301 210 271 193 q 349 249 331 226 q 368 306 368 272 q 342 357 368 338 q 265 376 315 376 q 159 352 204 376 q 86 304 114 328 l 40 372 q 75 400 51 383 q 131 431 99 417 q 206 456 164 446 q 297 467 249 467 q 430 428 386 467 q 474 325 474 390 q 458 247 474 281 q 415 188 443 214 q 347 144 388 163 q 254 108 306 125 q 143 47 176 83 q 101 -24 110 11 l 404 -24 l 385 -114 l -67 -114 z "},"₁":{"ha":425,"x_min":-47,"x_max":304,"o":"m 304 -24 l 286 -114 l -47 -114 l -28 -24 l 96 -24 l 179 364 q 150 342 169 354 q 108 320 131 331 q 60 302 85 310 q 18 294 36 294 l 39 388 q 91 399 63 388 q 143 426 119 411 q 183 453 167 440 q 200 467 200 465 l 294 467 l 190 -24 l 304 -24 z "},"¼":{"ha":1149,"x_min":79,"x_max":1099,"o":"m 868 135 l 574 135 l 593 224 l 990 575 l 1054 575 l 979 225 l 1060 225 l 1040 135 l 961 135 l 932 0 l 840 0 l 868 135 m 892 225 l 940 457 l 685 225 l 892 225 m 122 56 l 592 518 l 1040 994 l 1099 932 l 638 475 l 181 -8 l 122 56 m 392 526 l 372 435 l 79 435 l 100 526 l 204 526 l 286 914 q 259 892 276 904 q 222 870 242 881 q 182 852 203 860 q 146 844 161 844 l 165 936 q 210 948 186 936 q 256 974 235 960 q 292 1001 278 989 q 307 1015 307 1014 l 401 1015 l 296 526 l 392 526 z "},"⅓":{"ha":1189,"x_min":78,"x_max":1128,"o":"m 78 56 l 547 518 l 996 994 l 1054 932 l 593 475 l 136 -8 l 78 56 m 396 526 l 376 435 l 83 435 l 104 526 l 208 526 l 290 914 q 263 892 281 904 q 226 870 246 881 q 186 852 207 860 q 150 844 165 844 l 169 936 q 215 948 190 936 q 260 974 239 960 q 297 1001 282 989 q 311 1015 311 1014 l 406 1015 l 300 526 l 396 526 m 815 -7 q 681 23 732 -7 q 626 108 631 53 l 692 174 q 701 147 692 161 q 727 118 710 132 q 771 95 744 104 q 833 86 797 86 q 894 92 865 86 q 944 110 922 99 q 979 139 967 122 q 992 176 992 156 q 944 235 992 215 q 814 254 897 254 l 782 254 l 800 339 l 831 339 q 972 360 918 339 q 1026 429 1026 382 q 994 478 1026 461 q 922 496 963 496 q 828 476 869 496 q 756 424 786 456 l 713 497 q 811 560 749 538 q 939 582 874 582 q 1076 543 1025 582 q 1128 446 1128 504 q 1088 351 1128 388 q 975 300 1047 315 q 1056 258 1028 292 q 1085 179 1085 224 q 1061 98 1085 133 q 999 40 1038 63 q 913 5 961 17 q 815 -7 865 -7 z "},"₃":{"ha":536,"x_min":-49,"x_max":451,"o":"m 139 -121 q 6 -92 57 -121 q -49 -7 -44 -62 l 15 60 q 24 32 15 47 q 51 3 33 17 q 94 -19 68 -10 q 157 -29 121 -29 q 217 -23 189 -29 q 268 -5 246 -17 q 303 24 290 7 q 315 63 315 42 q 268 121 315 101 q 138 140 221 140 l 107 140 l 124 225 l 154 225 q 297 247 242 225 q 351 315 351 268 q 319 365 351 347 q 246 382 286 382 q 151 362 193 382 q 81 310 110 342 l 36 383 q 80 419 54 403 q 135 445 106 435 q 198 461 165 456 q 263 467 231 467 q 400 428 349 467 q 451 331 451 390 q 411 237 451 274 q 299 186 371 200 q 381 144 351 178 q 410 65 410 110 q 386 -16 410 19 q 324 -74 363 -51 q 238 -109 286 -97 q 139 -121 189 -121 z "},"ǫ":{"ha":808,"x_min":26,"x_max":758,"o":"m 269 -268 q 183 -232 211 -258 q 156 -171 156 -206 q 282 -12 156 -92 q 172 17 219 -8 q 92 84 124 43 q 43 178 60 125 q 26 289 26 231 q 61 458 26 376 q 156 601 96 539 q 297 701 215 664 q 471 739 378 739 q 594 715 540 739 q 684 649 647 690 q 740 553 721 608 q 758 435 758 497 q 730 283 758 357 q 651 150 701 210 q 532 49 601 90 q 382 -7 463 7 q 283 -78 313 -47 q 253 -139 253 -110 q 319 -187 253 -183 l 269 -268 m 340 117 q 435 140 389 117 q 518 205 482 164 q 576 300 554 246 q 599 415 599 354 q 556 553 599 499 q 443 608 514 608 q 349 584 394 608 q 266 519 303 560 q 207 424 229 478 q 185 308 185 369 q 227 171 185 225 q 340 117 269 117 z "},"ª":{"ha":585,"x_min":97,"x_max":569,"o":"m 226 475 q 133 511 168 475 q 97 601 97 547 q 116 678 97 643 q 167 738 135 713 q 241 776 199 763 q 332 790 283 790 q 444 768 397 790 l 451 799 q 456 829 456 815 q 368 907 456 907 q 292 893 331 907 q 208 851 253 879 l 189 925 q 394 989 294 989 q 524 951 478 989 q 569 843 569 914 q 563 785 569 819 l 528 621 q 526 607 526 615 q 551 585 526 586 l 529 483 q 503 479 515 481 q 482 478 492 478 q 414 528 414 478 q 419 565 414 539 q 328 498 378 521 q 226 475 278 475 m 278 561 q 322 568 299 561 q 365 586 344 575 q 399 612 385 597 q 417 643 414 626 l 429 703 q 386 718 411 714 q 338 722 361 722 q 247 696 285 722 q 210 626 210 669 q 228 580 210 599 q 278 561 247 561 z "},"º":{"ha":596,"x_min":113,"x_max":613,"o":"m 308 475 q 224 492 260 475 q 163 536 188 508 q 125 601 138 564 q 113 681 113 639 q 136 796 113 740 q 201 894 160 851 q 297 963 242 938 q 418 989 353 989 q 501 972 465 989 q 563 928 538 956 q 600 863 588 900 q 613 782 613 825 q 590 668 613 724 q 526 570 567 613 q 429 501 485 528 q 308 475 374 475 m 329 575 q 390 590 360 575 q 443 632 419 606 q 481 693 467 658 q 494 767 494 728 q 467 853 494 819 q 396 888 440 888 q 335 872 364 888 q 283 831 306 857 q 246 770 260 806 q 232 696 232 735 q 258 609 232 643 q 329 575 285 575 z "},"ø":{"ha":808,"x_min":-1,"x_max":782,"o":"m 92 86 q 43 178 60 126 q 26 289 26 231 q 61 458 26 376 q 156 601 96 539 q 298 701 217 664 q 472 739 379 739 q 568 724 525 739 q 646 685 611 710 l 692 731 l 782 731 l 690 642 q 741 548 724 601 q 758 435 758 494 q 724 268 758 349 q 630 125 690 188 q 488 24 569 63 q 313 -14 407 -14 q 214 1 258 -14 q 135 43 169 15 l 88 -4 l -1 -4 l 92 86 m 340 117 q 435 140 389 117 q 519 205 482 164 q 578 300 556 246 q 600 415 600 354 q 593 474 600 447 q 575 525 586 501 l 242 154 q 340 117 282 117 m 185 308 q 208 200 185 247 l 539 571 q 443 608 499 608 q 349 584 394 608 q 266 519 303 560 q 207 424 229 478 q 185 308 185 369 z "},"ǿ":{"ha":808,"x_min":-1,"x_max":782,"o":"m 92 86 q 43 178 60 126 q 26 289 26 231 q 61 458 26 376 q 156 601 96 539 q 298 701 217 664 q 472 739 379 739 q 568 724 525 739 q 646 685 611 710 l 692 731 l 782 731 l 690 642 q 741 548 724 601 q 758 435 758 494 q 724 268 758 349 q 630 125 690 188 q 488 24 569 63 q 313 -14 407 -14 q 214 1 258 -14 q 135 43 169 15 l 88 -4 l -1 -4 l 92 86 m 340 117 q 435 140 389 117 q 519 205 482 164 q 578 300 556 246 q 600 415 600 354 q 593 474 600 447 q 575 525 586 501 l 242 154 q 340 117 282 117 m 185 308 q 208 200 185 247 l 539 571 q 443 608 499 608 q 349 584 394 608 q 266 519 303 560 q 207 424 229 478 q 185 308 185 369 m 503 836 l 406 861 l 511 1014 l 657 1014 l 503 836 z "},"õ":{"ha":808,"x_min":26,"x_max":761,"o":"m 311 -14 q 189 10 242 -14 q 100 76 136 35 q 45 172 64 117 q 26 289 26 226 q 61 458 26 376 q 156 601 96 539 q 297 701 215 664 q 471 739 378 739 q 594 715 540 739 q 684 649 647 690 q 740 553 721 608 q 758 435 758 497 q 724 268 758 349 q 628 125 689 188 q 487 24 568 63 q 311 -14 406 -14 m 340 117 q 435 140 389 117 q 518 205 482 164 q 576 300 554 246 q 599 415 599 354 q 556 553 599 499 q 443 608 514 608 q 349 584 394 608 q 266 519 303 560 q 207 424 229 478 q 185 308 185 369 q 227 171 185 225 q 340 117 269 117 m 574 854 q 524 863 544 854 q 486 884 503 872 q 453 905 469 896 q 414 914 436 914 q 377 904 392 914 q 353 883 363 894 q 341 860 344 871 q 338 847 338 849 l 250 847 q 265 885 253 858 q 301 938 278 911 q 356 986 324 965 q 429 1007 388 1007 q 478 997 458 1007 q 514 976 497 988 q 547 956 531 965 q 588 946 564 946 q 628 956 613 946 q 655 978 644 965 q 670 1001 665 990 q 675 1014 675 1011 l 761 1014 q 746 979 758 1006 q 710 925 733 953 q 652 876 686 897 q 574 854 618 854 z "},"p":{"ha":842,"x_min":-62,"x_max":790,"o":"m 154 726 l 289 726 l 261 596 q 386 700 315 661 q 536 739 457 739 q 643 715 596 739 q 723 651 690 692 q 773 555 756 610 q 790 438 790 500 q 758 268 790 350 q 672 124 726 186 q 545 24 617 61 q 394 -14 474 -14 q 258 28 311 -14 q 182 136 204 69 l 90 -296 l -62 -296 l 154 726 m 372 117 q 471 143 424 117 q 553 211 518 169 q 610 306 589 253 q 631 414 631 360 q 619 490 631 454 q 587 551 608 525 q 535 593 565 578 q 467 608 504 608 q 408 597 439 608 q 347 567 376 586 q 292 522 317 547 q 253 465 267 496 l 211 275 q 267 163 224 208 q 372 117 310 117 z "},"¶":{"ha":853,"x_min":88,"x_max":914,"o":"m 88 561 q 119 735 88 657 q 210 869 151 814 q 354 956 269 925 q 544 986 439 986 l 914 986 l 889 869 l 796 869 l 588 -111 l 457 -111 l 544 300 l 469 300 l 381 -111 l 250 -111 l 339 300 q 153 373 218 303 q 88 561 88 443 m 219 582 q 260 462 219 503 q 363 417 300 421 l 460 869 q 361 845 406 868 q 285 783 317 822 q 237 692 254 744 q 219 582 219 640 m 665 869 l 590 869 l 493 417 l 568 417 l 665 869 z "},"(":{"ha":404,"x_min":54,"x_max":486,"o":"m 54 364 q 80 540 54 456 q 149 708 106 625 q 253 872 193 790 q 381 1042 313 954 l 486 992 q 389 861 440 935 q 295 706 338 788 q 225 540 253 625 q 197 375 197 454 q 217 185 197 288 q 271 -8 236 83 l 146 -65 q 108 35 125 -18 q 80 144 92 89 q 61 256 68 200 q 54 364 54 311 z "},")":{"ha":403,"x_min":-49,"x_max":378,"o":"m 378 600 q 352 424 378 510 q 282 256 326 339 q 178 94 238 174 q 53 -65 119 14 l -49 -8 q 64 142 13 68 q 153 290 115 217 q 211 438 190 364 q 232 589 232 511 q 225 706 232 646 q 208 819 218 765 q 185 919 197 874 q 161 992 172 964 l 289 1042 q 352 821 326 936 q 378 600 378 706 z "},"%":{"ha":1017,"x_min":36,"x_max":1013,"o":"m 299 588 q 174 637 221 588 q 126 758 126 686 q 149 851 126 807 q 207 928 171 894 q 290 981 243 961 q 386 1000 336 1000 q 457 987 425 1000 q 512 951 489 974 q 547 897 535 928 q 560 829 560 865 q 538 737 560 781 q 479 660 515 693 q 396 607 443 626 q 299 588 349 588 m 315 667 q 365 679 340 667 q 408 713 389 692 q 438 763 426 735 q 450 819 450 790 q 428 892 450 863 q 369 921 406 921 q 321 908 344 921 q 278 874 297 894 q 248 825 260 853 q 236 768 236 797 q 258 696 236 725 q 315 667 279 667 m 663 -14 q 538 35 585 -14 q 490 157 490 85 q 513 249 490 206 q 571 326 535 293 q 653 379 607 360 q 750 399 700 399 q 876 349 829 399 q 922 228 922 300 q 901 135 922 179 q 842 58 879 92 q 759 6 806 25 q 663 -14 713 -14 m 679 65 q 728 78 704 65 q 771 112 751 90 q 802 161 790 133 q 814 218 814 189 q 791 290 814 261 q 732 319 768 319 q 683 307 707 319 q 641 273 660 294 q 610 224 622 251 q 599 167 599 196 q 621 94 599 124 q 679 65 643 65 m 36 56 l 506 518 l 954 994 l 1013 932 l 551 475 l 94 -8 l 36 56 z "},".":{"ha":294,"x_min":-4,"x_max":161,"o":"m -4 0 l 33 178 l 161 178 l 122 0 l -4 0 z "},"‰":{"ha":1511,"x_min":44,"x_max":1422,"o":"m 310 588 q 237 601 269 588 q 181 637 204 614 q 146 690 158 660 q 133 757 133 721 q 156 851 133 807 q 214 928 178 894 q 297 981 250 961 q 392 1000 343 1000 q 519 951 472 1000 q 567 829 567 901 q 544 737 567 781 q 486 660 522 693 q 404 607 450 626 q 310 588 358 588 m 325 667 q 372 679 349 667 q 415 713 396 692 q 445 763 433 735 q 457 821 457 790 q 434 892 457 863 q 375 921 411 921 q 328 908 351 921 q 285 873 304 894 q 255 824 267 851 q 243 767 243 796 q 266 696 243 725 q 325 667 289 667 m 672 -14 q 544 35 592 -14 q 497 157 497 85 q 519 249 497 206 q 578 326 542 293 q 660 379 614 360 q 756 399 707 399 q 827 385 794 399 q 882 349 860 372 q 917 295 904 326 q 929 229 929 264 q 908 135 929 179 q 850 58 886 92 q 767 6 814 25 q 672 -14 721 -14 m 688 65 q 736 78 713 65 q 778 113 760 92 q 809 163 797 135 q 821 219 821 190 q 798 290 821 261 q 739 319 775 319 q 690 307 714 319 q 648 273 667 294 q 617 224 629 251 q 606 165 606 196 q 628 94 606 124 q 688 65 651 65 m 1165 -14 q 1037 35 1085 -14 q 989 157 989 85 q 1011 249 989 206 q 1070 326 1033 293 q 1153 379 1107 360 q 1249 399 1200 399 q 1320 385 1288 399 q 1375 349 1353 372 q 1410 295 1397 326 q 1422 229 1422 264 q 1400 135 1422 179 q 1342 58 1378 92 q 1260 6 1306 25 q 1165 -14 1214 -14 m 1181 65 q 1229 78 1206 65 q 1272 113 1253 92 q 1302 163 1290 135 q 1314 219 1314 190 q 1291 290 1314 261 q 1232 319 1268 319 q 1183 307 1207 319 q 1141 273 1160 294 q 1110 224 1122 251 q 1099 165 1099 196 q 1122 94 1099 124 q 1181 65 1144 65 m 44 56 l 514 518 l 961 994 l 1019 932 l 560 475 l 101 -8 l 44 56 z "},"+":{"ha":585,"x_min":82,"x_max":528,"o":"m 528 554 l 528 432 l 375 432 l 375 264 l 236 264 l 236 432 l 82 432 l 82 554 l 236 554 l 236 722 l 375 722 l 375 554 l 528 554 z "},"±":{"ha":690,"x_min":90,"x_max":567,"o":"m 90 56 l 90 179 l 567 179 l 567 56 l 90 56 m 567 579 l 567 456 l 397 456 l 397 272 l 260 272 l 260 456 l 92 456 l 92 579 l 260 579 l 260 761 l 397 761 l 397 579 l 567 579 z "},"q":{"ha":840,"x_min":26,"x_max":817,"o":"m 263 -14 q 162 9 206 -14 q 88 72 118 32 q 42 166 58 113 q 26 281 26 219 q 61 457 26 374 q 154 603 96 540 q 287 702 213 665 q 440 739 361 739 q 576 699 521 739 q 654 594 631 658 l 682 726 l 817 726 l 639 -108 q 636 -128 636 -122 q 672 -158 636 -157 l 644 -289 q 604 -293 625 -292 q 567 -294 583 -294 q 494 -271 522 -294 q 467 -207 467 -247 q 471 -183 467 -196 l 538 136 q 410 24 479 61 q 263 -14 340 -14 m 344 117 q 464 156 408 117 q 564 256 519 196 l 604 447 q 590 510 603 481 q 557 560 578 539 q 508 595 536 582 q 449 608 479 608 q 350 583 397 608 q 266 514 303 557 q 208 417 229 471 q 186 307 186 363 q 197 233 186 267 q 228 172 207 199 q 278 131 249 146 q 344 117 307 117 z "},"?":{"ha":647,"x_min":89,"x_max":668,"o":"m 151 307 q 201 435 167 379 q 308 531 235 490 q 383 570 343 550 q 454 617 422 590 q 508 678 486 643 q 529 761 529 713 q 496 844 529 815 q 415 874 463 874 q 356 863 385 874 q 303 835 328 853 q 257 796 278 818 q 219 751 236 774 l 133 819 q 195 896 160 863 q 272 952 231 929 q 358 987 313 975 q 447 999 403 999 q 531 986 490 999 q 601 947 571 974 q 650 881 632 921 q 668 785 668 840 q 651 675 668 721 q 606 596 635 629 q 540 538 578 563 q 458 490 501 513 q 401 459 429 475 q 348 422 372 443 q 306 374 324 401 q 279 307 288 346 l 151 307 m 89 0 l 126 175 l 253 175 l 217 0 l 89 0 z "},"¿":{"ha":640,"x_min":-53,"x_max":526,"o":"m 464 396 q 415 268 449 324 q 307 172 381 213 q 232 133 271 153 q 161 86 193 113 q 108 25 129 60 q 86 -58 86 -10 q 119 -142 86 -112 q 200 -171 153 -171 q 259 -160 231 -171 q 313 -133 288 -150 q 358 -94 338 -115 q 396 -49 379 -72 l 482 -117 q 420 -193 456 -160 q 344 -249 385 -226 q 258 -284 303 -272 q 168 -296 213 -296 q 85 -283 125 -296 q 14 -244 44 -271 q -35 -178 -17 -218 q -53 -82 -53 -137 q -36 28 -53 -18 q 9 107 -19 74 q 76 165 38 140 q 157 213 114 190 q 215 244 186 228 q 267 281 243 260 q 310 329 292 301 q 336 396 328 357 l 464 396 m 526 703 l 489 528 l 363 528 l 399 703 l 526 703 z "},"\"":{"ha":488,"x_min":143,"x_max":524,"o":"m 143 696 l 208 1001 l 339 1001 l 274 696 l 143 696 m 328 696 l 393 1001 l 524 1001 l 458 696 l 328 696 z "},"„":{"ha":539,"x_min":-19,"x_max":404,"o":"m -19 -171 l 46 0 l -3 0 l 35 179 l 186 179 l 147 -1 l 68 -171 l -19 -171 m 197 -171 l 263 0 l 215 0 l 253 179 l 404 179 l 365 -1 l 286 -171 l 197 -171 z "},"‚":{"ha":321,"x_min":-19,"x_max":186,"o":"m -19 -171 l 46 0 l -3 0 l 35 179 l 186 179 l 147 -1 l 68 -171 l -19 -171 z "},"“":{"ha":524,"x_min":135,"x_max":550,"o":"m 338 1014 l 275 850 l 322 850 l 286 678 l 135 678 l 172 851 l 251 1014 l 338 1014 m 550 1014 l 488 850 l 533 850 l 497 678 l 347 678 l 383 851 l 463 1014 l 550 1014 z "},"‘":{"ha":313,"x_min":135,"x_max":338,"o":"m 338 1014 l 275 850 l 322 850 l 286 678 l 135 678 l 172 851 l 251 1014 l 338 1014 z "},"”":{"ha":513,"x_min":153,"x_max":568,"o":"m 365 696 l 428 860 l 381 860 l 417 1032 l 568 1032 l 531 858 l 451 696 l 365 696 m 153 696 l 215 860 l 169 860 l 206 1032 l 356 1032 l 319 858 l 240 696 l 153 696 z "},"’":{"ha":301,"x_min":154,"x_max":357,"o":"m 154 696 l 217 860 l 169 860 l 206 1032 l 357 1032 l 319 858 l 240 696 l 154 696 z "},"'":{"ha":304,"x_min":143,"x_max":339,"o":"m 143 694 l 208 1001 l 339 1001 l 274 694 l 143 694 z "},"r":{"ha":508,"x_min":0,"x_max":549,"o":"m 156 726 l 297 726 l 261 564 q 381 685 314 639 q 513 731 447 731 q 534 730 526 731 q 549 728 542 729 l 519 594 q 364 553 436 592 q 247 444 292 515 l 153 0 l 0 0 l 156 726 z "},"ŕ":{"ha":508,"x_min":0,"x_max":549,"o":"m 386 836 l 289 861 l 394 1014 l 540 1014 l 386 836 m 156 726 l 297 726 l 261 564 q 381 685 314 639 q 513 731 447 731 q 534 730 526 731 q 549 728 542 729 l 519 594 q 364 553 436 592 q 247 444 292 515 l 153 0 l 0 0 l 156 726 z "},"ř":{"ha":508,"x_min":0,"x_max":581,"o":"m 196 975 l 285 1014 l 378 926 l 508 1014 l 581 975 l 415 843 l 304 843 l 196 975 m 156 726 l 297 726 l 261 564 q 381 685 314 639 q 513 731 447 731 q 534 730 526 731 q 549 728 542 729 l 519 594 q 364 553 436 592 q 247 444 292 515 l 153 0 l 0 0 l 156 726 z "},"ŗ":{"ha":508,"x_min":-44,"x_max":549,"o":"m -44 -296 l 10 -189 l -35 -189 l -8 -67 l 122 -67 l 96 -189 l 26 -296 l -44 -296 m 156 726 l 297 726 l 261 564 q 381 685 314 639 q 513 731 447 731 q 534 730 526 731 q 549 728 542 729 l 519 594 q 364 553 436 592 q 247 444 292 515 l 153 0 l 0 0 l 156 726 z "},"®":{"ha":1183,"x_min":88,"x_max":1128,"o":"m 606 -10 q 399 28 493 -10 q 235 134 304 67 q 126 293 165 201 q 88 493 88 385 q 126 692 88 600 q 235 850 165 783 q 399 955 304 917 q 606 993 493 993 q 813 955 718 993 q 978 850 908 917 q 1088 692 1049 783 q 1128 493 1128 600 q 1088 293 1128 385 q 978 134 1049 201 q 813 28 908 67 q 606 -10 718 -10 m 606 50 q 784 82 701 50 q 928 172 867 114 q 1025 312 990 231 q 1060 492 1060 393 q 1026 665 1060 585 q 931 805 992 746 q 786 898 869 864 q 606 932 703 932 q 425 898 507 932 q 283 805 343 864 q 189 666 222 746 q 156 493 156 586 q 189 318 156 399 q 283 178 222 238 q 425 84 343 118 q 606 50 507 50 m 386 801 l 654 801 q 731 784 696 801 q 792 738 767 767 q 831 674 817 710 q 846 600 846 638 q 812 488 846 538 q 724 419 778 438 l 871 185 l 747 185 l 611 400 l 496 400 l 496 185 l 386 185 l 386 801 m 647 496 q 714 524 690 496 q 738 600 738 553 q 710 676 738 649 q 643 703 683 703 l 496 703 l 496 496 l 647 496 z "},"s":{"ha":663,"x_min":-35,"x_max":644,"o":"m 251 -14 q 90 15 167 -14 q -35 96 14 43 l 47 193 q 271 97 151 97 q 385 129 342 97 q 428 214 428 161 q 392 271 428 251 q 282 311 357 290 q 190 341 229 326 q 126 374 151 356 q 89 417 101 393 q 76 472 76 440 q 103 583 76 533 q 174 667 129 632 q 276 720 218 701 q 400 739 335 739 q 539 714 478 739 q 644 642 600 689 l 560 550 q 472 610 519 590 q 374 631 425 631 q 269 601 313 631 q 226 513 226 572 q 256 460 226 478 q 353 425 285 443 q 454 393 411 410 q 526 356 497 376 q 568 310 554 336 q 582 249 582 283 q 558 142 582 190 q 490 60 533 94 q 385 6 446 25 q 251 -14 324 -14 z "},"ﬆ":{"ha":1125,"x_min":-33,"x_max":1126,"o":"m 254 -14 q 169 -6 211 -14 q 90 15 128 1 q 21 47 53 29 q -33 86 -11 65 l 47 190 q 272 97 153 97 q 332 104 303 97 q 383 126 361 111 q 419 160 406 140 q 432 208 432 181 q 422 247 432 232 q 392 273 411 263 q 344 291 372 283 q 283 307 317 299 q 197 330 236 318 q 131 360 158 342 q 89 406 104 378 q 74 478 74 433 q 102 588 74 539 q 175 669 131 636 q 276 721 219 703 q 386 739 332 739 q 468 729 422 739 q 546 696 514 719 q 537 740 540 717 q 533 789 533 764 q 548 878 533 835 q 597 954 563 921 q 685 1008 631 988 q 821 1029 740 1029 q 963 993 925 1029 q 1001 890 1001 957 q 994 817 1001 858 q 978 726 988 775 l 1126 726 l 1101 608 l 953 608 l 867 203 q 865 192 865 196 q 864 182 864 188 q 880 142 864 154 q 922 129 896 129 q 981 140 951 129 q 1028 158 1011 151 l 1032 38 q 993 22 1015 31 q 946 6 971 14 q 893 -6 921 -1 q 839 -11 865 -11 q 739 17 779 -11 q 699 107 699 44 q 701 140 699 122 q 708 176 704 157 l 800 608 l 708 608 l 733 726 l 825 726 q 846 875 846 826 q 828 939 846 921 q 765 957 810 957 q 691 943 722 957 q 640 906 660 929 q 610 851 619 883 q 600 785 600 819 q 603 739 600 761 q 613 699 607 717 q 623 667 618 681 q 632 649 628 654 l 550 554 q 461 615 507 599 q 372 631 415 631 q 315 624 343 631 q 265 603 286 617 q 230 567 243 589 q 217 515 217 546 q 228 473 217 489 q 260 447 239 457 q 311 428 281 436 q 381 413 342 421 q 465 391 428 403 q 527 360 501 379 q 566 314 553 342 q 579 244 579 286 q 552 135 579 183 q 480 54 525 88 q 376 3 435 21 q 254 -14 317 -14 z "},"ś":{"ha":663,"x_min":-35,"x_max":644,"o":"m 424 836 l 326 861 l 432 1014 l 578 1014 l 424 836 m 251 -14 q 90 15 167 -14 q -35 96 14 43 l 47 193 q 271 97 151 97 q 385 129 342 97 q 428 214 428 161 q 392 271 428 251 q 282 311 357 290 q 190 341 229 326 q 126 374 151 356 q 89 417 101 393 q 76 472 76 440 q 103 583 76 533 q 174 667 129 632 q 276 720 218 701 q 400 739 335 739 q 539 714 478 739 q 644 642 600 689 l 560 550 q 472 610 519 590 q 374 631 425 631 q 269 601 313 631 q 226 513 226 572 q 256 460 226 478 q 353 425 285 443 q 454 393 411 410 q 526 356 497 376 q 568 310 554 336 q 582 249 582 283 q 558 142 582 190 q 490 60 533 94 q 385 6 446 25 q 251 -14 324 -14 z "},"š":{"ha":663,"x_min":-35,"x_max":644,"o":"m 251 975 l 340 1014 l 433 926 l 564 1014 l 636 975 l 471 843 l 360 843 l 251 975 m 251 -14 q 90 15 167 -14 q -35 96 14 43 l 47 193 q 271 97 151 97 q 385 129 342 97 q 428 214 428 161 q 392 271 428 251 q 282 311 357 290 q 190 341 229 326 q 126 374 151 356 q 89 417 101 393 q 76 472 76 440 q 103 583 76 533 q 174 667 129 632 q 276 720 218 701 q 400 739 335 739 q 539 714 478 739 q 644 642 600 689 l 560 550 q 472 610 519 590 q 374 631 425 631 q 269 601 313 631 q 226 513 226 572 q 256 460 226 478 q 353 425 285 443 q 454 393 411 410 q 526 356 497 376 q 568 310 554 336 q 582 249 582 283 q 558 142 582 190 q 490 60 533 94 q 385 6 446 25 q 251 -14 324 -14 z "},"ə":{"ha":794,"x_min":11,"x_max":746,"o":"m 300 -14 q 176 8 231 -14 q 85 69 122 31 q 30 160 49 107 q 11 274 11 213 q 17 343 11 306 q 36 413 24 381 l 583 413 q 585 432 585 422 q 586 451 586 442 q 542 578 586 531 q 428 625 497 625 q 313 594 369 625 q 226 515 257 564 l 104 553 q 168 627 131 593 q 251 686 206 661 q 350 725 297 711 q 458 739 403 739 q 581 715 526 739 q 671 650 635 692 q 726 553 707 608 q 746 435 746 497 q 712 267 746 347 q 618 124 678 186 q 476 24 558 61 q 300 -14 394 -14 m 325 99 q 403 115 365 99 q 473 160 440 131 q 530 228 506 189 q 567 315 554 268 l 167 315 q 164 295 164 304 q 164 275 164 286 q 208 147 164 196 q 325 99 253 99 z "},"ŝ":{"ha":663,"x_min":-35,"x_max":644,"o":"m 250 882 l 415 1014 l 526 1014 l 635 882 l 546 843 l 453 931 l 322 843 l 250 882 m 251 -14 q 90 15 167 -14 q -35 96 14 43 l 47 193 q 271 97 151 97 q 385 129 342 97 q 428 214 428 161 q 392 271 428 251 q 282 311 357 290 q 190 341 229 326 q 126 374 151 356 q 89 417 101 393 q 76 472 76 440 q 103 583 76 533 q 174 667 129 632 q 276 720 218 701 q 400 739 335 739 q 539 714 478 739 q 644 642 600 689 l 560 550 q 472 610 519 590 q 374 631 425 631 q 269 601 313 631 q 226 513 226 572 q 256 460 226 478 q 353 425 285 443 q 454 393 411 410 q 526 356 497 376 q 568 310 554 336 q 582 249 582 283 q 558 142 582 190 q 490 60 533 94 q 385 6 446 25 q 251 -14 324 -14 z "},"§":{"ha":703,"x_min":-8,"x_max":694,"o":"m 564 289 q 592 196 592 261 q 556 52 592 113 q 468 -47 521 -8 q 354 -104 415 -86 q 242 -122 293 -122 q 151 -108 192 -122 q 79 -74 110 -94 q 26 -29 49 -53 q -8 15 4 -6 l 110 110 q 181 44 143 64 q 265 24 218 24 q 323 33 294 24 q 375 59 351 42 q 413 102 399 76 q 428 160 428 128 q 418 197 428 183 q 394 219 408 211 q 360 230 379 226 q 322 235 340 233 q 156 292 214 242 q 97 429 97 342 q 118 525 97 488 q 154 582 139 563 q 133 627 142 597 q 125 694 125 657 q 153 811 125 757 q 229 906 182 865 q 336 969 276 946 q 457 993 396 993 q 552 978 513 993 q 619 940 592 963 q 665 889 647 917 q 694 836 683 861 l 564 781 q 517 838 553 819 q 438 857 482 857 q 381 847 408 857 q 331 819 353 838 q 295 775 308 801 q 282 717 282 749 q 313 653 282 669 q 390 635 343 636 q 476 624 433 633 q 551 592 518 614 q 606 535 585 569 q 626 449 626 500 q 620 398 626 422 q 605 353 614 374 q 585 315 596 332 q 564 289 574 299 m 244 429 q 266 373 244 390 q 317 349 288 356 q 379 340 347 342 q 431 328 411 338 q 464 369 450 343 q 478 424 478 396 q 468 465 478 449 q 442 492 458 482 q 407 507 426 503 q 369 511 388 511 q 323 515 346 511 q 288 526 300 519 q 258 485 272 511 q 244 429 244 460 z "},";":{"ha":310,"x_min":-11,"x_max":279,"o":"m 117 543 l 154 719 l 279 719 l 242 543 l 117 543 m -11 -135 l 51 8 l 3 8 l 38 178 l 174 178 l 138 8 l 60 -135 l -11 -135 z "},"⅞":{"ha":1174,"x_min":32,"x_max":1106,"o":"m 32 56 l 501 518 l 950 994 l 1008 932 l 547 475 l 90 -8 l 32 56 m 803 -7 q 724 5 760 -7 q 663 37 689 17 q 624 84 638 57 q 610 143 610 111 q 622 202 610 176 q 656 248 635 228 q 703 283 676 268 q 758 308 731 297 q 707 344 728 321 q 686 404 686 368 q 708 473 686 442 q 766 526 731 504 q 844 561 801 549 q 926 574 886 574 q 993 565 961 574 q 1050 538 1025 556 q 1090 497 1075 521 q 1106 442 1106 472 q 1069 359 1106 393 q 983 308 1033 325 q 1048 260 1024 290 q 1072 188 1072 231 q 1049 110 1072 146 q 989 48 1026 74 q 903 8 951 22 q 803 -7 854 -7 m 825 85 q 879 92 851 85 q 929 113 907 100 q 965 145 951 126 q 979 186 979 164 q 943 244 979 224 q 861 265 907 265 q 806 258 833 265 q 756 238 778 251 q 719 205 733 224 q 706 163 706 186 q 716 131 706 144 q 743 106 726 117 q 781 90 760 96 q 825 85 803 85 m 878 342 q 923 347 900 342 q 965 363 946 353 q 997 388 985 374 q 1010 422 1010 403 q 979 468 1010 451 q 908 485 949 485 q 818 463 858 485 q 778 404 778 442 q 787 378 778 389 q 810 358 796 367 q 842 346 824 350 q 878 342 860 342 m 481 922 l 161 922 l 181 1014 l 644 1014 l 200 442 l 96 442 l 481 922 z "},"⁷":{"ha":507,"x_min":99,"x_max":647,"o":"m 483 1036 l 165 1036 l 183 1128 l 647 1128 l 203 556 l 99 556 l 483 1036 z "},"₇":{"ha":506,"x_min":-43,"x_max":507,"o":"m 342 368 l 22 368 l 43 460 l 507 460 l 61 -114 l -43 -114 l 342 368 z "},"₆":{"ha":563,"x_min":-12,"x_max":482,"o":"m 451 107 q 428 19 451 61 q 367 -53 406 -22 q 278 -103 329 -85 q 172 -121 228 -121 q 36 -69 85 -121 q -12 76 -12 -18 q 11 229 -12 158 q 77 352 35 300 q 179 434 119 404 q 311 464 239 464 q 417 440 371 464 q 482 372 463 417 l 415 308 q 368 358 403 340 q 289 376 333 376 q 167 331 218 376 q 96 200 115 285 q 170 251 122 232 q 263 269 218 269 q 401 223 350 269 q 451 107 451 176 m 194 -37 q 256 -27 226 -37 q 310 1 286 -17 q 347 43 333 19 q 361 92 361 67 q 328 160 361 132 q 242 189 294 189 q 178 178 208 189 q 123 151 147 168 q 85 110 99 133 q 71 63 71 88 q 106 -8 71 22 q 194 -37 142 -37 z "},"⁶":{"ha":564,"x_min":128,"x_max":624,"o":"m 594 771 q 572 682 594 724 q 510 609 549 640 q 420 560 471 578 q 314 542 369 542 q 177 594 226 542 q 128 739 128 646 q 151 892 128 821 q 217 1016 175 964 q 319 1098 260 1068 q 451 1128 379 1128 q 557 1103 511 1128 q 624 1035 603 1079 l 557 972 q 508 1022 543 1003 q 429 1040 474 1040 q 308 994 360 1040 q 236 864 256 947 q 310 914 263 896 q 403 932 358 932 q 542 886 490 932 q 594 771 594 840 m 335 626 q 397 637 367 626 q 451 665 428 647 q 490 706 475 683 q 504 754 504 729 q 469 824 504 796 q 382 851 435 851 q 318 841 349 851 q 264 814 288 831 q 226 774 240 797 q 213 726 213 751 q 247 656 213 685 q 335 626 282 626 z "}," ":{"ha":336,"x_min":0,"x_max":0,"o":""},"£":{"ha":704,"x_min":4,"x_max":722,"o":"m 99 525 l 201 525 q 179 616 190 571 q 168 706 168 661 q 195 817 168 765 q 267 908 222 869 q 370 970 313 947 q 489 993 428 993 q 629 954 568 993 q 722 847 690 915 l 621 753 q 556 837 600 806 q 461 868 511 868 q 401 856 429 868 q 352 821 374 843 q 318 769 331 799 q 306 706 306 739 q 318 619 306 664 q 342 525 331 575 l 583 525 l 558 408 l 350 408 q 338 342 347 374 q 308 276 329 310 q 254 205 288 243 q 169 119 221 167 q 223 131 199 126 q 271 135 247 135 q 318 131 296 135 q 361 122 340 126 q 403 114 382 118 q 447 110 424 110 q 497 116 471 110 q 557 133 522 122 l 569 19 q 492 -10 533 0 q 413 -21 450 -21 q 354 -15 382 -21 q 299 -2 326 -10 q 242 11 271 6 q 182 17 214 17 q 103 9 149 17 q 15 -11 57 1 l 4 99 q 163 257 114 186 q 215 408 213 328 l 75 408 l 99 525 z "},"t":{"ha":493,"x_min":65,"x_max":494,"o":"m 206 -11 q 106 17 146 -11 q 65 108 65 46 q 71 154 65 132 l 168 608 l 75 608 l 101 726 l 192 726 l 243 965 l 396 965 l 344 726 l 494 726 l 469 608 l 321 608 l 235 203 q 232 182 232 189 q 249 142 232 154 q 289 129 265 129 q 350 140 321 129 q 394 158 379 151 l 400 38 q 315 3 368 18 q 206 -11 263 -11 z "},"ŧ":{"ha":493,"x_min":31,"x_max":494,"o":"m 50 482 l 140 482 l 168 608 l 76 608 l 101 726 l 193 726 l 244 965 l 397 965 l 346 726 l 494 726 l 471 608 l 321 608 l 293 482 l 444 482 l 424 389 l 274 389 l 238 221 q 234 199 235 207 q 233 185 233 192 q 249 142 233 156 q 290 129 265 129 q 350 140 321 129 q 394 158 379 151 l 401 38 q 315 3 368 18 q 207 -11 263 -11 q 106 17 146 -11 q 67 108 67 46 q 71 154 67 129 l 121 389 l 31 389 l 50 482 z "},"ť":{"ha":493,"x_min":65,"x_max":697,"o":"m 447 861 l 553 1014 l 697 1014 l 539 831 l 447 861 m 206 -11 q 106 17 146 -11 q 65 108 65 46 q 71 154 65 132 l 168 608 l 75 608 l 101 726 l 192 726 l 243 965 l 396 965 l 344 726 l 494 726 l 469 608 l 321 608 l 235 203 q 232 182 232 189 q 249 142 232 154 q 289 129 265 129 q 350 140 321 129 q 394 158 379 151 l 400 38 q 315 3 368 18 q 206 -11 263 -11 z "},"þ":{"ha":801,"x_min":-62,"x_max":756,"o":"m 210 986 l 367 986 q 360 955 364 975 q 350 909 356 935 q 338 853 344 883 q 326 794 332 824 q 294 646 311 726 q 377 715 329 686 q 494 744 425 744 q 608 719 558 744 q 690 653 657 694 q 739 557 722 611 q 756 446 756 503 q 724 283 756 367 q 636 129 693 199 q 501 15 579 60 q 329 -29 422 -29 q 219 -1 254 -29 q 169 61 183 26 q 136 -97 151 -25 q 123 -159 129 -128 q 111 -217 117 -190 q 101 -265 106 -244 q 94 -296 96 -286 l -62 -296 l 210 986 m 356 110 q 451 136 407 110 q 528 205 496 163 q 579 302 561 247 q 597 415 597 357 q 588 490 597 454 q 561 551 579 525 q 516 592 543 576 q 454 607 489 607 q 346 567 396 607 q 257 472 296 528 l 208 242 q 206 234 207 238 q 206 224 206 231 q 217 183 206 203 q 248 146 228 163 q 295 119 268 129 q 356 110 322 110 z "},"⅜":{"ha":1201,"x_min":78,"x_max":1131,"o":"m 265 425 q 132 456 182 425 q 78 540 82 486 l 143 607 q 152 580 143 594 q 178 551 161 565 q 222 528 196 538 q 285 519 249 519 q 344 526 315 519 q 395 544 374 532 q 430 573 417 556 q 443 611 443 590 q 395 668 443 649 q 264 688 347 688 l 233 688 l 250 772 l 281 772 q 424 794 369 772 q 478 863 478 817 q 445 912 478 894 q 372 929 413 929 q 278 909 319 929 q 207 857 236 889 l 163 931 q 206 967 181 951 q 263 993 232 982 q 326 1010 293 1004 q 390 1015 358 1015 q 527 976 475 1015 q 579 879 579 938 q 538 785 579 822 q 425 735 497 749 q 507 692 478 726 q 536 613 536 658 q 513 531 536 567 q 451 472 489 496 q 364 437 413 449 q 265 425 315 425 m 131 56 l 600 518 l 1049 994 l 1107 932 l 646 475 l 189 -8 l 131 56 m 828 -7 q 749 5 785 -7 q 688 37 714 17 q 649 84 663 57 q 635 143 635 111 q 647 202 635 176 q 681 248 660 228 q 728 283 701 268 q 783 308 756 297 q 732 344 753 321 q 711 404 711 368 q 733 473 711 442 q 791 526 756 504 q 869 561 826 549 q 951 574 911 574 q 1018 565 986 574 q 1075 538 1050 556 q 1115 497 1100 521 q 1131 442 1131 472 q 1094 359 1131 393 q 1008 308 1058 325 q 1073 260 1049 290 q 1097 188 1097 231 q 1074 110 1097 146 q 1014 48 1051 74 q 928 8 976 22 q 828 -7 879 -7 m 850 85 q 904 92 876 85 q 954 113 932 100 q 990 145 976 126 q 1004 186 1004 164 q 968 244 1004 224 q 886 265 932 265 q 831 258 858 265 q 781 238 803 251 q 744 205 758 224 q 731 163 731 186 q 741 131 731 144 q 768 106 751 117 q 806 90 785 96 q 850 85 828 85 m 903 342 q 948 347 925 342 q 990 363 971 353 q 1022 388 1010 374 q 1035 422 1035 403 q 1004 468 1035 451 q 933 485 974 485 q 843 463 883 485 q 803 404 803 442 q 812 378 803 389 q 835 358 821 367 q 867 346 849 350 q 903 342 885 342 z "},"³":{"ha":535,"x_min":90,"x_max":592,"o":"m 283 540 q 156 571 204 540 q 90 654 108 601 l 156 721 q 165 693 157 708 q 192 665 174 678 q 237 642 210 651 q 301 633 264 633 q 358 640 331 633 q 408 658 386 646 q 442 686 429 669 q 456 724 456 703 q 408 783 456 764 q 278 801 361 801 l 246 801 l 264 886 l 294 886 q 436 908 382 886 q 490 975 490 931 q 458 1026 490 1010 q 385 1043 426 1043 q 292 1024 333 1043 q 219 972 250 1004 l 176 1044 q 220 1081 194 1065 q 276 1107 246 1096 q 338 1124 306 1118 q 403 1129 371 1129 q 540 1091 489 1129 q 592 990 592 1053 q 551 899 592 936 q 439 849 510 863 q 520 807 492 840 q 549 725 549 774 q 525 645 549 679 q 463 588 501 611 q 378 552 425 564 q 283 540 331 540 z "},"¾":{"ha":1163,"x_min":76,"x_max":1142,"o":"m 264 425 q 131 456 181 425 q 76 540 81 486 l 142 607 q 151 580 142 594 q 177 551 160 565 q 221 528 194 538 q 283 519 247 519 q 343 526 314 519 q 394 544 372 532 q 428 573 415 556 q 442 611 442 590 q 394 668 442 649 q 263 688 346 688 l 232 688 l 249 772 l 279 772 q 422 794 368 772 q 476 863 476 817 q 444 912 476 894 q 371 929 411 929 q 276 909 318 929 q 206 857 235 889 l 161 931 q 205 967 179 951 q 261 993 231 982 q 324 1010 292 1004 q 389 1015 357 1015 q 526 976 474 1015 q 578 879 578 938 q 537 785 578 822 q 424 735 496 749 q 506 692 476 726 q 535 613 535 658 q 511 531 535 567 q 449 472 488 496 q 363 437 411 449 q 264 425 314 425 m 879 135 l 585 135 l 604 224 l 1001 575 l 1065 575 l 990 225 l 1071 225 l 1051 135 l 972 135 l 943 0 l 851 0 l 879 135 m 903 225 l 951 457 l 696 225 l 903 225 m 165 56 l 635 518 l 1083 994 l 1142 932 l 681 475 l 224 -8 l 165 56 z "},"™":{"ha":1063,"x_min":181,"x_max":1082,"o":"m 532 888 l 407 888 l 342 578 l 240 578 l 306 888 l 181 888 l 203 989 l 554 989 l 532 888 m 614 986 l 761 986 l 799 753 l 933 986 l 1082 986 l 994 578 l 893 578 l 953 853 l 814 636 l 733 636 l 686 853 l 628 578 l 526 578 l 614 986 z "},"²":{"ha":544,"x_min":74,"x_max":615,"o":"m 74 549 q 103 646 85 604 q 148 719 121 688 q 213 774 175 750 q 301 817 251 797 q 374 844 338 831 q 441 874 411 857 q 490 913 471 890 q 508 968 508 935 q 483 1019 508 1000 q 406 1039 457 1039 q 299 1015 344 1039 q 226 968 254 992 l 182 1035 q 216 1063 193 1046 q 272 1094 239 1079 q 347 1119 304 1108 q 438 1129 389 1129 q 571 1091 526 1129 q 615 988 615 1053 q 599 908 615 942 q 555 850 583 875 q 485 806 526 825 q 394 771 444 788 q 283 710 317 746 q 242 639 249 674 l 531 639 l 511 549 l 74 549 z "},"⅔":{"ha":1210,"x_min":60,"x_max":1149,"o":"m 60 435 q 88 532 71 490 q 131 605 106 574 q 193 659 157 636 q 278 701 229 682 q 350 728 314 715 q 415 758 386 742 q 461 798 443 775 q 479 854 479 821 q 453 906 479 886 q 379 925 428 925 q 277 901 321 925 q 207 854 233 878 l 163 921 q 195 949 172 932 q 250 980 218 965 q 323 1005 282 994 q 411 1015 364 1015 q 539 976 497 1015 q 581 874 581 938 q 566 796 581 829 q 524 737 551 763 q 458 692 497 711 q 369 656 419 672 q 260 595 293 631 q 221 525 228 560 l 500 525 l 481 435 l 60 435 m 151 56 l 621 518 l 1069 994 l 1128 932 l 667 475 l 210 -8 l 151 56 m 836 -7 q 702 23 753 -7 q 647 108 651 53 l 713 174 q 722 147 713 161 q 748 118 731 132 q 792 95 765 104 q 854 86 818 86 q 915 92 886 86 q 965 110 943 99 q 1000 139 988 122 q 1013 176 1013 156 q 965 235 1013 215 q 835 254 918 254 l 803 254 l 821 339 l 851 339 q 993 360 939 339 q 1047 429 1047 382 q 1015 478 1047 461 q 943 496 983 496 q 849 476 890 496 q 776 424 807 456 l 733 497 q 832 560 769 538 q 960 582 894 582 q 1097 543 1046 582 q 1149 446 1149 504 q 1108 351 1149 388 q 996 300 1068 315 q 1077 258 1049 292 q 1106 179 1106 224 q 1082 98 1106 133 q 1020 40 1058 63 q 934 5 982 17 q 836 -7 886 -7 z "},"u":{"ha":814,"x_min":39,"x_max":778,"o":"m 208 -14 q 39 167 39 -14 q 53 282 39 218 l 149 726 l 300 726 l 211 313 q 201 229 201 268 q 297 117 201 117 q 420 157 358 117 q 529 274 482 197 l 625 726 l 778 726 l 663 181 q 658 160 658 168 q 690 131 658 133 l 664 0 q 628 -5 643 -3 q 600 -7 613 -7 q 535 10 558 -7 q 511 63 511 28 q 514 92 511 74 q 524 147 517 110 q 379 27 461 68 q 208 -14 297 -14 z "},"ú":{"ha":814,"x_min":39,"x_max":778,"o":"m 481 836 l 383 861 l 489 1014 l 635 1014 l 481 836 m 208 -14 q 39 167 39 -14 q 53 282 39 218 l 149 726 l 300 726 l 211 313 q 201 229 201 268 q 297 117 201 117 q 420 157 358 117 q 529 274 482 197 l 625 726 l 778 726 l 663 181 q 658 160 658 168 q 690 131 658 133 l 664 0 q 628 -5 643 -3 q 600 -7 613 -7 q 535 10 558 -7 q 511 63 511 28 q 514 92 511 74 q 524 147 517 110 q 379 27 461 68 q 208 -14 297 -14 z "},"ŭ":{"ha":814,"x_min":39,"x_max":778,"o":"m 208 -14 q 39 167 39 -14 q 53 282 39 218 l 149 726 l 300 726 l 211 313 q 201 229 201 268 q 297 117 201 117 q 420 157 358 117 q 529 274 482 197 l 625 726 l 778 726 l 663 181 q 658 160 658 168 q 690 131 658 133 l 664 0 q 628 -5 643 -3 q 600 -7 613 -7 q 535 10 558 -7 q 511 63 511 28 q 514 92 511 74 q 524 147 517 110 q 379 27 461 68 q 208 -14 297 -14 m 485 915 q 542 943 514 915 q 582 1014 569 971 l 667 1014 q 640 947 658 978 q 594 892 621 915 q 536 857 568 869 q 469 844 504 844 q 374 880 410 844 q 339 974 339 915 q 340 994 339 985 q 344 1014 342 1004 l 429 1014 q 427 1001 428 1007 q 426 989 426 996 q 442 937 426 958 q 485 915 458 915 z "},"û":{"ha":814,"x_min":39,"x_max":778,"o":"m 308 882 l 474 1014 l 585 1014 l 693 882 l 604 843 l 511 931 l 381 843 l 308 882 m 208 -14 q 39 167 39 -14 q 53 282 39 218 l 149 726 l 300 726 l 211 313 q 201 229 201 268 q 297 117 201 117 q 420 157 358 117 q 529 274 482 197 l 625 726 l 778 726 l 663 181 q 658 160 658 168 q 690 131 658 133 l 664 0 q 628 -5 643 -3 q 600 -7 613 -7 q 535 10 558 -7 q 511 63 511 28 q 514 92 511 74 q 524 147 517 110 q 379 27 461 68 q 208 -14 297 -14 z "},"ü":{"ha":814,"x_min":39,"x_max":778,"o":"m 300 854 l 333 1007 l 460 1007 l 428 854 l 300 854 m 539 854 l 571 1007 l 697 1007 l 665 854 l 539 854 m 208 -14 q 39 167 39 -14 q 53 282 39 218 l 149 726 l 300 726 l 211 313 q 201 229 201 268 q 297 117 201 117 q 420 157 358 117 q 529 274 482 197 l 625 726 l 778 726 l 663 181 q 658 160 658 168 q 690 131 658 133 l 664 0 q 628 -5 643 -3 q 600 -7 613 -7 q 535 10 558 -7 q 511 63 511 28 q 514 92 511 74 q 524 147 517 110 q 379 27 461 68 q 208 -14 297 -14 z "},"ù":{"ha":814,"x_min":39,"x_max":778,"o":"m 208 -14 q 39 167 39 -14 q 53 282 39 218 l 149 726 l 300 726 l 211 313 q 201 229 201 268 q 297 117 201 117 q 420 157 358 117 q 529 274 482 197 l 625 726 l 778 726 l 663 181 q 658 160 658 168 q 690 131 658 133 l 664 0 q 628 -5 643 -3 q 600 -7 613 -7 q 535 10 558 -7 q 511 63 511 28 q 514 92 511 74 q 524 147 517 110 q 379 27 461 68 q 208 -14 297 -14 m 368 1014 l 513 1014 l 554 861 l 449 835 l 368 1014 z "},"ű":{"ha":814,"x_min":39,"x_max":778,"o":"m 208 -14 q 39 167 39 -14 q 53 282 39 218 l 149 726 l 300 726 l 211 313 q 201 229 201 268 q 297 117 201 117 q 420 157 358 117 q 529 274 482 197 l 625 726 l 778 726 l 663 181 q 658 160 658 168 q 690 131 658 133 l 664 0 q 628 -5 643 -3 q 600 -7 613 -7 q 535 10 558 -7 q 511 63 511 28 q 514 92 511 74 q 524 147 517 110 q 379 27 461 68 q 208 -14 297 -14 m 365 838 l 290 861 l 389 1014 l 513 1014 l 365 838 m 564 838 l 490 861 l 588 1014 l 711 1014 l 564 838 z "},"ū":{"ha":814,"x_min":39,"x_max":778,"o":"m 208 -14 q 39 167 39 -14 q 53 282 39 218 l 149 726 l 300 726 l 211 313 q 201 229 201 268 q 297 117 201 117 q 420 157 358 117 q 529 274 482 197 l 625 726 l 778 726 l 663 181 q 658 160 658 168 q 690 131 658 133 l 664 0 q 628 -5 643 -3 q 600 -7 613 -7 q 535 10 558 -7 q 511 63 511 28 q 514 92 511 74 q 524 147 517 110 q 379 27 461 68 q 208 -14 297 -14 m 289 892 l 308 989 l 701 989 l 681 892 l 289 892 z "},"_":{"ha":653,"x_min":-37,"x_max":481,"o":"m -37 -137 l -8 0 l 481 0 l 451 -137 l -37 -137 z "}," ":{"ha":336,"x_min":0,"x_max":0,"o":""},"­":{"ha":793,"x_min":60,"x_max":717,"o":"m 60 311 l 89 449 l 717 449 l 686 311 l 60 311 z "},"Ş":{"ha":819,"x_min":-24,"x_max":835,"o":"m 200 -175 q 244 -194 214 -185 q 310 -203 275 -203 q 374 -190 350 -203 q 397 -146 397 -176 q 381 -117 397 -125 q 338 -108 364 -108 q 278 -114 310 -108 q 228 -125 246 -119 l 310 -8 q 125 29 211 -4 q -24 124 39 63 l 78 257 q 116 217 89 239 q 181 176 143 194 q 267 144 219 157 q 369 131 315 131 q 522 170 469 131 q 575 281 575 210 q 559 333 575 311 q 515 371 543 354 q 445 401 486 388 q 354 429 404 414 q 185 508 243 461 q 128 640 128 554 q 161 789 128 724 q 251 900 194 854 q 381 969 307 946 q 539 993 456 993 q 710 961 635 993 q 835 882 785 929 l 738 754 q 707 787 729 769 q 654 819 685 804 q 585 844 624 835 q 506 854 547 854 q 349 809 400 854 q 299 693 299 764 q 311 646 299 665 q 349 612 324 626 q 410 585 374 597 q 496 560 447 572 q 601 525 554 544 q 681 479 647 506 q 732 416 714 453 q 750 328 750 379 q 720 185 750 246 q 640 82 690 124 q 522 18 589 40 q 381 -8 454 -4 l 336 -62 q 359 -58 347 -60 q 381 -57 371 -57 q 447 -75 421 -57 q 472 -131 472 -93 q 426 -225 472 -187 q 286 -262 379 -262 q 211 -254 244 -262 q 154 -235 178 -246 l 200 -175 z "},"ş":{"ha":663,"x_min":-35,"x_max":644,"o":"m 106 -175 q 150 -194 119 -185 q 215 -203 181 -203 q 279 -190 256 -203 q 303 -146 303 -176 q 286 -117 303 -125 q 243 -108 269 -108 q 183 -114 215 -108 q 133 -125 151 -119 l 213 -11 q 72 22 138 -6 q -35 96 7 49 l 47 193 q 271 97 151 97 q 385 129 342 97 q 428 214 428 161 q 392 271 428 251 q 282 311 357 290 q 190 341 229 326 q 126 374 151 356 q 89 417 101 393 q 76 472 76 440 q 103 583 76 533 q 174 667 129 632 q 276 720 218 701 q 400 739 335 739 q 539 714 478 739 q 644 642 600 689 l 560 550 q 472 610 519 590 q 374 631 425 631 q 269 601 313 631 q 226 513 226 572 q 256 460 226 478 q 353 425 285 443 q 454 393 411 410 q 526 356 497 376 q 568 310 554 336 q 582 249 582 283 q 560 148 582 194 q 499 67 539 101 q 405 13 460 33 q 283 -12 350 -8 l 242 -62 q 265 -58 253 -60 q 286 -57 276 -57 q 352 -75 326 -57 q 378 -131 378 -93 q 331 -225 378 -187 q 192 -262 285 -262 q 117 -254 150 -262 q 60 -235 83 -246 l 106 -175 z "},"Ţ":{"ha":817,"x_min":111,"x_max":914,"o":"m 419 849 l 111 849 l 140 986 l 914 986 l 885 849 l 576 849 l 396 0 l 361 0 l 310 -62 q 333 -58 321 -60 q 354 -57 344 -57 q 420 -75 394 -57 q 446 -131 446 -93 q 399 -225 446 -187 q 260 -262 353 -262 q 185 -254 218 -262 q 128 -235 151 -246 l 174 -175 q 218 -194 188 -185 q 283 -203 249 -203 q 347 -190 324 -203 q 371 -146 371 -176 q 354 -117 371 -125 q 311 -108 338 -108 q 251 -114 283 -108 q 201 -125 219 -119 l 290 0 l 240 0 l 419 849 z "},"ţ":{"ha":493,"x_min":11,"x_max":494,"o":"m 57 -175 q 101 -194 71 -185 q 167 -203 132 -203 q 231 -190 207 -203 q 254 -146 254 -176 q 238 -117 254 -125 q 194 -108 221 -108 q 135 -114 167 -108 q 85 -125 103 -119 l 168 -8 q 94 27 122 -1 q 65 108 65 56 q 71 154 65 132 l 168 608 l 75 608 l 101 726 l 192 726 l 243 965 l 396 965 l 344 726 l 494 726 l 469 608 l 321 608 l 235 203 q 232 182 232 189 q 249 142 232 154 q 289 129 265 129 q 350 140 321 129 q 394 158 379 151 l 400 38 q 328 7 372 19 q 236 -10 285 -6 l 193 -62 q 216 -58 204 -60 q 238 -57 228 -57 q 303 -75 278 -57 q 329 -131 329 -93 q 283 -225 329 -187 q 143 -262 236 -262 q 68 -254 101 -262 q 11 -235 35 -246 l 57 -175 z "},"Ș":{"ha":819,"x_min":-24,"x_max":835,"o":"m 219 -296 l 274 -189 l 229 -189 l 256 -67 l 386 -67 l 360 -189 l 290 -296 l 219 -296 m 338 -10 q 137 24 231 -10 q -24 124 43 58 l 78 257 q 116 217 89 239 q 181 176 143 194 q 267 144 219 157 q 369 131 315 131 q 522 170 469 131 q 575 281 575 210 q 559 333 575 311 q 515 371 543 354 q 445 401 486 388 q 354 429 404 414 q 185 508 243 461 q 128 640 128 554 q 161 789 128 724 q 251 900 194 854 q 381 969 307 946 q 539 993 456 993 q 710 961 635 993 q 835 882 785 929 l 738 754 q 707 787 729 769 q 654 819 685 804 q 585 844 624 835 q 506 854 547 854 q 349 809 400 854 q 299 693 299 764 q 311 646 299 665 q 349 612 324 626 q 410 585 374 597 q 496 560 447 572 q 601 525 554 544 q 681 479 647 506 q 732 416 714 453 q 750 328 750 379 q 716 176 750 240 q 624 71 682 113 q 492 10 567 29 q 338 -10 418 -10 z "},"ș":{"ha":663,"x_min":-35,"x_max":644,"o":"m 131 -296 l 185 -189 l 140 -189 l 167 -67 l 297 -67 l 271 -189 l 201 -296 l 131 -296 m 251 -14 q 90 15 167 -14 q -35 96 14 43 l 47 193 q 271 97 151 97 q 385 129 342 97 q 428 214 428 161 q 392 271 428 251 q 282 311 357 290 q 190 341 229 326 q 126 374 151 356 q 89 417 101 393 q 76 472 76 440 q 103 583 76 533 q 174 667 129 632 q 276 720 218 701 q 400 739 335 739 q 539 714 478 739 q 644 642 600 689 l 560 550 q 472 610 519 590 q 374 631 425 631 q 269 601 313 631 q 226 513 226 572 q 256 460 226 478 q 353 425 285 443 q 454 393 411 410 q 526 356 497 376 q 568 310 554 336 q 582 249 582 283 q 558 142 582 190 q 490 60 533 94 q 385 6 446 25 q 251 -14 324 -14 z "},"Ț":{"ha":818,"x_min":113,"x_max":915,"o":"m 204 -296 l 258 -189 l 214 -189 l 240 -67 l 371 -67 l 344 -189 l 275 -296 l 204 -296 m 421 849 l 113 849 l 142 986 l 915 986 l 886 849 l 578 849 l 397 0 l 242 0 l 421 849 z "},"ț":{"ha":493,"x_min":65,"x_max":494,"o":"m 89 -296 l 143 -189 l 99 -189 l 125 -67 l 256 -67 l 229 -189 l 160 -296 l 89 -296 m 206 -11 q 106 17 146 -11 q 65 108 65 46 q 71 154 65 132 l 168 608 l 75 608 l 101 726 l 192 726 l 243 965 l 396 965 l 344 726 l 494 726 l 469 608 l 321 608 l 235 203 q 232 182 232 189 q 249 142 232 154 q 289 129 265 129 q 350 140 321 129 q 394 158 379 151 l 400 38 q 315 3 368 18 q 206 -11 263 -11 z "},"μ":{"ha":825,"x_min":-62,"x_max":786,"o":"m 154 726 l 307 726 l 219 313 q 208 229 208 264 q 308 117 208 117 q 428 157 367 117 q 538 274 490 197 l 633 726 l 786 726 l 671 181 q 669 169 669 174 q 668 160 668 165 q 704 131 668 132 l 675 0 q 638 -5 654 -3 q 608 -7 621 -7 q 543 11 567 -7 q 519 61 519 29 q 522 90 519 72 q 533 147 524 108 q 484 89 514 118 q 419 37 454 60 q 347 0 385 14 q 272 -14 308 -14 q 192 13 219 -14 q 161 81 165 40 l 90 -294 l -62 -294 l 154 726 z "},"∕":{"ha":818,"x_min":-86,"x_max":936,"o":"m -86 65 l 863 994 l 936 921 l -12 -8 l -86 65 z "},"∙":{"ha":293,"x_min":65,"x_max":232,"o":"m 65 338 l 106 528 l 232 528 l 192 338 l 65 338 z "},"ų":{"ha":814,"x_min":39,"x_max":778,"o":"m 208 -14 q 39 167 39 -14 q 53 282 39 218 l 149 726 l 300 726 l 211 313 q 201 229 201 268 q 297 117 201 117 q 420 157 358 117 q 529 274 482 197 l 625 726 l 778 726 l 663 181 q 658 160 658 168 q 690 131 658 133 l 664 0 q 563 -72 593 -40 q 532 -132 532 -103 q 599 -181 532 -176 l 549 -261 q 463 -225 490 -251 q 435 -164 435 -199 q 467 -83 435 -124 q 567 -3 499 -43 q 511 63 511 8 q 514 92 511 74 q 524 147 517 110 q 379 27 461 68 q 208 -14 297 -14 z "},"ů":{"ha":814,"x_min":39,"x_max":778,"o":"m 365 893 q 407 981 365 949 q 510 1014 449 1014 q 584 992 558 1014 q 610 932 610 971 q 569 844 610 878 q 467 811 529 811 q 392 833 419 811 q 365 893 365 856 m 499 964 q 454 947 474 964 q 435 904 435 931 q 447 874 435 886 q 478 861 458 861 q 522 878 501 861 q 543 922 543 896 q 531 953 543 942 q 499 964 518 964 m 208 -14 q 39 167 39 -14 q 53 282 39 218 l 149 726 l 300 726 l 211 313 q 201 229 201 268 q 297 117 201 117 q 420 157 358 117 q 529 274 482 197 l 625 726 l 778 726 l 663 181 q 658 160 658 168 q 690 131 658 133 l 664 0 q 628 -5 643 -3 q 600 -7 613 -7 q 535 10 558 -7 q 511 63 511 28 q 514 92 511 74 q 524 147 517 110 q 379 27 461 68 q 208 -14 297 -14 z "},"ũ":{"ha":814,"x_min":39,"x_max":778,"o":"m 208 -14 q 39 167 39 -14 q 53 282 39 218 l 149 726 l 300 726 l 211 313 q 201 229 201 268 q 297 117 201 117 q 420 157 358 117 q 529 274 482 197 l 625 726 l 778 726 l 663 181 q 658 160 658 168 q 690 131 658 133 l 664 0 q 628 -5 643 -3 q 600 -7 613 -7 q 535 10 558 -7 q 511 63 511 28 q 514 92 511 74 q 524 147 517 110 q 379 27 461 68 q 208 -14 297 -14 m 561 854 q 511 863 532 854 q 474 884 490 872 q 440 905 457 896 q 401 914 424 914 q 365 904 379 914 q 341 883 350 894 q 328 860 332 871 q 325 847 325 849 l 238 847 q 253 885 240 858 q 288 938 265 911 q 343 986 311 965 q 417 1007 375 1007 q 465 997 446 1007 q 501 976 485 988 q 535 956 518 965 q 575 946 551 946 q 616 956 600 946 q 642 978 632 965 q 658 1001 653 990 q 663 1014 663 1011 l 749 1014 q 733 979 746 1006 q 697 925 721 953 q 640 876 674 897 q 561 854 606 854 z "},"v":{"ha":718,"x_min":74,"x_max":736,"o":"m 74 726 l 232 726 l 296 129 q 476 428 401 283 q 593 726 550 572 l 736 726 q 585 363 686 544 q 343 0 485 182 l 181 0 l 74 726 z "},"w":{"ha":1081,"x_min":64,"x_max":1107,"o":"m 64 726 l 217 726 l 318 136 q 354 186 335 158 q 392 242 374 214 q 428 299 411 271 q 460 349 446 326 l 371 726 l 515 726 l 561 496 q 586 549 572 518 q 613 611 600 579 q 638 673 626 643 q 656 726 649 703 l 789 726 q 615 353 729 535 l 663 151 q 764 299 718 228 q 847 439 810 369 q 913 579 883 508 q 965 726 942 650 l 1107 726 q 946 363 1051 544 q 693 0 840 182 l 557 0 l 511 219 q 478 170 497 200 q 437 109 458 140 q 395 49 415 78 q 358 0 375 19 l 208 0 l 64 726 z "},"ẃ":{"ha":1081,"x_min":64,"x_max":1107,"o":"m 618 836 l 521 861 l 626 1014 l 772 1014 l 618 836 m 64 726 l 217 726 l 318 136 q 354 186 335 158 q 392 242 374 214 q 428 299 411 271 q 460 349 446 326 l 371 726 l 515 726 l 561 496 q 586 549 572 518 q 613 611 600 579 q 638 673 626 643 q 656 726 649 703 l 789 726 q 615 353 729 535 l 663 151 q 764 299 718 228 q 847 439 810 369 q 913 579 883 508 q 965 726 942 650 l 1107 726 q 946 363 1051 544 q 693 0 840 182 l 557 0 l 511 219 q 478 170 497 200 q 437 109 458 140 q 395 49 415 78 q 358 0 375 19 l 208 0 l 64 726 z "},"ŵ":{"ha":1081,"x_min":64,"x_max":1107,"o":"m 424 882 l 589 1014 l 700 1014 l 808 882 l 719 843 l 626 931 l 496 843 l 424 882 m 64 726 l 217 726 l 318 136 q 354 186 335 158 q 392 242 374 214 q 428 299 411 271 q 460 349 446 326 l 371 726 l 515 726 l 561 496 q 586 549 572 518 q 613 611 600 579 q 638 673 626 643 q 656 726 649 703 l 789 726 q 615 353 729 535 l 663 151 q 764 299 718 228 q 847 439 810 369 q 913 579 883 508 q 965 726 942 650 l 1107 726 q 946 363 1051 544 q 693 0 840 182 l 557 0 l 511 219 q 478 170 497 200 q 437 109 458 140 q 395 49 415 78 q 358 0 375 19 l 208 0 l 64 726 z "},"ẅ":{"ha":1081,"x_min":64,"x_max":1107,"o":"m 419 854 l 453 1007 l 579 1007 l 547 854 l 419 854 m 658 854 l 690 1007 l 817 1007 l 785 854 l 658 854 m 64 726 l 217 726 l 318 136 q 354 186 335 158 q 392 242 374 214 q 428 299 411 271 q 460 349 446 326 l 371 726 l 515 726 l 561 496 q 586 549 572 518 q 613 611 600 579 q 638 673 626 643 q 656 726 649 703 l 789 726 q 615 353 729 535 l 663 151 q 764 299 718 228 q 847 439 810 369 q 913 579 883 508 q 965 726 942 650 l 1107 726 q 946 363 1051 544 q 693 0 840 182 l 557 0 l 511 219 q 478 170 497 200 q 437 109 458 140 q 395 49 415 78 q 358 0 375 19 l 208 0 l 64 726 z "},"ẁ":{"ha":1081,"x_min":64,"x_max":1107,"o":"m 64 726 l 217 726 l 318 136 q 354 186 335 158 q 392 242 374 214 q 428 299 411 271 q 460 349 446 326 l 371 726 l 515 726 l 561 496 q 586 549 572 518 q 613 611 600 579 q 638 673 626 643 q 656 726 649 703 l 789 726 q 615 353 729 535 l 663 151 q 764 299 718 228 q 847 439 810 369 q 913 579 883 508 q 965 726 942 650 l 1107 726 q 946 363 1051 544 q 693 0 840 182 l 557 0 l 511 219 q 478 170 497 200 q 437 109 458 140 q 395 49 415 78 q 358 0 375 19 l 208 0 l 64 726 m 504 1014 l 649 1014 l 690 861 l 585 835 l 504 1014 z "},"x":{"ha":696,"x_min":-78,"x_max":747,"o":"m 253 363 l 79 726 l 238 726 l 349 478 l 356 454 l 372 478 l 589 726 l 747 726 l 419 363 l 596 0 l 436 0 l 324 247 l 315 269 l 300 247 l 82 0 l -78 0 l 253 363 z "},"y":{"ha":708,"x_min":-56,"x_max":735,"o":"m -56 -194 q 18 -183 -12 -190 q 72 -162 49 -175 q 116 -127 96 -149 q 158 -74 136 -106 l 199 -15 l 68 726 l 225 726 l 307 135 l 354 213 q 442 363 406 296 q 506 490 479 431 q 551 607 532 550 q 585 726 569 664 l 735 726 q 694 601 715 660 q 642 478 674 543 q 563 334 610 414 q 449 143 517 254 l 338 -36 q 246 -167 289 -114 q 159 -252 203 -219 q 68 -299 115 -285 q -35 -314 21 -314 l -56 -194 z "},"ý":{"ha":708,"x_min":-56,"x_max":735,"o":"m -56 -194 q 18 -183 -12 -190 q 72 -162 49 -175 q 116 -127 96 -149 q 158 -74 136 -106 l 199 -15 l 68 726 l 225 726 l 307 135 l 354 213 q 442 363 406 296 q 506 490 479 431 q 551 607 532 550 q 585 726 569 664 l 735 726 q 694 601 715 660 q 642 478 674 543 q 563 334 610 414 q 449 143 517 254 l 338 -36 q 246 -167 289 -114 q 159 -252 203 -219 q 68 -299 115 -285 q -35 -314 21 -314 l -56 -194 m 433 836 l 336 861 l 442 1014 l 588 1014 l 433 836 z "},"ŷ":{"ha":708,"x_min":-56,"x_max":735,"o":"m -56 -194 q 18 -183 -12 -190 q 72 -162 49 -175 q 116 -127 96 -149 q 158 -74 136 -106 l 199 -15 l 68 726 l 225 726 l 307 135 l 354 213 q 442 363 406 296 q 506 490 479 431 q 551 607 532 550 q 585 726 569 664 l 735 726 q 694 601 715 660 q 642 478 674 543 q 563 334 610 414 q 449 143 517 254 l 338 -36 q 246 -167 289 -114 q 159 -252 203 -219 q 68 -299 115 -285 q -35 -314 21 -314 l -56 -194 m 242 882 l 407 1014 l 518 1014 l 626 882 l 538 843 l 444 931 l 314 843 l 242 882 z "},"ÿ":{"ha":708,"x_min":-56,"x_max":735,"o":"m -56 -194 q 18 -183 -12 -190 q 72 -162 49 -175 q 116 -127 96 -149 q 158 -74 136 -106 l 199 -15 l 68 726 l 225 726 l 307 135 l 354 213 q 442 363 406 296 q 506 490 479 431 q 551 607 532 550 q 585 726 569 664 l 735 726 q 694 601 715 660 q 642 478 674 543 q 563 334 610 414 q 449 143 517 254 l 338 -36 q 246 -167 289 -114 q 159 -252 203 -219 q 68 -299 115 -285 q -35 -314 21 -314 l -56 -194 m 238 854 l 271 1007 l 397 1007 l 365 854 l 238 854 m 476 854 l 508 1007 l 635 1007 l 603 854 l 476 854 z "},"¥":{"ha":933,"x_min":136,"x_max":1006,"o":"m 663 540 l 765 540 l 743 439 l 588 439 l 522 353 l 514 313 l 717 313 l 696 211 l 492 211 l 447 0 l 292 0 l 336 211 l 136 211 l 158 313 l 358 313 l 368 356 l 342 439 l 185 439 l 207 540 l 310 540 l 158 986 l 328 986 l 474 492 l 833 986 l 1006 986 l 663 540 z "},"ỳ":{"ha":708,"x_min":-56,"x_max":735,"o":"m -56 -194 q 18 -183 -12 -190 q 72 -162 49 -175 q 116 -127 96 -149 q 158 -74 136 -106 l 199 -15 l 68 726 l 225 726 l 307 135 l 354 213 q 442 363 406 296 q 506 490 479 431 q 551 607 532 550 q 585 726 569 664 l 735 726 q 694 601 715 660 q 642 478 674 543 q 563 334 610 414 q 449 143 517 254 l 338 -36 q 246 -167 289 -114 q 159 -252 203 -219 q 68 -299 115 -285 q -35 -314 21 -314 l -56 -194 m 310 1014 l 454 1014 l 496 861 l 390 835 l 310 1014 z "},"ỹ":{"ha":708,"x_min":-56,"x_max":735,"o":"m -56 -194 q 18 -183 -12 -190 q 72 -162 49 -175 q 116 -127 96 -149 q 158 -74 136 -106 l 199 -15 l 68 726 l 225 726 l 307 135 l 354 213 q 442 363 406 296 q 506 490 479 431 q 551 607 532 550 q 585 726 569 664 l 735 726 q 694 601 715 660 q 642 478 674 543 q 563 334 610 414 q 449 143 517 254 l 338 -36 q 246 -167 289 -114 q 159 -252 203 -219 q 68 -299 115 -285 q -35 -314 21 -314 l -56 -194 m 503 854 q 453 863 474 854 q 415 884 432 872 q 382 905 399 896 q 343 914 365 914 q 306 904 321 914 q 283 883 292 894 q 270 860 274 871 q 267 847 267 849 l 179 847 q 194 885 182 858 q 230 938 207 911 q 285 986 253 965 q 358 1007 317 1007 q 407 997 388 1007 q 443 976 426 988 q 476 956 460 965 q 517 946 493 946 q 558 956 542 946 q 584 978 574 965 q 599 1001 594 990 q 604 1014 604 1011 l 690 1014 q 675 979 688 1006 q 639 925 663 953 q 581 876 615 897 q 503 854 547 854 z "},"z":{"ha":653,"x_min":-51,"x_max":672,"o":"m -31 96 l 482 618 l 94 618 l 118 726 l 672 726 l 651 631 l 142 108 l 544 108 l 521 0 l -51 0 l -31 96 z "},"ź":{"ha":653,"x_min":-51,"x_max":672,"o":"m 404 836 l 307 861 l 413 1014 l 558 1014 l 404 836 m -31 96 l 482 618 l 94 618 l 118 726 l 672 726 l 651 631 l 142 108 l 544 108 l 521 0 l -51 0 l -31 96 z "},"ž":{"ha":653,"x_min":-51,"x_max":672,"o":"m 226 975 l 315 1014 l 408 926 l 539 1014 l 611 975 l 446 843 l 335 843 l 226 975 m -31 96 l 482 618 l 94 618 l 118 726 l 672 726 l 651 631 l 142 108 l 544 108 l 521 0 l -51 0 l -31 96 z "},"ż":{"ha":653,"x_min":-51,"x_max":672,"o":"m -31 96 l 482 618 l 94 618 l 118 726 l 672 726 l 651 631 l 142 108 l 544 108 l 521 0 l -51 0 l -31 96 m 329 854 l 364 1014 l 500 1014 l 467 854 l 329 854 z "},"₀":{"ha":639,"x_min":-12,"x_max":544,"o":"m 206 -121 q 107 -99 149 -121 q 39 -44 65 -78 q 0 33 13 -10 q -12 118 -12 76 q 14 238 -12 176 q 87 348 40 299 q 196 428 133 397 q 329 460 258 460 q 427 438 386 460 q 494 381 468 415 q 532 303 519 346 q 544 218 544 260 q 518 99 544 160 q 446 -10 492 39 q 338 -90 400 -58 q 206 -121 276 -121 m 83 131 q 92 73 83 101 q 117 22 100 44 q 161 -15 135 -1 q 225 -29 188 -29 q 318 -6 276 -29 q 389 53 360 18 q 434 130 418 89 q 450 207 450 171 q 442 265 450 236 q 415 317 433 294 q 371 354 397 340 q 308 368 344 368 q 214 344 256 368 q 143 285 172 321 q 99 208 114 250 q 83 131 83 167 z "},"⁰":{"ha":639,"x_min":131,"x_max":686,"o":"m 347 547 q 249 569 290 547 q 182 624 208 590 q 143 701 156 658 q 131 786 131 744 q 157 906 131 844 q 230 1016 183 967 q 338 1097 276 1065 q 471 1128 400 1128 q 569 1106 528 1128 q 635 1049 610 1083 q 674 971 661 1014 q 686 886 686 928 q 660 767 686 828 q 589 658 635 707 q 481 578 543 610 q 347 547 419 547 m 226 799 q 235 741 226 769 q 260 690 243 713 q 304 653 278 667 q 367 639 331 639 q 461 663 419 639 q 532 722 503 686 q 576 798 561 757 q 592 875 592 839 q 583 933 592 904 q 558 985 575 963 q 514 1022 540 1008 q 451 1036 488 1036 q 357 1013 399 1036 q 286 953 315 989 q 242 876 257 918 q 226 799 226 835 z "}," ":{"ha":1221,"x_min":0,"x_max":0,"o":""}," ":{"ha":786,"x_min":0,"x_max":0,"o":""},"̏":{"ha":468,"x_min":78,"x_max":433,"o":"m 278 1014 l 399 1014 l 433 861 l 350 835 l 278 1014 m 78 1014 l 201 1014 l 235 861 l 150 835 l 78 1014 z "},"̑":{"ha":417,"x_min":72,"x_max":399,"o":"m 72 844 q 99 912 81 881 q 144 966 118 943 q 201 1001 169 989 q 268 1014 233 1014 q 363 976 328 1014 q 399 882 399 938 q 397 863 399 872 q 393 844 396 854 l 311 844 q 313 864 313 856 q 314 882 314 872 q 256 943 314 943 q 190 917 214 943 q 156 844 167 890 l 72 844 l 72 844 z "},"ˉ":{"ha":546,"x_min":106,"x_max":518,"o":"m 125 989 l 518 989 l 497 892 l 106 892 l 125 989 z "},"¤":{"ha":793,"x_min":93,"x_max":719,"o":"m 257 682 q 325 715 288 703 q 407 726 363 726 q 487 715 450 726 q 556 682 524 703 l 653 781 l 719 715 l 622 618 q 655 548 643 586 q 667 468 667 510 q 655 388 667 426 q 621 318 643 350 l 719 221 l 660 163 l 558 257 q 490 224 528 236 q 407 211 451 211 q 323 224 361 211 q 253 257 285 236 l 153 163 l 93 221 l 192 319 q 147 468 147 385 q 158 547 147 510 q 190 617 168 585 l 93 715 l 160 781 l 257 682 m 265 467 q 276 405 265 433 q 306 356 288 376 q 351 323 325 335 q 407 311 378 311 q 508 356 467 311 q 549 469 549 401 q 508 581 549 538 q 407 625 467 625 q 306 581 347 625 q 265 467 265 536 z "},"₡":{"ha":753,"x_min":29,"x_max":742,"o":"m 203 7 q 74 118 118 40 q 29 292 29 196 q 53 433 29 364 q 121 558 78 501 q 224 658 164 615 q 356 721 283 700 l 392 896 l 465 896 l 431 736 q 453 738 442 738 q 476 739 465 739 q 493 738 485 739 q 510 738 501 738 l 544 896 l 618 896 l 581 724 q 685 661 644 704 q 742 558 725 618 l 583 511 q 533 583 568 557 q 447 608 497 608 q 351 585 397 608 q 267 522 304 563 q 209 426 231 481 q 188 310 188 372 q 199 233 188 268 q 231 172 210 197 q 280 131 251 146 q 343 117 308 117 q 397 124 369 117 q 448 146 424 132 q 492 178 472 160 q 524 217 511 196 l 664 172 q 563 66 625 111 q 426 0 501 21 l 392 -167 l 318 -167 l 351 -12 q 335 -13 343 -12 q 318 -14 326 -14 q 294 -13 306 -14 q 272 -11 283 -12 l 239 -167 l 167 -167 l 203 7 z "},"₩":{"ha":1511,"x_min":42,"x_max":1565,"o":"m 61 456 l 279 456 l 260 564 l 85 564 l 104 656 l 244 656 l 186 986 l 356 986 l 403 656 l 664 656 l 615 982 l 761 982 l 803 647 l 988 982 l 1133 982 l 944 656 l 1207 656 l 1394 986 l 1565 986 l 1365 656 l 1510 656 l 1490 564 l 1310 564 l 1244 456 l 1467 456 l 1447 363 l 1189 363 l 971 0 l 838 0 l 760 442 l 494 0 l 361 0 l 296 363 l 42 363 l 61 456 m 894 456 l 1094 456 l 1156 564 l 892 564 l 881 543 l 894 456 m 678 564 l 415 564 l 431 456 l 631 456 l 682 543 l 678 564 m 471 181 l 576 363 l 444 363 l 471 181 m 939 181 l 1042 363 l 910 363 l 939 181 z "}}}
